<svg xmlns="http://www.w3.org/2000/svg" width="150.1" height="150.4" viewBox="0 0 39.7 39.8"><path fill="#f8f396" d="M18.8 39.8h-.7A20 20 0 0 1 1.3 27a19.9 19.9 0 1 1 17.5 12.7M16.5 31q0-1.2-.7-1.7l-.2-.3-.4.2-1.1.6h-.2l.6.6.7.7 1.2.4zm8.2 0 .4-.1.8-1.2h-.3q-.3.1-1.1-.5l-.4-.2-.2.1-.3 1.1v1.2l.4-.1zm-4.3-2.3.5-1.3q.6-1 .5-1.3a5 5 0 0 0-1.5-3l-.2.5-.7 1.6-.5 1 .5 1c.6 1.1.7 1.5.8 2.2v.4l.2-.2zM10 25.5l.2-.4q0-.5.4-1l.2-.3-.5-.3h-.2L9 23.3H8s.3.8.6 1.1l.4.6.9.7zm20.7-.7.6-.6.2-.5v-.3h-1.7l-.3.2-.3.1v.3q0 .3.2.5l.5.8v.3l.2-.2zm-4-3.7q1-.9 2.7-1h.5v-.7h-.5l-.8-.1c-.4-.1-1.3-.6-1.8-1l-.4-.2-.2.2q-.5.5-1 .6l-1.6.4-.2.1v.7h.2l1 .4 1.9.8zm-12.2-.3q1.3-.7 1.6-.7.2 0 .3-.4v-.2H16l-.8-.2-2.1-1-.7.3c-1 .7-1.5.8-2.4.9h-.4l.4.2 3.5 1.5zm17-4.7L30 13.9l-.2.6-.3.9q-.2.4.2.5l.7.2zM9.8 16c.3 0 .9-.4.8-.4l-.2-.5q-.3-.5-.5-1.3v-.2l-.2.2L8.3 16zm10.3-1 .8-1.3.5-.7-.5-1.3-.7-1.7-.2-.5-.1.3-.6 1.6c-.1.7-.5 1.6-.7 1.9h-.1l.1.2a6 6 0 0 1 1.3 2.3v.2l.1-.3zM16 10.4c0-.2.4-2.1.3-2.2l-1.5.5-.9.9.5.2 1.4.6zm8.4-.2 1.2-.5v-.3l-.2-.5q-.4-.7-1.5-.8h-.4l.1.8.3 1.6z"/><path fill="#eeec69" d="M18.8 39.8h-.7A20 20 0 0 1 1.3 27a19.9 19.9 0 1 1 17.5 12.7m.6-7c0-2.9 0-2.8-.3-3.7q-.5-1.2-1.1-2h-.2l-.7.7-.6.7v.2q.5.6.7 1.7a5 5 0 0 1-.2 2l-2-.6a6 6 0 0 1-2.3-2.1q-.3-.6 0-1.6l.2-.9.2-1 .2-.6c.1-.3-.1-.1-.4-.3l-.8-.7-.5-.4v.2l-.5 1-.8 2.2c0 .4 0 1.3.3 1.9a10 10 0 0 0 6.2 5.5l1.8.2h.8zm3 2.2c2-.7 3-1 4.1-1.8a6 6 0 0 0 2.6-3l.1-.3h-2.4l-1 1c-1 1-1.1 1-1.7 1.2-.2.1-1.2.2-1.3.1v-.5l.1-1.1 1.1-3q.8-1.3 1.7-2l.3-.2h-.1l-.9-.7-.6-.4-.3-.3-.2.3a18 18 0 0 0-3.3 6c-.1.7-.2 1.1-.2 3v1.9h1.3zm-6-4q0-1.2-.6-1.7l-.2-.3-.4.2-1.1.6h-.2l.6.6.7.7 1.2.4zm8.3 0 .4-.1.8-1.2h-.3q-.3.1-1.1-.5l-.4-.2-.2.1-.3 1.1v1.2l.4-.1zm-4.3-2.3.5-1.3q.6-1 .5-1.3a5 5 0 0 0-1.5-3l-.2.5-.7 1.6-.5 1 .5 1c.6 1.1.7 1.5.8 2.2v.4l.2-.2zm9.8.4.7-.3a12 12 0 0 0 4.5-6.6l.1-1.3V20H33l-1.7.2-2.7.4q-.8.2-1.3.7l-.3.3 1.8 1.6.4-.2c.5-.4.4-.4 2-.4h1.5v.5q.1.8-.4 1.2a8 8 0 0 1-3.5 2.8c-.7.2-1 .2-2.2-.2l-.8-.3-.5.5-.6.5-.1.4-.2.4.1.1 1.1.6H30zm-20.6-.9.2-1.7v-.2q-.5 0-.6-.2a4 4 0 0 1-1.4-1.6l-.5-1.7h1.1c1.1-.2 1.2-.2 1.5 0 1.3.2 2.2.7 3.8 2.2l.5.6.1-.2 1-1.2.4-.4-.3-.3c-.8-.8-2.8-2.1-4.1-2.8-1-.4-1.2-.5-1.8-.5L7.4 20H4.6l-.2.1.2.8q.7 2.9 1.5 4.4A8 8 0 0 0 8.2 28l1.3.8zm.5-2.7.2-.4q0-.5.4-1l.2-.3-.5-.3h-.2L9 23.3H8s.3.8.6 1.1l.4.6.9.7zm20.7-.7.6-.6.2-.5v-.3h-1.7l-.3.2-.3.1v.3q0 .3.2.5l.5.8v.3l.2-.2zm-4-3.7q1-.9 2.7-1h.5v-.7h-.5l-.8-.1c-.4-.1-1.3-.6-1.8-1l-.4-.2-.2.2q-.5.5-1 .6l-1.6.4-.2.1v.7h.2l1 .4 1.9.8zm-12.2-.3q1.3-.7 1.6-.7.2 0 .3-.4v-.2H16l-.8-.2-2.1-1-.7.3c-1 .7-1.5.8-2.4.9h-.4l.4.2 3.5 1.5zM10.2 19l1.8-.7.7-.4-1.4-1.6-.3-.2-.1.1q-.5.5-.8.5l-1.4.1H7.5v-.5c0-.5 0-.5.3-.8q1.8-3.4 4-3.4h.4l.8.4 1.3.5.3-.3.9-1.5-1.4-.7-2-.6a4 4 0 0 0-2.2.5A11 11 0 0 0 5 16c-.2.7-.2.9-.2 2v1h5.6m25.3-.3q.1-.1-.4-1.7l-.6-1.9q-1.4-3.4-3.9-4.4l-.3-.1V13l.2.1 1.6 2.1q.6.7.5 1.2v.3h-2.9l-.3-.2a14 14 0 0 1-3.6-2.7l-.4.4-1 1.2-.2.1.8.7L28 18q1.3.8 2.2.9h5.5zm-3.9-2.6L30 13.9l-.2.6-.3.9q-.2.4.2.5l.7.2zm-22-.1c.3 0 .9-.4.8-.4l-.2-.5q-.3-.5-.5-1.3v-.2l-.2.2L8.3 16zm10.3-1 .8-1.3.5-.8-.5-1.2-.7-1.7-.2-.5-.1.3-.6 1.6q-.3 1.3-.7 1.9h-.1l.1.2a6 6 0 0 1 1.3 2.3v.2l.1-.3zm-4 0q.6-.4 1.6-1.8c.4-.6 1-2 1.3-2.8.4-1 .4-.8.4-3.7V4.2h-1.1l-.8.3c-1.7.5-3.4 1.3-4.3 2q-1.3.8-2.1 2.2l-.2.5v.2l.3-.1.6-.2.8.2q.6.3.6 0l2-1.4q1-.8 1.5-.7h.4v2.6q-.3 1.4-1.9 3l-.9 1v.3l.6.4c.6.6.7.6 1.2.4m12.9-.6.5-1 .1-1.8V10l-.1-.4q-.7-2.4-4.3-4.1c-1-.5-2.5-1.2-3-1.3h-1.9V6l.2 1.4v.9l1.3 4 1-.8q.8-.7.4-2l-.3-1-.2-.9q-.2-.6.7-.5l.7.1.5.3q.4.1.8.5c.5.3 1.3 1 1.6 1.4q.6 1 .5 2c-.2 1.5-.2 1.4-.5 1.8l-.2.4q0 .3.7.8l1 .5zm-13-4c0-.2.4-2.1.3-2.2l-1.5.5-.9.9.5.2 1.4.6zm8.4-.2 1.2-.5v-.3l-.2-.5q-.4-.7-1.5-.8h-.4l.1.8.3 1.6z"/><path fill="#d5dc3f" d="M18.8 39.8h-.7A20 20 0 0 1 1.3 27a19.9 19.9 0 1 1 17.5 12.7m2.5-1.3q4.5-.4 8.6-3a19 19 0 0 0 8.7-16c0-2.6-.6-4.7-1.7-7.1A20 20 0 0 0 23.6 1.6c-1.3-.3-2.2-.4-3.7-.4l-3 .2a20 20 0 0 0-11.3 7A20 20 0 0 0 3 12.5a17 17 0 0 0 1 16.8q3.6 5.1 9.4 7.7 4 1.5 8 1.4m-1.9-2.3q-2.2-.2-4.7-1.5-1.9-1-3.3-2.5A6 6 0 0 1 9.8 30l-.1-.3h-.3q-1.2-.5-2-1.5a13 13 0 0 1-3.7-9.5c.4-2.5 2-5.5 3.8-7.4.8-.8 1.2-1.1 2-1.3l.2-.1.2-.4.2-.6q1-1.7 3.6-3.5L16.5 4q2.4-.9 4-.7c2 .2 5 1.4 6.9 2.8Q29.8 8 30 9.4l.1.3.4.2.7.2c.7.2 1.1.5 2.1 1.5q1 .8 1.4 1.9c.6 1.3 1.3 3.2 1.5 4v2.3l-.1 3.3q-.4 1.1-1.3 2.5-1 1.5-3.3 3.8c-1 1-1.6 1.5-2.3 2.4q-1.1 1.4-2.2 2l-4 1.8q-2.1.8-3.6.6m0-3.5c0-2.8 0-2.7-.3-3.6q-.5-1.2-1.1-2h-.2l-.7.7-.6.7v.2q.5.6.7 1.7a5 5 0 0 1-.2 2l-2-.6a6 6 0 0 1-2.3-2.1q-.3-.6 0-1.6l.2-.9.2-1 .2-.6c.1-.3-.1-.1-.4-.3l-.8-.7-.5-.4v.2l-.5 1-.8 2.2c0 .4 0 1.3.3 1.9a10 10 0 0 0 6.2 5.5l1.8.2h.8zm3 2.3c2-.7 3-1 4.1-1.8a6 6 0 0 0 2.6-3l.1-.3h-2.4l-1 1c-1 1-1.1 1-1.7 1.2-.2.1-1.2.2-1.3.1v-.5l.1-1.1 1.1-3q.8-1.3 1.7-2l.3-.2h-.1l-.9-.7-.6-.4-.3-.3-.2.3a18 18 0 0 0-3.3 6c-.1.7-.2 1.1-.2 3v1.9h1.3zm-6-4q0-1.2-.6-1.7l-.2-.3-.4.2-1.1.6h-.2l.6.6.7.7 1.2.4zm8.3 0 .4-.1.8-1.2h-.3q-.3.1-1.1-.5l-.4-.2-.2.1-.3 1.1v1.2l.4-.1zm-4.3-2.3.5-1.3q.6-1 .5-1.3a5 5 0 0 0-1.5-3l-.2.5-.7 1.6-.5 1 .5 1c.6 1.1.7 1.5.8 2.2v.4l.2-.2zm9.8.4.7-.3a12 12 0 0 0 4.5-6.6l.1-1.3v-.8H33l-1.7.2-2.7.4q-.8.2-1.3.7l-.3.3 1.8 1.6.4-.2c.5-.4.4-.4 2-.4h1.5v.5q.1.8-.4 1.2a8 8 0 0 1-3.5 2.8c-.7.2-1 .2-2.2-.2l-.8-.3-.5.5-.6.5-.1.4-.2.4.1.1 1.1.6H30zm-16-.1q1.2-.6 2.3-1.6 1.4-1.5 2.4-3.5l.1-.6v-.2l-1 .2c-1 .2-1.2.2-1.9.8l-2.7 3.2q-.3.4 0 1.2l.1.5q-.1.3.6 0m-4.6-.8.2-1.7v-.2q-.5 0-.6-.2a4 4 0 0 1-1.4-1.6l-.5-1.7h1.1c1.1-.2 1.2-.2 1.5 0 1.3.2 2.2.7 3.8 2.2l.5.6.1-.2 1-1.2.4-.4-.3-.3c-.8-.8-2.8-2.1-4.1-2.8-1-.4-1.2-.5-1.8-.5l-2-.2H4.6l-.2.1.2.8q.7 2.9 1.5 4.4A8 8 0 0 0 8.2 28l1.3.8zm18.9-1.4.6-.2.2-.2-.2-.8a3 3 0 0 0-.6-1.6 10 10 0 0 0-3.4-3q-.6-.3-1.3-.3h-.4l.4 2q.7.3 1.4 1 1.1 1.1 1.9 2.6.2.6.4.5zM10 25.5l.2-.4q0-.5.4-1l.2-.3-.5-.3h-.2L9 23.3H8s.3.8.6 1.1l.4.6.9.7zm20.7-.7.6-.6.2-.5v-.3h-1.7l-.3.2-.3.1v.3q0 .3.2.5l.5.8v.3l.2-.2zm-4-3.7q1-.9 2.7-1h.5v-.7h-.5l-.8-.1c-.4-.1-1.3-.6-1.8-1l-.4-.2-.2.2q-.5.5-1 .6l-1.6.4-.2.1v.7h.2l1 .4 1.9.8zm-12.2-.3q1.3-.7 1.6-.7.2 0 .3-.4v-.2H16l-.8-.2-2.1-1-.7.3c-1 .7-1.5.8-2.4.9h-.4l.4.2 3.5 1.5zM10.2 19l1.8-.7.7-.4-1.4-1.6-.3-.2-.1.1q-.5.5-.8.5l-1.4.1H7.5v-.5c0-.5 0-.5.3-.8q1.8-3.4 4-3.4h.4l.8.4 1.3.5.3-.3.9-1.5-1.4-.7-2-.6a4 4 0 0 0-2.2.5A11 11 0 0 0 5 16c-.2.7-.2.9-.2 2v1h5.6m25.3-.3q.1-.1-.4-1.7l-.6-1.9q-1.4-3.4-3.9-4.4l-.3-.1V13l.2.1 1.6 2.1q.6.7.5 1.2v.3h-2.9l-.3-.2a14 14 0 0 1-3.6-2.7l-.4.4-1 1.2-.2.1.8.7L28 18q1.3.8 2.2.9h5.5zm-19-.6v-.7l-.3-.4-.6-.7-2.9-2.9-.7-.5H11l-.6.3.6 1.5a10 10 0 0 0 5.2 4h.3zm5.7-2 1.1-.2v-.2q0-.6 1.1-1.6c.6-.7 1.6-1.4 2.1-1.7h.2V12q0-.7-.2-1.2l-.4-.6-1.9 1.4a14 14 0 0 0-3 3.1c-.2.2-.3 1.2-.3 1.4zm9.4 0L30 13.9l-.2.6-.3.9q-.2.4.2.5l.7.2zm-22-.1c.3 0 .9-.4.8-.4l-.2-.5q-.3-.5-.5-1.3v-.2l-.2.2L8.3 16zm10.3-1 .8-1.3.5-.8-.5-1.2-.7-1.7-.2-.5-.1.3-.6 1.6q-.3 1.3-.7 1.9h-.1l.1.2a6 6 0 0 1 1.3 2.3v.2l.1-.3zm-4 0q.6-.4 1.6-1.8c.4-.6 1-2 1.3-2.8.4-1 .4-.8.4-3.7V4.2h-1.1l-.8.3c-1.7.5-3.4 1.3-4.3 2q-1.3.8-2.1 2.2l-.2.5v.2l.3-.1.6-.2.8.2q.6.3.6 0l2-1.4q1-.8 1.5-.7h.4v2.6q-.3 1.4-1.9 3l-.9 1v.3l.6.4c.6.6.7.6 1.2.4m12.9-.6.5-1 .1-1.8V10l-.1-.4q-.7-2.4-4.3-4.1c-1-.5-2.5-1.2-3-1.3h-1.9V6l.2 1.4v.9l1.3 4 1-.8q.8-.7.4-2l-.3-1-.2-.9q-.2-.6.7-.5l.7.1.5.3q.4.1.8.5c.5.3 1.3 1 1.6 1.4q.6 1 .5 2c-.2 1.5-.2 1.4-.5 1.8l-.2.4q0 .3.7.8l1 .5zm-13-4c0-.2.4-2.1.3-2.2l-1.5.5-.9.9.5.2 1.4.6zm8.4-.2 1.2-.5v-.3l-.2-.5q-.4-.7-1.5-.8h-.4l.1.8.3 1.6z"/><path fill="#221e1f" d="M18.8 39.8h-.7A20 20 0 0 1 1.3 27a19.9 19.9 0 1 1 17.5 12.7m2.5-1.3q4.5-.4 8.6-3a19 19 0 0 0 8.7-16c0-2.6-.6-4.7-1.7-7.1A20 20 0 0 0 23.6 1.6c-1.3-.3-2.2-.4-3.7-.4l-3 .2a20 20 0 0 0-11.3 7A20 20 0 0 0 3 12.5a17 17 0 0 0 1 16.8q3.6 5.1 9.4 7.7 4 1.5 8 1.4m-1.9-2.3q-2.2-.2-4.7-1.5-1.9-1-3.3-2.5A6 6 0 0 1 9.8 30l-.1-.3h-.3q-1.2-.5-2-1.5a13 13 0 0 1-3.7-9.5c.4-2.5 2-5.5 3.8-7.4.8-.8 1.2-1.1 2-1.3l.2-.1.2-.4.2-.6q1-1.7 3.6-3.5L16.5 4q2.4-.9 4-.7c2 .2 5 1.4 6.9 2.8Q29.8 8 30 9.4l.1.3.4.2.7.2c.7.2 1.1.5 2.1 1.5q1 .8 1.4 1.9c.6 1.3 1.3 3.2 1.5 4v2.3l-.1 3.3q-.4 1.1-1.3 2.5-1 1.5-3.3 3.8c-1 1-1.6 1.5-2.3 2.4q-1.1 1.4-2.2 2l-4 1.8q-2.1.8-3.6.6m0-3.5c0-2.8 0-2.7-.3-3.6q-.5-1.2-1.1-2h-.2l-.7.7-.6.7v.2q.5.6.7 1.7a5 5 0 0 1-.2 2l-2-.6a6 6 0 0 1-2.3-2.1q-.3-.6 0-1.6l.2-.9.2-1 .2-.6c.1-.3-.1-.1-.4-.3l-.8-.7-.5-.4v.2l-.5 1-.8 2.2c0 .4 0 1.3.3 1.9a10 10 0 0 0 6.2 5.5l1.8.2h.8zm3 2.3c2-.7 3-1 4.1-1.8a6 6 0 0 0 2.6-3l.1-.3h-2.4l-1 1c-1 1-1.1 1-1.7 1.2-.2.1-1.2.2-1.3.1v-.5l.1-1.1 1.1-3q.8-1.3 1.7-2l.3-.2h-.1l-.9-.7-.6-.4-.3-.3-.2.3a18 18 0 0 0-3.3 6c-.1.7-.2 1.1-.2 3v1.9h1.3zm-6-4q0-1.2-.6-1.7l-.2-.3-.4.2-1.1.6h-.2l.6.6.7.7 1.2.4zm8.3 0 .4-.1.8-1.2h-.3q-.3.1-1.1-.5l-.4-.2-.2.1-.3 1.1v1.2l.4-.1zm-4.3-2.3.5-1.3q.6-1 .5-1.3a5 5 0 0 0-1.5-3l-.2.5-.7 1.6-.5 1 .5 1c.6 1.1.7 1.5.8 2.2v.4l.2-.2zm9.8.4.7-.3a12 12 0 0 0 4.5-6.6l.1-1.3v-.8H33l-1.7.2-2.7.4q-.8.2-1.3.7l-.3.3 1.8 1.6.4-.2c.5-.4.4-.4 2-.4h1.5v.5q.1.8-.4 1.2a8 8 0 0 1-3.5 2.8c-.7.2-1 .2-2.2-.2l-.8-.3-.5.5-.6.5-.1.4-.2.4.1.1 1.1.6H30zm-16-.1q1.2-.6 2.3-1.6 1.4-1.5 2.4-3.5l.1-.6v-.2l-1 .2c-1 .2-1.2.2-1.9.8l-2.7 3.2q-.3.4 0 1.2l.1.5q-.1.3.6 0m-4.6-.8.2-1.7v-.2q-.5 0-.6-.2a4 4 0 0 1-1.4-1.6l-.5-1.7h1.1c1.1-.2 1.2-.2 1.5 0 1.3.2 2.2.7 3.8 2.2l.5.6.1-.2 1-1.2.4-.4-.3-.3c-.8-.8-2.8-2.1-4.1-2.8-1-.4-1.2-.5-1.8-.5l-2-.2H4.6l-.2.1.2.8q.7 2.9 1.5 4.4A8 8 0 0 0 8.2 28l1.3.8zm18.9-1.4.6-.2.2-.2-.2-.8a3 3 0 0 0-.6-1.6 10 10 0 0 0-3.4-3q-.6-.3-1.3-.3h-.4l.4 2q.7.3 1.4 1 1.1 1.1 1.9 2.6.2.6.4.5zM10 25.5l.2-.4q0-.5.4-1l.2-.3-.5-.3h-.2L9 23.3H8s.3.8.6 1.1l.4.6.9.7zm20.7-.7.6-.6.2-.5v-.3h-1.7l-.3.2-.3.1v.3q0 .3.2.5l.5.8v.3l.2-.2zm-8.4.2.5-.7.4-.6V23l-.3-1.2-.3-1.8v-.3h-.2q-.7.6-1.8.1l-.3-.1v.9q0 1 .2 1.4.3 1.2 1 2.7l.2.4h.5zm-5.9-2q.9-.6 2.8-.7h.3V20h-.3c-1.5 0-3.5.5-5 1.3l-.3.2.4.3.8.7.6.5.2.2.2-.1zm10.4-2q1-.9 2.7-1h.5v-.7h-.5l-.8-.1c-.4-.1-1.3-.6-1.8-1l-.4-.2-.2.2q-.5.5-1 .6l-1.6.4-.2.1v.7h.2l1 .4 1.9.8zm-12.2-.3q1.3-.7 1.6-.7.2 0 .3-.4v-.2H16l-.8-.2-2.1-1-.7.3c-1 .7-1.5.8-2.4.9h-.4l.4.2 3.5 1.5zm3.7-1.3h1V18c0-1.8 0-1.9-.2-2.3q-.3-.6-1-1.2l-.2-.2-.3.4-.7.6q-.8.6-.1 1.2c.4.5.3.4.4 1.9v1.2h1.1m3.4-.2.7-.1 2.7-1 .6-.2v-.5l-.3-.2-.7-.4-.6-.4-1.6.1-2.3.5v.4l.3 1.3v.5zM10.2 19l1.8-.7.7-.4-1.4-1.6-.3-.2-.1.1q-.5.5-.8.5l-1.4.1H7.5v-.5c0-.5 0-.5.3-.8q1.8-3.3 4-3.4h.4l.8.4 1.3.5.3-.3.9-1.5-1.4-.7-2-.6a4 4 0 0 0-2.2.4A11 11 0 0 0 5 16c-.2.7-.2.9-.2 2v1h5.6m25.3-.3q.1-.1-.4-1.7l-.6-1.9q-1.4-3.4-3.9-4.4l-.3-.1V13l.2.1 1.6 2.1q.6.7.5 1.2v.3h-2.9l-.3-.2a14 14 0 0 1-3.6-2.7l-.4.4-1 1.2-.2.1.8.7L28 18q1.3.8 2.2.9h5.5zm-19-.6v-.7l-.3-.4-.6-.7-2.9-2.9-.7-.5H11l-.6.3.6 1.5a10 10 0 0 0 5.2 4h.3zm5.7-2 1.1-.2v-.2q0-.6 1.1-1.6c.6-.7 1.6-1.4 2.1-1.7h.2V12q0-.7-.2-1.2l-.4-.6-1.9 1.4a14 14 0 0 0-3 3.1c-.2.2-.3 1.2-.3 1.4zm9.4 0L30 13.9l-.2.6-.3.9q-.2.4.2.5l.7.2zm-22-.1c.3 0 .9-.4.8-.4l-.2-.5q-.3-.5-.5-1.3v-.2l-.2.2L8.3 16zm10.3-1 .8-1.3.5-.8-.5-1.2-.7-1.7-.2-.5-.1.3-.6 1.6q-.3 1.3-.7 1.9h-.1l.1.2a6 6 0 0 1 1.3 2.3v.2l.1-.3zm-4 0q.6-.4 1.6-1.8c.4-.6 1-2 1.3-2.8.4-1 .4-.8.4-3.7V4.2h-1.1l-.8.3c-1.7.5-3.4 1.3-4.3 2q-1.3.8-2.1 2.2l-.2.5v.2l.3-.1.6-.2.8.2q.6.3.6 0l2-1.4q1-.8 1.5-.7h.4v2.6q-.3 1.4-1.9 3l-.9 1v.3l.6.4c.6.6.7.6 1.2.4m12.9-.6.5-1 .1-1.8V10l-.1-.4q-.7-2.4-4.3-4.1c-1-.5-2.5-1.2-3-1.3h-1.9V6l.2 1.4v.9l1.3 4 1-.8q.8-.7.4-2l-.3-1-.2-.9q-.2-.6.7-.5l.7.1.5.3q.4.1.8.5c.5.3 1.3 1 1.6 1.4q.6 1 .5 2c-.2 1.5-.2 1.4-.5 1.8l-.2.4q0 .3.7.8l1 .5zm-13-4c0-.2.4-2.1.3-2.2l-1.5.5-.9.9.5.2 1.4.6zm8.4-.2 1.2-.5v-.3l-.2-.5q-.4-.7-1.5-.8h-.4l.1.8.3 1.6z"/></svg>