<svg xmlns="http://www.w3.org/2000/svg" width="150.4" height="150.2" viewBox="0 0 39.8 39.7"><path fill="#d99e6b" d="M18.7 39.7a20 20 0 0 1-12.9-5.8 20 20 0 0 1-4.1-6A19 19 0 0 1 0 22v-4.5Q.4 14 1.9 11q3-6 9.1-9.1a20 20 0 0 1 6.7-2H22a20 20 0 0 1 13 32.7L32.8 35a20 20 0 0 1-14 4.7m1-.6q.1-.5-.7-2.5L18 34v-.4l-.4.2q-1.6.6-3.3.7c-1.4 0-3.4-.4-5-1A25 25 0 0 1 4 30.6l.3.5c2.3 3.3 5.8 5.9 9.6 7a19 19 0 0 0 5.4 1zm2.7-.1q3.2-.5 6-1.8a20 20 0 0 0 7.7-7l-.4.4a12 12 0 0 1-5.3 2.3l-4.9.4c-1 0-2.2.2-2.7.3-.7 0-2 0-2.8-.2q-.4-.1-.2.4l.3 1.6q.3 2.4.7 3.5v.2h.6zm15.2-12a20 20 0 0 0 1.4-8.7A19.4 19.4 0 0 0 22.3.8l.3.2 1.5.7L25.6 3q1.2 1.2 1.2 2.5a6 6 0 0 1-.7 2.8q-.4 1-.4 1.6t.6 1.2c.6.5 1 .7 2.6 1l1.2.4c.6.2 2.7 1.4 3 1.7q1 .9.3 2.4L32 18.2c-.7.5-.9.6-2.3 1.2l-2.3 1.2a1 1 0 0 0-.5 1l.1.4q.4.4 2.2 1c2 .6 2.1.7 3.6 1.4l1.8.9 1.1 1 .9 1.5.3 1v.1l.3-.5zm-35.3-.4q.7-1.7 3.7-3.3l2.5-1q1.2-.2 1.6-.5.8-.3.7-.9l-.5-1.1-.8-1c-2-1.9-2.4-2.2-2.4-3q0-.7.2-1.2.5-.8 1-1.2 1-.5 2.9-1c.7-.2 1.8-.5 2-.7q.8-.4.9-1.2 0-.4-.6-.9a5 5 0 0 1-1.7-2q-.6-.9-.5-1.5 0-.4.2-.7L12.8 4c.7-.6 1.3-1 3.8-2.3l1.6-1s-1 0-1.7.2q-2.5.4-5 1.6a19 19 0 0 0-8.7 8.6 18 18 0 0 0-1.6 13c.2 1 .6 2.4 1 3.1v.2-.3z"/><path fill="#bb895c" d="M18.7 39.7a20 20 0 0 1-12.9-5.8 20 20 0 0 1-4.1-6A19 19 0 0 1 0 22v-4.5Q.4 14 1.9 11q3-6 9.1-9.1a20 20 0 0 1 6.7-2H22a20 20 0 0 1 13 32.7L32.8 35a20 20 0 0 1-14 4.7m1-.6q.1-.5-.7-2.5L18 34v-.4l-.4.2q-1.6.6-3.3.7c-1.4 0-3.4-.4-5-1A25 25 0 0 1 4 30.6l.3.5c2.3 3.3 5.8 5.9 9.6 7a19 19 0 0 0 5.4 1zm2.7-.1q3.2-.5 6-1.8a20 20 0 0 0 7.7-7l-.4.4a12 12 0 0 1-5.3 2.3l-4.9.4c-1 0-2.2.2-2.7.3-.7 0-2 0-2.8-.2q-.4-.1-.2.4l.3 1.6q.3 2.4.7 3.5v.2h.6zm-7-5.5L17 33l1-.6h-4.7l-.5-.1H12q-.6.2-1.1 0c-.2 0-.9-.7-.9-.8l-.6-.3-1-.2-.2-.1-.6-.3h-.1v-.1h-.2q-.1 0 0-.1h-.1l-.2-.2-.5-.6q-.3-.3-.2-1.2v-.7l.1-.2.5-.6.2-.2.2-.1q.2-.4 1-.9l.4-.3.2-.2.3-.1.3-.1.3-.1 1.4-.5.5-.4h.1v-.2h.2l.1-.1.1-.1.1-.1.2-.2h.1l.2-.2.1-.1.6-.6.2-.2q.3-.4.3-.9V21q.2-.1 0-.2v-.4l-.3-.9q0-.3-.6-.6l-.3-.4-.2-.3-.6-.6-.2-.3v-.2l-.3-.4-.2-.4v-.7l.3-.5.2-.2h.2l.2-.2.3-.1.1-.1.2-.2.1-.2q0-.3.2-.4v-.2h.2v-.1h.1l.1-.1.2-.1q.3-.4 1.2-.4h.7l.3.2h.2l.2-.2q.3-.3.2-.4l-.1-.8V11l-.2-.3-.2-.5v-.1l-.2-.3-.3-.5-.2-.4v-.2l-.2-.4L15 8l-.1-.2-.1-.2-.2-.3c-.4-.4-.4-.4-.3-1v-.5l.1-.2.1-.1.1-.1.1-.1.1-.1h.2q.2 0 .2-.2-.1-.2.1 0 .2 0 .2-.2l.3-.2.3-.2.1-.1.3-.3a5 5 0 0 1 1.8-1l1-.4q.6 0 1 .2h.2l.2.1.2.2.6.4c.3.4 1 .9 1.2.9h.1l.1.2.2.1.3.4.4.7.1 1q0 1.3-.2 1.6v.2l-.3.7-.1.3-.2.6-.2.5v.5l-.2.5V13l.2.1.5.2q.2.2.9.2.5 0 .5.2h1.6l.2.2h1l.5-.2.7.1.2.1q.3 0 .2.6l-.1.6v.1l.2 1.2v.8l-.2.1-.7.6-.2.1-.2.1-.7.4-1 .4-.5.2-.3.1-.2.2-.2.1-.2.2-.5.3h-.2l-.2.3-.1.2-.2.4v.2l-.2.9.1.7v.1l.1.2.2.2.2.3.1.2h.1l.5.3.5.2.3.2.3.1.3.1.6.1.7.1.5.1.4.1.4.1.4.2.4.1.2.1h.2v.1l.3.1.6.1.5.1.4.1.3.2.4.1.3.2.2.2.4.4.2.2.2.2.2.3q.3.2.2.6 0 .5-.2.5v.2q0 .2-.3.2t-.3.2l-.5.3-.2.1-.2.1-.7.3-.3.2-.4.2-.3.1h-.3l-.4.2h-.3l-.5.2-1 .2-1 .1-.4.1q-.3.2-1.8.2l-.9.1h-3.1l-.9.1-.6.1.5.1.8.1q.8.3 3.4.2c5.2 0 7-.3 9.2-1.7.7-.5 2-1.5 2.1-1.8q.3-.4-.2-1.3c-.2-.5-.2-.5-.9-1.1a11 11 0 0 0-5.2-2.6c-2-.6-2.7-.8-3.6-1.4q-.9-.6-.8-1t.5-.9c1-.8 1.3-1 3-1.6 1.5-.5 1.7-.6 2.4-1.1q1-.8 1.4-1.7l.3-1-.1-.5q-.3-.6-1.8-1.2l-.8-.4-.8-.3-1.9-.2q-2 0-2.9-1.6l-.1-.8.1-1 .9-1.8c.7-1.4.7-2 .1-3L24 3.2 22.1 2l-1.5-.6-.7-.3-.3-.1-.5.2-1.6 1c-2 1.1-2.7 1.6-3.8 2.6-.7.7-.8.9-.8 1.4q0 .4.2.6.3.8 1.3 2.1c.8 1.2 1 1.8.6 2.7q-.3.5-.7.7l-.8.2q-3.1.5-4 1.2-.5.3-.8 1.1l-.1.9v.7c.3.5.7.9 2 1.9q1.3.9 1.5 1.6.5.9.2 1.6l-.8.8q-.7.5-2.8 1.2l-1.4.6q-1.5.5-2.4 1.3-1.4 1.3-1.2 2.5c0 .4.5 1.2.8 1.6.5.6.9.9 2.7 1.8 3 1.5 4.5 2 6.4 2.3zM37.8 27a20 20 0 0 0 1.4-8.7A19.4 19.4 0 0 0 22.3.8l.3.2 1.5.7L25.6 3q1.2 1.2 1.2 2.5a6 6 0 0 1-.7 2.8q-.4 1-.4 1.6t.6 1.2c.6.5 1 .7 2.6 1l1.2.4c.6.2 2.7 1.4 3 1.7q1 .9.3 2.4L32 18.2c-.7.5-.9.6-2.3 1.2l-2.3 1.2a1 1 0 0 0-.5 1l.1.4q.4.4 2.2 1c2 .6 2.1.7 3.6 1.4l1.8.9 1.1 1 .9 1.5.3 1v.1l.3-.5zm-35.3-.4q.7-1.7 3.7-3.3l2.5-1q1.2-.2 1.6-.5.8-.3.7-.9l-.5-1.1-.8-1c-2-1.9-2.4-2.2-2.4-3q0-.7.2-1.2.5-.8 1-1.2 1-.5 2.9-1c.7-.2 1.8-.5 2-.7q.8-.4.9-1.2 0-.4-.6-.9a5 5 0 0 1-1.7-2q-.6-.9-.5-1.5 0-.4.2-.7L12.9 4c.7-.6 1.3-1 3.8-2.3l1.6-1s-1 0-1.7.2q-2.5.4-5 1.6a19 19 0 0 0-8.7 8.6 18 18 0 0 0-1.6 13c.2 1 .6 2.4 1 3.1v.2-.3zM24 19.4q0 .2 0 0"/><path fill="#926c47" d="M18.7 39.7a20 20 0 0 1-12.9-5.8 20 20 0 0 1-4.1-6A19 19 0 0 1 0 22v-4.5Q.4 14 1.9 11q3-6 9.1-9.1a20 20 0 0 1 6.7-2H22a20 20 0 0 1 13 32.7L32.8 35a20 20 0 0 1-14 4.7m1-.6q.1-.5-.7-2.5L18 34v-.4l-.4.2q-1.6.6-3.3.7c-1.4 0-3.4-.4-5-1A25 25 0 0 1 4 30.6l.3.5c2.3 3.3 5.8 5.9 9.6 7a19 19 0 0 0 5.4 1zm2.7-.1q3.2-.5 6-1.8a20 20 0 0 0 7.7-7l-.4.4a12 12 0 0 1-5.3 2.3l-4.9.4c-1 0-2.2.2-2.7.3-.7 0-2 0-2.8-.2q-.4-.1-.2.4l.3 1.6q.3 2.4.7 3.5v.2h.6zm-7-5.5q1.4-.2 2.3-.9l.5-.5-1-.2h-1c-.4-.2-1.6-.2-2.5-.1h-2.2l-.4-.4-.1-.7q0-1-.3-1.2-.6-.5-.5-.9l-.2-.2h-.5q-.4 0-.5-.2v-.6l.6-.1h.9l.2-.2.2-.1.2-.1.1-.1.2-.1h.1v-.1h.1v-.1h.2v-.1l.2-.1.3-.1.3-.1.2-.1.4-.1.2-.1.2-.1.5-.2.2-.1q.4 0 .4-.2l.1-.2.3-.3.2-.2.2-.3q.3-.4.1-1l-.1-.5-.1-.2-.2-.4-.1-.2-.1-.2q-.2-.2-.2-1.2v-.6l-.3-.5q-.6-.9-.5-1.2v-.2l-1-.6q-1-.4-1.3-.9-.4-.2-.3-.4l.1-.3q.4-.4 1 .1.1.3.5.4l.2.2.3-.1.3-.2.5-.5.1-.3.1-.1.1-.3.1-.2h.2l.2-.2h1.6q.2 0 .3.2h.3l.4-.2q.7-.5.6-1.4v-.7l-.2-.4-.1-.4-.1-.2-.2-.4-.2-.5-.1-.3-.2-.3V10l-.1-.2-.1-.3-.1-.3v-.1l-.2-.3v-.2l-.3-.4-.3-.4H16l-.5-.5-.2-.7.3-.6.1-.1.4-.1q.9 0 1 .3l.2.2.4.3.3.2V7l.3.2.1.2.2.2q.1.2 0 .2l.3.5.1.3q.2.4.5.3h.2l.2-.2v-2q-.3-.5 0-1 .3-.7.6-.7l.4-.1h1l.2.2.2.3.2.2.1.5.2.6q.2.8 0 1.6v.5l-.4 1.4v.1l-.2.2-.1.3c-.2.1-.4.7-.4.8v.3l-.2 1.2q0 .7.4 1.2l.3.4q.3.4 1 .3h.6l.4.2.8.3.3.2.3.1.3-.3c.6-.5 1.9-1.3 2.2-1.3s.6.5.4.7l-.4.4a9 9 0 0 0-3.4 3.1l-1.6 2-.4.4.1.6.2.8-.2.6q-.2.7-.9.8-.5 0-.5.5l.1.3.9.8.6.3.5.2 2.4.5.4.3.1.1.2.3v.3q.3.1.2.5l-.1.4-.2.4-.2.3h.4l.6.2.7-1.1q.5-.6 1.2-1t1.6-.2q.8 0 .7.5 0 .3-.2.5H30l-.3.1q-.8.5-1.4 1.5-.2.9-.8.6l-1.6-.2h-.5l-.1.1-.2.2-.2.1-.2.2h-.2l-.2.2-1 .5-.3.1-.3.2-.4.1-.6.2-.5.2-1 .2-.6.1.5.1.7.1q1 .3 3.5.2c5.2 0 7-.3 9.2-1.7.7-.5 2-1.5 2.1-1.8q.3-.4-.2-1.3c-.2-.5-.3-.5-.9-1.1a11 11 0 0 0-5.2-2.6c-2-.5-2.7-.8-3.6-1.4q-.9-.6-.8-1t.5-.9a7 7 0 0 1 3-1.6c1.5-.5 1.7-.6 2.4-1.1q1-.8 1.4-1.7l.3-1-.1-.5q-.3-.6-1.8-1.2l-.8-.4-.8-.3-1.9-.2q-2 0-2.9-1.6l-.1-.8.1-1 .9-1.8c.7-1.4.7-2 .1-3L24 3.2 22.1 2l-1.5-.6-.7-.3-.3-.1-.5.2-1.6 1c-2 1.1-2.8 1.6-3.8 2.6-.7.7-.8.9-.8 1.4l.1.6L14.4 9c.8 1.2 1 1.8.6 2.7q-.3.5-.7.7l-.8.2q-3.1.5-4 1.2-.5.3-.8 1.1l-.1.9v.7c.3.5.7.9 2 2q1.3.8 1.5 1.5.5.9.2 1.6l-.8.8q-.7.5-2.8 1.2l-1.4.6q-1.5.5-2.4 1.3-1.5 1.3-1.2 2.5.2.8.8 1.7c.5.5.9.8 2.7 1.7 3 1.5 4.5 2 6.4 2.3zM37.8 27a20 20 0 0 0 1.4-8.7A19.4 19.4 0 0 0 22.3.8l.3.2 1.5.7L25.6 3q1.2 1.2 1.2 2.5a6 6 0 0 1-.7 2.8q-.4 1-.4 1.6t.6 1.2c.6.5 1 .7 2.6 1l1.2.4c.6.2 2.7 1.4 3 1.7q1 .9.3 2.4L32 18.2c-.7.5-.9.6-2.3 1.2l-2.3 1.2a1 1 0 0 0-.5 1l.1.4q.4.4 2.2 1c2 .6 2.1.7 3.6 1.4l1.8.9 1.1 1 .9 1.5.3 1v.1l.3-.5zm-35.3-.4q.7-1.7 3.7-3.3l2.5-1q1.2-.2 1.6-.5.8-.3.7-.9l-.5-1.1-.8-1c-2-1.9-2.4-2.2-2.4-3q0-.7.2-1.2.5-.8 1-1.2 1-.5 2.9-1c.7-.2 1.8-.5 2-.7q.8-.4.9-1.2 0-.4-.6-.9a5 5 0 0 1-1.7-2q-.6-.9-.5-1.5 0-.4.2-.7L12.9 4c.7-.6 1.3-1 3.8-2.3l1.6-1s-1 0-1.7.2q-2.5.4-5 1.6a19 19 0 0 0-8.7 8.6 18 18 0 0 0-1.6 13c.2 1 .6 2.4 1 3.1v.2-.3z"/><path fill="#221e1f" d="M18.7 39.7a20 20 0 0 1-12.9-5.8 20 20 0 0 1-4.1-6A19 19 0 0 1 0 22v-4.5Q.4 14 1.9 11q3-6 9.1-9.1a20 20 0 0 1 6.7-2H22a20 20 0 0 1 13 32.7L32.8 35a20 20 0 0 1-14 4.7m1-.6q.1-.5-.7-2.5L18 34v-.4l-.4.2q-1.6.6-3.3.7c-1.4 0-3.4-.4-5-1A25 25 0 0 1 4 30.6l.3.5c2.3 3.3 5.8 5.9 9.6 7a19 19 0 0 0 5.4 1zm2.7-.1q3.2-.5 6-1.8a20 20 0 0 0 7.7-7l-.4.4a12 12 0 0 1-5.3 2.3l-4.9.4c-1 0-2.2.2-2.7.3-.7 0-2 0-2.8-.2q-.4-.1-.2.4l.3 1.6q.3 2.4.7 3.5v.2h.6zm-7-5.5q1.4-.2 2.2-.9.6-.4 1-1l.5-.6.7-.6.3-.3-.3-.1q-1-.6-2.2-.4l-2 .3-.1.1q0 .4-.6.8-.4.5-1.1.6l-1 .1q-1.2 0-1.1-.2-.1-.3.1-.6l.1-.1h.6q1.3.1 1.7-.4H14c-.7-.1-1.1-.3-2.3-1s-1.3-.8-2.1-.9l-.5-.1v-.6l.5-.1c.8 0 1 0 2.2.8q1.5 1 2.1 1l1-.2c1.6-.3 2.2-.4 3-.4h.7l-.6-.5-.9-.7q-.5-.4-.7-1-.3-.6-.1-1.8V24q0-.4-.3-.8-.6-.6-.4-2v-1q0-.5-.3-1-.4-.6-2.2-1.5-1-.4-1.3-.9-.4-.2-.3-.4l.1-.3q.4-.4 1 .2l1.6 1 1.7 1.3.2.3.1-1q.1-1-.4-1.7l-.2-.4q0-.5.5-.6.5.2.9 1.3.1.6-.2 2.6l-.3 1.9q0 .9.5 1.7c.3.5.4.8.3 1.8v1.4q.2 1 2 2.2 1.4.9 1.5 1.3t.6.2l.6-.3.4-.2.2-.5.3-1.2-.4-1.1q-.1-.3-.8-.7-1.1-.8-1.2-1.1l.2-.9q0-.2.7-.4l.7-.7v-1l-.1-.4h-.3q-.7-.2-1.3-.6a4 4 0 0 1-1.2-2.6q-.1-.8.4-1.7l.3-.9.3-2V13l-.1-.1-.5-.3c-.8-.5-1.2-1-2-2.7-.6-1.6-.8-1.8-1.4-2.4l-.5-.5q0-.6.6-.7l.4.2.9 1 .8 1.7q.8 2 1.6 2.5l.3.2v-.3l.5-1.5c.4-1.1.5-1.3.5-2s0-.8-.4-1.3q-.4-.5 0-.8h.3l.4.1.6 1v1c0 .7 0 1-.5 2.2-.3 1-.3 1-.4 2.4-.2 2.1-.3 2.5-.7 3.5s-.4 1.1-.4 1.6q0 1 .6 1.7l.8.5 1-.2q.6-.4 1.6-2 1-1.4 1.7-2.1c.7-.7 2-1.5 2.3-1.5s.6.5.4.7l-.4.4a9 9 0 0 0-3.4 3.1l-1.6 2-.4.4.1.6.2.8-.1.6q-.3.7-1 .8-.5 0-.5.5l.1.4q.2.3 1 .7 1 .4 1 1 .3.5.3 1.1t-.2 1.3l-.2.2h.6l3.4.1.6-1 1.2-1q.7-.3 1.6-.2.8 0 .7.5 0 .3-.2.5H30l-.3.1q-.8.5-1.4 1.5-.2.9-.8.6c-1.1-.2-2.8-.3-4-.1q-1.3.1-2.4 1c-.3.1-1.2 1-1.4 1.2l-.1.2h.3l.8.1c.9.2 1.8.2 3.6.2 5.2 0 7-.3 9.2-1.7.7-.5 2-1.5 2.1-1.8q.3-.4-.2-1.3c-.2-.4-.2-.5-.9-1.1a11 11 0 0 0-5.2-2.6c-2-.5-2.7-.8-3.6-1.4q-.9-.6-.8-1t.5-.9a7 7 0 0 1 3-1.6c1.5-.5 1.7-.6 2.4-1.1q1-.7 1.4-1.7l.3-1-.1-.5q-.3-.6-1.8-1.2l-.8-.4-.8-.3-1.9-.2q-2 0-2.9-1.6l-.1-.8.1-1 .9-1.8c.7-1.4.7-2 .1-3L24 3.2 22.1 2l-1.5-.6-.7-.2-.3-.2-.5.2-1.6 1c-2 1.1-2.8 1.6-3.8 2.6-.7.7-.8.9-.8 1.4l.1.6L14.4 9c.8 1.2 1 1.8.6 2.7q-.3.5-.7.7l-.8.2q-3.1.5-4 1.2-.5.3-.8 1.1l-.1.9v.7c.3.5.7.9 2 2q1.3.9 1.5 1.5.5.9.2 1.6l-.8.9-2.8 1.1-1.4.6q-1.5.5-2.4 1.3-1.5 1.3-1.2 2.5.2.8.8 1.7c.5.5.9.8 2.7 1.7 3 1.5 4.5 2 6.4 2.3zM37.8 27a20 20 0 0 0 1.4-8.7A19.4 19.4 0 0 0 22.3.8l.3.2 1.5.7L25.6 3q1.2 1.2 1.2 2.5a6 6 0 0 1-.7 2.8q-.4 1-.4 1.6t.6 1.2c.6.5 1 .7 2.6 1l1.2.4c.6.2 2.7 1.4 3 1.7q1 .9.3 2.4L32 18.2c-.7.5-.9.6-2.3 1.2l-2.3 1.2a1 1 0 0 0-.5 1l.1.4q.4.4 2.2 1c2 .6 2.1.7 3.6 1.4l1.8.9 1.1 1 .9 1.5.3 1v.1l.3-.5zm-35.3-.4q.7-1.7 3.7-3.3l2.5-1q1.2-.2 1.6-.5.8-.3.7-.9l-.5-1.1-.8-1c-2-1.9-2.4-2.2-2.4-3q0-.7.2-1.2.5-.8 1-1.2 1-.5 2.9-1c.7-.2 1.8-.5 2-.7q.8-.4.9-1.2 0-.4-.6-.9a5 5 0 0 1-1.7-2q-.6-.9-.5-1.5 0-.4.2-.7L12.9 4c.7-.6 1.3-1 3.8-2.3l1.6-1s-1 0-1.7.2q-2.5.4-5 1.6a19 19 0 0 0-8.7 8.6 18 18 0 0 0-1.6 13c.2 1 .6 2.4 1 3.1v.2-.3z"/></svg>