<svg xmlns="http://www.w3.org/2000/svg" width="150.3" height="150" viewBox="0 0 39.8 39.7"><path fill="#c6c7c9" d="M18.6 39.7H18l-.6-.1-.5-.1a20 20 0 0 1-9.8-4.4L6 34a18 18 0 0 1-2.7-3.3A20 20 0 0 1 .1 17.6 19 19 0 0 1 2 11.1q3-6 9-9.1a20 20 0 0 1 6.7-2H22a20 20 0 0 1 16.3 12.6 20 20 0 0 1 1.3 5 24 24 0 0 1 0 4.8 20 20 0 0 1-21.1 17.3"/><path fill="#b3b4b4" d="M18.6 39.7H18l-.6-.1-.5-.1q-1.4-.1-2.6-.6l-.7-.2q-.3 0 .2-.2 3.2-1 5-3L20 34q1.6-1.5 2.2-2.3c.5-.7.5-.7.4-1l-.2-.6q0-.6.3-1.3l.2-.3-.2-.2q-.6-.7-.5-1.4t.8-1l2.3-.4q.7 0 .7-.2l1-3.4v.1a13 13 0 0 1-4.2-1.3q-.9-.5.1-1.9a19 19 0 0 0 1.7-3.8c.2-.6.5-2.1.5-2.7v-.5l-.3-.6Q23.4 8.8 21.6 7A18 18 0 0 0 17 3.7l-4-2.4 1.5-.6 3.2-.6h3.8a19 19 0 0 1 7.3 2 20 20 0 0 1 9.6 25.4 20 20 0 0 1-19.7 12.2m-.6-1 .4-.4.3-.1.2-.2h.4l.3-.2.7-.4.6-.4.7-.3.2-.1.2-.2.5-.3 1-.6h1l.5-.1.7-.4.4-.2.4-.2.5-.4.3-.2.2-.1.1-.1 1.7-1.2.7-.9 1-1q.5-.5.6-1l.2-.7.2-.7v-.7l.1-.4V27l.2-.4v-.4c.2-.2.2-.3.2-1.4l-.1-1.3-.1-.5v-.2l-.1-.1-.3-.4-1.2-1.3-.1-.1v.1l-.7.7-1.1.1h-.2v.5l-.2 1.4-.9 2.8h-.2q-.5.3-1.5 0H24q-.8.4-.8 1c0 .6.5.4 1 .5q.8 0 1 .6.3.3.1.7t-.7.2h-.5q-.2 0-.3-.2t-.2 0q-.4.3-.1 1 0 .2.5.6.6.6.4 1-.3.4-.8.3l-.2-.1-.2.2-3.8 3.6a17 17 0 0 1-3.6 2.6c0 .1 1.1.4 1.6.4l.5-.2m12.8-18.5v-.3l-.2-.3-.1-.3v-1.4l-.3-1v-.2l-.2-.3-.2-.2-.3-.6-.1-.1-.1-.2-.2-.1h-.3l-.1.2v.1l.2.4v2.4l.4.1.6.5q.7.8.7 1.5v.2-.1zm-4.6 0 .2-.1v-.6q.1-.2 0-.2l-.3-.1-.6-.3c-.1-.1 0-.6.2-.6l.3-.4q.1-.3.4-.3l.1-.1.2-.2.1-.1.1-.8q0-.4.2-.7l.1-.9q0-1 .2-.8.3 0 .1-.2 0-.6.4-.8h.1l.2-.3.4-.1h.4l.2.3.3.3 1.3.3q1.1 0 2.4-1.3l.5-.5v-.9l-.1-.4-.3-.5-.2-.3-.1-.1-.6-.3h-.1L32 9h-.3q-.3.3-.7.2l-.6.1q-1.1.3-1.7.8l-.3.3q0 .3-.2.5l-.3.1q-.4 0-.7-.2-.3-.4 0-1l.2-.2h-1l-.5-.7-.4-.5-.4-.4-.3-.4-.7-.7v-.3l-.1-.3-.1-.4v-.3l.2-.2V3.9l-.1-.2-.2-.3q-.1-.3 0-.2h-.1l-.1-.2-.1-.1v-.1l-.1-.1-.2-.3-.6-.4-.5-.3-.4-.2-.2-.1-.9-.3h-.4L20 1h-.2l-.1-.1-.3-.2-.4-.1a14 14 0 0 0-4.4.7l.3.2 1.3.6 4 2.7 1.1.8q1 .6 2 1.8l2.9 3.7.1.3q.2.1-.1 1.4a32 32 0 0 1-1.5 4.9l-1 1.9-.1.4q0 .3 1.5.2zm3.8-7.9q-1-.8-.5-1.7c.4-.5 1.5-.8 1.9-.6l.5.8-.2 1-.6.3-.7.3z"/><path fill="#9a9a9a" d="M18.2 39.6q-1.6 0-3.2-.5l-1.5-.4.3-.1q3.2-1.1 5-3.1L20 34q1.6-1.4 2.2-2.3c.5-.7.5-.7.4-1l-.2-.6q0-.6.3-1.3l.2-.3-.2-.2q-.6-.7-.5-1.4t.8-1l2.3-.4q.7 0 .7-.2l1-3.4v.1a13 13 0 0 1-4.2-1.3q-.9-.5.1-1.9a19 19 0 0 0 1.7-3.8c.2-.6.5-2.1.5-2.7v-.5l-.3-.5Q23.4 8.9 21.6 7A18 18 0 0 0 17 3.7l-4-2.4 1.5-.6 3.2-.6h3.8a19 19 0 0 1 7.3 2 20 20 0 0 1 9.6 25.4 20 20 0 0 1-20.1 12.1m2.2-.7 2-.4a10 10 0 0 0 2.8-1q0-.2.2-.2l.3-.1.2-.1.2-.1.1-.1h.1l.1-.1.2-.1h.1l.1-.1.1-.1h.1l.4-.4.3-.2.2-.2.2-.1v-.1h.2v-.1h.1l.1-.1.1-.1h.1v-.1l.1-.1h.1l.1-.2h.1l.1-.1v-.1h.1v-.1h.2q.1 0 0-.1l.1-.1v-.1l.6-.4.7-.7 1-1 .2-.7.3-.4.2-.3.1-.3.6-1 .1-.2.2-.3.1-.2.1-.2v-.1l.1-.2.1-.1V28l.1-.2.1-.2.1-.3v-.2l.1-.1.1-.2v-.1l.3-1v-.3q.3 0 .2-.4l-.2-2.8-.1-1.2q0-.6-.2-.7a14 14 0 0 1-.6-5.9v-1l-.1.2q-.9.7-2.5 1c-.7.1-1 .1-1.8-.1l-1.2-.8q-.6-.6-.1-1l.4-.1h.4q0 .3.2.3 0 .2.3.3l1.3.3q1.2 0 2.3-1.2c.5-.6.5-.5.8-.6h.4V11l-.3-1v-.1l-.2-.3-.3-.3-.2-.2-.5-.4v-.1H32v.2q0 .5-.8.5h-.6q-1.1.3-1.8.8l-.2.3q0 .4-.2.6h-.8l-.4-.5.2-.5.6-.8.4-.5v-.1l-.4-.2h-.3q-.4 0-.6-.7l-.3-.7-.1-.3-.1-.2v-.2l-.3-.7L26 5v-.7q0-1-.2-1.1l-.1-.3-.1-.1-.1-.2c0-.2-.6-.7-.7-.7l-.4-.3-.2-.3H24q0-.3-2.6-.7a13 13 0 0 0-4.5.2c-.9.1-2.2.5-2.2.5l.3.2 1.3.6 4 2.7 1.1.8q.9.6 2 1.8l2.8 3.7.2.3c.1.3 0 .5-.1 1.4a32 32 0 0 1-1.5 4.9l-1 1.9q-.3.5 0 .5.6.3 2.4.1l.2-.1.3-.7q.4-.3.7.2l.5.4.5.4q.7.5.9.2l.2-.5q-.2-.4-.7-.6l-1-.2-.7-.3v-.4q-.1-.5.7-.5 1.4 0 2.1.9.7.7.7 1.5t-.7 1.2l-1.1.1h-.3v.6l-.1 1.3-.9 2.8h-.3q-.4.3-1.4 0H24q-.7.5-.7 1c0 .5.5.4 1 .5q.7 0 1 .6l.1.7q-.3.5-1 .1-.5-.3-.6-.2-.4.3-.3 1 0 .4.6.7c.5.6.5.6.4 1q-.2.4-.8.3l-.2-.1-.2.2-3.8 3.6a17 17 0 0 1-3.6 2.7s1 .3 1.7.3zM30 12.3q-1-.8-.5-1.7c.4-.5 1.5-.8 1.9-.6l.5.8-.2 1-.6.3-.7.3zm4.8 0"/><path fill="#221e1f" d="M18.2 39.6q-1.6 0-3.2-.5l-1.5-.4.3-.1q3.2-1.1 5-3.1L20 34q1.6-1.4 2.2-2.3c.5-.7.5-.7.4-1l-.2-.6q0-.6.3-1.3l.2-.3-.2-.2q-.6-.7-.5-1.4t.8-1l2.3-.4q.7 0 .7-.2l1-3.4v.1a13 13 0 0 1-4.2-1.3q-.9-.5.1-1.9a19 19 0 0 0 1.7-3.8c.2-.6.5-2.1.5-2.7v-.5l-.3-.5Q23.4 8.9 21.6 7A18 18 0 0 0 17 3.7l-4-2.4 1.5-.6 3.2-.6h3.8a19 19 0 0 1 7.3 2 20 20 0 0 1 9.6 25.4 20 20 0 0 1-20.1 12.1m1.5-.7q1.6 0 3.7-.7a21 21 0 0 0 8.8-5 16 16 0 0 0 6-13.5 24 24 0 0 0-2.1-8.4l-1.5-3-.3-.4L33 6.1a17 17 0 0 0-4.4-3 21 21 0 0 0-8-2.6 17 17 0 0 0-5.8.8l.3.2 1.3.6 4 2.7 1.1.8q1 .6 2 1.8l2.9 3.7.1.3c.1.3.1.5-.1 1.4a32 32 0 0 1-1.5 4.9l-1 1.9v.5q.6.3 2.4 0h.2a1 1 0 0 1 .4-.8q.3 0 .6.3l.5.4.5.4q.7.5 1 .2v-.5q0-.4-.6-.6l-1-.3-.6-.2-.1-.4q-.1-.5.7-.5 1.3 0 2.1.8.7.8.7 1.6t-.7 1.2l-1.1.1h-.2v.5l-.2 1.4-.9 2.8h-.2q-.5.3-1.5 0H24q-.8.5-.8 1 .1.5 1 .5t1 .6l.1.7q-.3.5-1 0-.4-.2-.6-.1-.5.4-.2 1 0 .3.5.7.6.6.4 1t-.8.3l-.2-.1-.2.2-3.8 3.6a17 17 0 0 1-3.6 2.7l1 .2q1.1.3 2.8.1M30 14.6q-1-.1-1.7-.9-.7-.6-.2-1l.4-.1h.4l.2.3.3.3 1.3.3q1.2 0 2.3-1.3l.6-.5q.7 0 .7.6 0 1-1.2 1.6a6 6 0 0 1-3 .7m-.1-2.3q-1-.8-.5-1.7c.4-.5 1.5-.8 1.9-.6l.5.8-.2 1-.6.3-.7.3zM27.6 11l-.5-.5q0-.5 1-1.4l.7-.7a4 4 0 0 1 2.4-.4l.5.2q.4.3.1.8-.1.3-.7.3h-.6q-1.2.3-1.7.8l-.3.3q0 .3-.2.5c0 .2-.5.2-.7 0"/></svg>