<svg xmlns="http://www.w3.org/2000/svg" width="150.3" height="150" viewBox="0 0 39.8 39.7"><path fill="#fab260" d="m18.4 39.7-2-.3A20 20 0 0 1 6 34.1a18 18 0 0 1-2.7-3.3A20 20 0 0 1 .1 17.6 19 19 0 0 1 2 11.1q3-6 9-9.1a20 20 0 0 1 6.7-2H22a20 20 0 0 1 16.3 12.6 20 20 0 0 1 1.3 5 24 24 0 0 1 0 4.8 20 20 0 0 1-21.3 17.3m4.1-.5a13 13 0 0 0 5.5-1.6l-1.3-5.9-.5.3a14 14 0 0 1-5.2 1.4h-.5v.2l.1 5.4v.3zm-9-4.2 1.2-2.7h-.1L12 30.8l-3.8 4.4 1.8 1.4 2.2 1zm22-3.4q1-1.3 1.7-2.8l.3-.6h-.1L35 26.7l-2.2-1.2-.3.5-.7 1.4-.6.8.9.8 3 3zm-30.3-4 2.6-1-.2-.5a14 14 0 0 1-1.7-6l-2.7.5-2.6.4v.3l.5 3.5a16 16 0 0 0 1.5 3.7zM35.4 20l3.7-.1v-3.1a10 10 0 0 0-1.3-4.5l-2.2.4-2.4.6H33l.2.6a12 12 0 0 1 1 3.2l.2 2.6v.4zM6.8 14l.3-.5.2-.4 1.1-1.9-2-1.6-2-1.6v.2A11 11 0 0 0 2.2 12c0 .1 0 .2 2.3 1.1zm24-7.3L32.2 5l-.3-.2a13 13 0 0 0-3.8-2.4l-.8 2-.5 1.6-.3.8 1 .7 1.3.8.5.3zm-16.3-.3a15 15 0 0 1 6-1L19.9 3 19.4.6h.2q.4-.1-.8-.1a17 17 0 0 0-7.1 2l.8 2.3.7 2.2.4-.2z"/><path fill="#f68f1d" d="m18.4 39.7-2-.3A20 20 0 0 1 6 34.1a18 18 0 0 1-2.7-3.3A20 20 0 0 1 .1 17.6 19 19 0 0 1 2 11.1q3-6 9-9.1a20 20 0 0 1 6.7-2H22a20 20 0 0 1 16.3 12.6 20 20 0 0 1 1.3 5 24 24 0 0 1 0 4.8 20 20 0 0 1-21.3 17.3m1.3-2V36h-.2l-.2.1h-.6l-1.3-.2H17l-.5-.1-.6-.2h-.3v-.1H15v-.1h-.2v-.1l-.3-.1-.2-.1-1.3 3 .6.2q2.8 1 5.7 1h.3zm2.8 1.5a13 13 0 0 0 5.5-1.6l-1.3-5.8-.5.2a14 14 0 0 1-5.2 1.4h-.5v.2l.1 5.4v.3zm-9-4.2 1.2-2.7h-.1L12 30.8l-3.8 4.4 1.8 1.4 2.2 1zM30 36.5a19 19 0 0 0 3.8-3l.6-.6-.2-.2-1-1.1-1-1-.3.4-.1.2-.2.2-.2.2-.2.1-.6.7-.3.2-.1.1-.2.1-.2.1-.3.3-.2.1-.2.1-.2.2-.2.1-.5.5q-.1.1.4 1.4l.3 1.3v.2l.4-.2zm-21.4-3c1-1 1-1.2 1-1.2h-.2l-.1-.1L9 32l-.5-.4c-.8-.7-.9-.8-1-1.2l-.3-.4-.3-.4-.3-.5-.2-.3-.2-.3-.1-.3H6l-1.5.6-1.6.6s.7 1.3 1.3 2q.6 1 2 2.4l1.1 1 .1-.1zm26.9-2q1-1.1 1.7-2.7l.3-.6h-.1L35 26.7l-2.2-1.2-.3.5-.7 1.4-.6.8.9.8 3 3zm-30.3-4 2.6-.9-.2-.5a14 14 0 0 1-1.7-6l-2.7.5-2.6.4v.3l.5 3.5a16 16 0 0 0 1.5 3.7zm32.8-.2.1-.6a20 20 0 0 0 1.3-5.8v-.2h-2.8l-.1.2-.1.4v.4l-.1.1-.2.4-.2.7-.2.4-.1.4-.1.2q0 .2-.3.5v.3l-.1.2-.1.1v.2h-.2v.2l-.1.2h-.1zM9.7 24.8v-.2l.1-.4.7-1 .2-.1q0-.2.9-.4l1.2-.2.5-.1q.3-.4 0-.6H12l-.4.1-.3.2-.3.2-.4.2-.4.3-.7 1.2-.1.3v.4l.1.3q.2 0 .2-.2m9.2-2.5.1-.2h-.2l-.1.2zm0-.6.1-2.3.1-.6v-.2q0-.2.1-.1v-.2q0-.2.2-.3v-.2l.1-.2q.4-.8.3-1.4l-.5.8-.8 2-.1 1.2v1c0 .2.6.7.6.7zm16.5-1.8 3.7-.1v-3.1a10 10 0 0 0-1.3-4.5l-2.2.4-2.4.6H33l.2.6a12 12 0 0 1 1 3.2l.2 2.6v.4zM1.8 20l1.3-.2h.2v-.6l.3-3.3.1-.4.1-.4.2-.4v-.2q.4-.2.3-.3l-2.7-1-.2.6q-.7 2.3-1 5v1l.1.3zm5-6 .3-.5.2-.4 1.1-1.9-2-1.6-2-1.6v.2A11 11 0 0 0 2.2 12c0 .1 0 .2 2.3 1.1zm29.4-2.5 1-.4A17 17 0 0 0 35 7.4c-.5-.5-1.8-2-1.9-1.9l-.7.7-.7.9-.1.1h.6l.3.3.6.5.1.1.7.7.3.6.3.8v.2l.1.2q.4.7.4 1.1l.1.1zM7.6 9l.1-.3h.1v-.1l.3-.6q0-.2.7-.5l.4-.3.6-.4.3-.2.3-.2.2-.2.4-.3.3-.2.3-.2h.1l-1-2.7-1 .5a18 18 0 0 0-4.6 4zm23.1-2.4 1.5-1.8-.3-.2a13 13 0 0 0-3.8-2.4l-1.6 4.4 1 .7 1.3.8.5.3zm-16.2-.3a15 15 0 0 1 6-1l-.6-2.4-.5-2.4h.2q.4-.1-.8-.1a17 17 0 0 0-7.1 2l.8 2.3.7 2.2.4-.2zm12.2-2.5.4-1.2.3-.7-.5-.2Q24 .5 20.9.4h-.3l.3 2.8v.1h.8l1 .1h.1l.2.1h.6l.7.2h.3l.2.1h.4l.3.2h.2l.2.1.5.2z"/><path fill="#df8325" d="m18.4 39.7-2-.3A20 20 0 0 1 6 34.1a18 18 0 0 1-2.7-3.3A20 20 0 0 1 .1 17.6 19 19 0 0 1 2 11.1q3-6 9-9.1a20 20 0 0 1 6.7-2H22a20 20 0 0 1 16.3 12.6 20 20 0 0 1 1.3 5 24 24 0 0 1 0 4.8 20 20 0 0 1-21.3 17.3m1.3-3.6V33l-.7-.1h-.6l-.6-.1-.5-.1H17l-.3-.1-1.1-.3-1.3 2.8-1.3 3 .7.2q2.8 1 5.6 1h.3zm2.8 3.1a13 13 0 0 0 5.5-1.6l-1.3-5.8-.5.2a14 14 0 0 1-5.2 1.4h-.5v.2l.1 5.4v.3zm-9-4.2 1.2-2.7h-.1L12 30.8l-3.8 4.4 1.8 1.4 2.2 1zM30 36.5a19 19 0 0 0 3.8-3l.6-.6-.2-.2-2-2.2-1.8-1.9h-.2q-.2 0-.3.3t-.4.4l-.9.7-.2.2h-.1l-.2.3-.3.2h-.1l-.2.2-.2.2c0 .1 0 .4.8 3l.9 3zM9.8 32.2l2-2.4v-.1c-.3 0-1-.3-1.1-.5l-1.2-1-.5-.6h-.2l-.1-.2-.1-.2q0-.2 0 0L3 29.3l.7 1.2c.8 1.1 1.4 2 2.7 3.2l1 1 .1-.2zm10.5.4h.3l.3-.1v-.7l.3-.1q.3 0 .3-.2 0-.4.3-.4t.3.2l.1.1v.5h.5q.5 0 .4.3v.1h.2a7 7 0 0 0 2.3-.8l.4-.1v-.5l.1-.8v-.8l-.2-.4-.2-.6-.1-.3-.1-.2-.2-.3v-.1h-.6q-.9 0-1.5.3l-.7.4.3.1.4.2.1.4-.1.2q0 .2-.2.1l-3-.2-.2-.3V28l-.3.1-1.5.2-.7.1-.3.4-.2.7v.9q0 .5.2.5v.1l.2.2v.2l.1.2.4.3q0 .2.7.2l.7.1.5.1q.4 0 .4.3zm15.2-1q1-1.3 1.7-2.8l.3-.6h-.1L35 26.7l-2.2-1.2-.3.5-.7 1.4-.6.8.9.8 3 3zM28 29.4l.3-.2.2-.1.2-.2.2-.1.9-.6.4-.3.4-.4.2-.2.2-.1.1-.1.1-.2h-.4l-.2.2h-.2l-.3.2q-.7.3-1.6.2-.6 0-.7-.2-.3-.4-.5.5v.4l-.1.2h.1l.2.3v1.1l.1-.1zm-11.2-.9h-.1m-11.6-1 2.6-.9-.2-.5a14 14 0 0 1-1.7-6l-2.7.5-2.6.4v.3l.5 3.5a16 16 0 0 0 1.5 3.7zm11.8.8-.2.1zm-4.6 0 1.3-.5.9-.3h.1v-.1l.3-.2.2-.2.6-.7.4-.6.1-.3v-.2l.1-.2v-.3q-.6-.6-.3-1.1l.1-.2-.2-.8-.2-.2-.1-.1v-.1l-.2-.2-.1-.1-.2-.2H15v-.1h-.2l-.1-.2-.3-.1-.2-.1H14l-.2-.2h-.3l-.5-.2h-.5l-.4.1-.3.1h-.3l-.6.3-.2.2-.3.3-.3.3q-.4.2-1.2 1v.5q0 .6-.3.7v.5l.2.6.1.5.2.4v.2l.2.1.3.4.1.1.2.2.1.1h.1l.3.2.3.2h.2l.7.4h.4zm5.6-.6.6-.1 1.8-.5.4.1q.3.2.5 0L21 27l-.3-.4-.5-1.2-.7-.7h-.7l-.8.3-.5.1v.2l-.1.2-.3.6-.2.8v.2l-.2.5v.2H18m4.6-.4q.8-.4 1.9-.5h.4v-.1l-.3-.4-.2-.2V26l-.2-.2-.2-.3-.1-.1v-.1l-.4-.3-.3-.3h-.3l-.2.3h-.1v.2q0 .2-.1.1l-.1.3-.3.7v.8l.2.4zm15.3 0 .2-.6a20 20 0 0 0 1.3-5.8v-.2h-5.2v.2s-.1.6-.3.8l-.2.6q0 .7-.4 1l-.2.9-.1.6 2.4 1.3zm-8.8-1.7h.7l.8-.3q.6 0 .8-.6l.3-.1.2-.4.1-.3c.2-.2 0-1.4-.2-1.9l-.2-.2q-.1-.6-.4-.8l-.1-.1q0-.2-.8-.6l-1.2-.1h-1.2l-.6.3H27v.1l-.2.1-.2.2h-.1l-.2.3v.3l-.2.3-.2.4.2.9.2.5q0 .8.6 1.1l.3.3.2.1.3.2q0 .2.6.3zM17.8 24l.1-.2q0-.2.3-.5v-.1h.1l.1-.1.2-.1v-.1l.2-.1.3-.2h.4v.4l.1.2h1.7l.5-.2h.4l.5.2V23q0-.4-.3-.6l-.1-.1-.3-.2-.3-.1-.4-.2q-.4 0-.3-.4l-.2-.8q-.3-1.2-.3-2.5v-1.7l.2-1.8V14h-.1a11 11 0 0 1-1.1 3l-.9 2.2-.1 1.1c0 1 0 1.1.5 1.5l.2.3-.7.4-1 .5q-.6.5-.2 1 .1.2.5 0m6.9-2h-.2l-.1-.2.1.1zm10.8-2.1 3.7-.1v-3.1a10 10 0 0 0-1.3-4.5l-2.5.5-2.3.5.2.6q.6 1.4 1 3.2l.2 2.6v.4zM3 19.7l2.7-.2H6v-1.8l.2-.7.5-2.1-5-1.7-.3.5q-.7 2.4-1 5v1l.1.3zm25.7-1h-.2zm.2 0h-.1M6.8 14l.3-.6.2-.4 1.1-1.9-2-1.6-2-1.6v.2a11 11 0 0 0-2.2 3.8c0 .1 0 .2 2.3 1.1zm30.5-3a17 17 0 0 0-2.4-3.6c-.5-.5-1.8-2-1.9-1.9L30 9l.4.5.4.2.2.3.1.2v.1l.1.1.1.2.2.2v.2l.5 1 .1.1.1.1v.1l.1.1.1.2L35 12zm-27.9-.5.3-.4.5-.6.6-.5.6-.5q.7-.6 1-.6l.3-.1-2-5-1 .5A19 19 0 0 0 5.3 7q-.3.2-.1.3l4 3.4zM30 9h-.1m.7-2.4 1.5-1.8-.3-.2A13 13 0 0 0 28 2.2l-1.6 4.4 1 .7 1.3.8.5.3zm-16.2-.3a15 15 0 0 1 6-1l-.6-2.4-.5-2.4h.2q.4-.1-.8-.1a17 17 0 0 0-7.1 2l.8 2.3.7 2.2.4-.2zm12-1.7.8-2.5V2l-.4-.2Q24 .5 20.9.4h-.3l.6 5.2h.3l1 .4h.3l.2.2 1 .2.7.2.4.1.4.1h.1z"/><path fill="#d26b27" d="m18.4 39.7-2-.3A20 20 0 0 1 6 34.1a18 18 0 0 1-2.7-3.3A20 20 0 0 1 .1 17.6 19 19 0 0 1 2 11.1q3-6 9-9.1a20 20 0 0 1 6.7-2H22a20 20 0 0 1 16.3 12.6 20 20 0 0 1 1.3 5 24 24 0 0 1 0 4.8 20 20 0 0 1-21.3 17.3m1.3-3.7v-3.3h.7q1.1 0 1-.2v-.2l.1-.3h.6q.6 0 .5.3-.2.4.8 0l2.9-1.1c.6-.3.6-.3.5-.9v-.7l-.1-.7-.1-.1-.1-.3-.1-.4q0-.3-.2-.3-.1 0 0-.2l-.3-.3v-.9l-.2-.2-.2-.3-.2-.5-.3-.3-.1-.1h-.1v-.1h-.1l-.1-.1-.1-.1q0-.2-.4-.2l-.2-.2q-.1-.3-.4-.1h-.3l-.2.1-.3.1-.5.4-.6.5H21v-.1l-.2-.4h-.1q0-.2-.8-.3-.4-.3-.6 0l-.5.2-.9.2q-.9.3-1.3 0-.6-.3-.7-.9l.2-.5.9-1 .6-.6V21l-.1-1.2-.1-1.2v-1.9h-.2l-.2.2-.2.3v.2l-.6.5-.2.2-.2.2v.2q0 .2-.3.2l-.2.2h-.1v.1h-.1l-.1.1-.8.2q-.5 0-.8-.3l-.1-.2H13l-.6-.2-.5-.1q-.6 0-.5-.2h-.6v-.5l.1-.2.4-.5.2-.3 1-.8.3-.3.4-.2.3-.2h3.1l.3-.1.4-.1.4-.2h.2v-.1h.1l.2-.2.3-.2.8-.3q.3 0 .2-.2l.2-.5v-.3l.8.2-.1 1-1 2.5-.9 2.2v1.1c0 1 0 1.1.4 1.5l.2.3-.7.4q-1.2.5-1.3.9v.6l.4.1q.5 0 1.1-.5l.4-.3h2.3l.4-.2h.4c.7.3.7.3.9.2q.3-.2.4 0 0 .3.2.2.6 0 .8-.3.2-.1 0-.4l-.3-.2-1.1-.7-.5-.5.2-.2h.1l-.2-.5-.3-.3-.3-.6-.2-.6-.2-.8V16l.1-.1h.6l.1.1.5.1h.5v-.2l.1-.2.1-.1.2-.1v-.1l.2-.1h.1l.1-.2.2-.1.3-.2.7-.2.5-.1h.2l.2.2.3.3.2.1h.2v.1l.1.2.2.2.2.2.4.3.4.3.1.2.4.2q.5.2.2.7l-.3.2-.2.1-.3.2H28l-.3.1-.5.1h-2.8l-.1.1-.6.7v.5l.7.4.3.3.3.1q.2 0 .2.4l.1.3q.2.1 0 .4a5 5 0 0 0 1 3.3v.1l.1.2.3.3.6.5.4.2h.2l.2.1.2.2h.2l.2.1h1.5v-.1l.2-.1.4-.2.4-.2h.2l.2-.1.2-.2h.1v-.1l.1-.1V25q0-.1.1 0l.3-.7V24c.3-.4.3-1.4 0-2l-.1-.1-.2-.3q-.3-1-1-1.3l-.2-.4v-.6l-.1-.4v-.5q0-.7.2-1.3l.3-.6q0-.5.2-.5l.4-.7.1-.2V13l2.6-1 2.7-.9a17 17 0 0 0-2.4-3.6c-.5-.5-1.8-2-1.9-1.9l-1.6 1.8-1.8 2-.2.2-.4-.3L27 8l-1.4-1 .8-2.2.9-2.6V2l-.4-.2Q24 .5 20.9.4h-.3l.3 2.8.3 2.6V6H20l-1.7.2q-2.5.3-5 1.7l-.5.3-1-2.6-1.2-2.7h-.3a19 19 0 0 0-3.8 2.9L5.2 7l-.1.2L7.3 9l2.2 1.8-.2.4L7.8 14l-.2.7v.4l.1.2.1.3.2.4.2.4.1.2v.2l.1.1.2.6c.1.3.2 1.6 0 1.8v.4l-.2.4v.8l-.2.2-.1.2-.1.9v1l.1.6.2.5.1.4v.4l.2.3.1.4.1.3.1.3.3.4.2.4h.1q.1.3.5.5l.2.1.1.1.4.2 1.1.5h.4l.3.1.9.1h.8l.3.2.4.2.2.2.2.3.1.2.3.3v.1l.2.3.3.3v.1c0 .2.5.8.6.8h.1l.2.3q.3.2.2.3 0 .4-.5.2l-1.1-.3-1.3 2.8-1.3 3 .7.2q2.8 1 5.6 1h.3zm3.4-7h-1l-2.1-.2-.2-.3V28l-.3.1q-.3.2-1.7.2H17v-.5h.3l1.3-.2 1.9-.5.3.1.3.1q.2 0 .3.2h.8l.4-.2q.8-.4 2-.5 1 0 .8.3.1.4-.6.3-.9 0-1.6.3l-.7.4.3.1.4.2.1.4q0 .3-.3.3zm-.3-6.7-.2-.2h.2zq0 .2-.1 0m5.3-7.4-1-.4-.7-.6-.6-.6c-.5-.2-1 0-2.4.8l-.7.3-.2-.2q-.3-.3.2-.8l.8-.5q1.3-1.1 2-1 .4-.2 1.6.9.5.5 1.4.6t.9 1q-.1.8-1.3.5m-16.7 0-.4-.2.4-1.2.6-1 1-.4a6 6 0 0 1 2.8.6l1.6.5q.7.1.8.4l.2.6-.4.6q-.2.2-.4 0-.5 0-2-.6c-1.2-.6-1.6-.8-2.1-.8q-.7 0-1 .3l-.6 1q0 .3-.1.2zm.3-3-.1-.4.1-.7.7-.8h.1l.5-.5.2-.1q0-.2 1-.2c.7 0 .9 0 2.3.5l.9.2.7-.2 2-1c1.4-1 1.8-1.3 2.6-1.2.9 0 1.7.3 3.3 1.5q1 .6 1 1h2.6q.2.1 0 .4l-.2.2v.1l-.2.2-.2.1-.2.2H28l-.3.1c0 .1-.7.2-.8.1h-.8l-.5-.3-.2-.1h-.1l-.1-.1-.3-.2-.3-.2-.2-.1-.2-.1-.4-.2h-2.1q-.2 0-.6.5l-.4.3-.6.4h-.3c-.4.3-1.6.3-2.5 0h-.8l-.7-.2-.5-.2H15l-.3-.1-.3-.1h-1.8l-.3.3q-.4.3-.4.5zq0 .3-.2.2zm11 27.2a13 13 0 0 0 5.5-1.6l-1.3-5.8-.5.2a14 14 0 0 1-5.2 1.4h-.5v.2l.1 5.4v.3zm-9-4.2 1.2-2.7h-.1L12 30.8l-4 4.4 2 1.4c.3.2 2 1.1 2.1 1zM30 36.5a19 19 0 0 0 3.8-3l.6-.6-.2-.2-2-2.2-1.8-1.9-.2.1-.2.2-.5.4-.9.7-.2.2h-.1l-.2.3-.3.2-.3.2-.1.1-.1.2.8 3L29 37zM9.8 32.2l2-2.4v-.1c-.3 0-1-.3-1.1-.5l-1.2-1-.5-.5-.2-.2-.1-.1-.1-.2q0-.1 0 0L3 29.3l.7 1.2c.8 1.1 1.4 2 2.7 3.2l1 1 .1-.2zm25.7-.6q1-1.3 1.7-2.8l.3-.6h-.1L35 26.7l-2.2-1.2-.3.5-.7 1.4-.6.8.9.8 3 3zM28 29.4l.3-.2.2-.1.2-.2.2-.1.9-.6.4-.3.4-.4.2-.2.2-.1.1-.1.1-.2h-.4l-.2.2h-.2l-.3.2q-.7.3-1.6.2-.6 0-.7-.2-.3-.4-.5.5v.4l-.1.2h.1l.2.3v1.1l.1-.1zM5.2 27.6l2.6-1-.2-.5a14 14 0 0 1-1.7-6l-2.7.5-2.6.4v.3l.5 3.5a16 16 0 0 0 1.5 3.7zm32.8-.3.1-.6a20 20 0 0 0 1.3-5.8v-.2h-5.2v.2s-.1.6-.3.8l-.2.6q0 .7-.4 1l-.2.9-.1.6 2.4 1.3zm-13.3-5.2-.2-.2-.1-.1.1.1zm10.8-2.2 3.7-.1v-3.1a10 10 0 0 0-1.3-4.5l-2.5.5-2.3.5.2.6q1 2.4 1.1 5.5v.7zM3 19.7l2.7-.2H6v-1.8l.2-.7.5-2.1-5-1.7-.3.5q-.7 2.4-1 5v1l.1.3zM6.8 14l.3-.6.2-.4 1.1-1.9-2-1.6-2-1.6v.2a11 11 0 0 0-2.2 3.8c0 .1 0 .2 2.3 1.1zm24-7.4L32 4.8l-.2-.2A13 13 0 0 0 28 2.2l-1.6 4.4 1 .7 1.3.8.5.3zm-16.3-.3a15 15 0 0 1 6-1l-.6-2.4-.5-2.4h.2q.4-.1-.8-.1a17 17 0 0 0-7.1 2l.8 2.3.7 2.2.4-.2z"/><path fill="#221e1f" d="m18.4 39.7-2-.3A20 20 0 0 1 6 34.1a18 18 0 0 1-2.7-3.3A20 20 0 0 1 .1 17.6 19 19 0 0 1 2 11.1q3-6 9-9.1a20 20 0 0 1 6.7-2H22a20 20 0 0 1 16.3 12.6 20 20 0 0 1 1.3 5 24 24 0 0 1 0 4.8 20 20 0 0 1-21.3 17.3m1.3-3.7v-3.3h1a12 12 0 0 0 5.6-1.5l.9-.4.9 3.2.9 3 1.7-1a19 19 0 0 0 3-2.5l.7-.6-.2-.2-4-4.3.2-.4 2-3 .2-.3 2.6 1.3 2.7 1.3.2-.6 1-3.8.3-2v-.2h-5.7v-1.2a13 13 0 0 0-1.5-6.3l-.2-.4 2.6-.9 2.7-.9-1-1.6-1.4-2-1.9-2-1.6 2-1.8 2-.2.1-.4-.3-2-1.3-1.4-1 .8-2.2.9-2.6V2l-.4-.2Q24 .5 20.9.4h-.3l.3 2.8.3 2.6V6H20l-1.7.2q-2.5.3-5 1.7l-.5.3-1-2.6-1.2-2.7h-.3a19 19 0 0 0-3.8 2.9L5.2 7l-.1.2L7.3 9l2.2 1.8-.2.4a16 16 0 0 0-2 3.8l-2.9-1-2.8-1-.2.6a18 18 0 0 0-1 6.2l3.1-.2 3-.3.3 1.5a14 14 0 0 0 1.1 4l1 2-3 1.3-3 1.2 1.4 2c.6.9 1.9 2.3 2.8 3l.3.4 2.2-2.5L12 30l.3.2 2.5 1.3 1 .5-1.3 3.1-1.3 3.1.6.2q2.8 1 5.7 1h.3zm3.4-7h-1l-2.1-.2-.2-.3V28l-.3.1q-.3.2-1.7.2H17v-.5h.3l1.3-.2 1.9-.5.3.1.3.1q.2 0 .3.2h.8l.4-.2q.8-.4 2-.5 1 0 .8.3.1.4-.6.3-.9 0-1.6.3l-.7.4.3.1.4.2.1.4q0 .3-.3.3zm-6-4-.8-.7V24l.1-.5.9-1 .6-.8.3-1.8 1-3.8.5-1.7.3-.9v-.3l.8.2-.1 1-1 2.5-.9 2.2v1.1c-.1 1 0 1.1.4 1.5l.2.3-.7.3q-1.2.7-1.3 1v.6l.4.1q.5 0 1.1-.5l.4-.3.1-.1h.4l.8.2 1-.2.4-.1h.4q1.4.6 2 .3.5-.1.5-.4 0-.2-.5-.4-.8-.4-1.2-.8t-.4-.5l.4-.2.4-.2.1.2.9.8.6.6v.3q.1 1-.2 1.2l-1-.1-.5-.1-.3.2-1 .6H20l-.4-.1h-.3l-.5.3-.9.2q-.7.3-1 .1m-2.6-6.6q-.9-.3-1-1.1-.1-.4.1-.7.3-.5.7-.8h.8q.4.3.4 1.3t-.5 1.3zm11.3-1-.4-.1q-.3-.1-.4-1l.1-.4c.4-1 1.3-1 1.8-.3q.3.4.3 1t-.3.8-1 0M28 15l-1-.4-.7-.6-.6-.6c-.5-.2-1 0-2.4.8l-.7.3-.2-.2q-.3-.3.2-.8l.8-.5q1.3-1.1 2-1 .4-.2 1.6.9.5.5 1.4.6t.9 1q-.1.8-1.3.5m-16.7 0-.4-.2.4-1.2.6-1 1-.4a6 6 0 0 1 2.8.6l1.6.5q.7.1.8.4l.2.6-.4.6q-.2.2-.4 0-.5 0-2-.6c-1.2-.6-1.6-.8-2.1-.8q-.7 0-1 .3l-.6 1q0 .3-.1.2zM26 10.5l-.6-.5q-2.7-2-4.3-1.3l-1 .8-1.4.9a5 5 0 0 1-2.7-.2l-1.7-.3-1.2.2-.1-.2q-.3-.7 0-.6h1c.6 0 .8 0 2.2.4l.9.2.7-.2 2-1c1.4-1 1.8-1.3 2.6-1.3q.7 0 1.4.4c.8.4 2.3 1.4 2.6 1.8q.8 1-.4.9m-3.5 28.6a13 13 0 0 0 5.5-1.6l-1.3-5.8-.5.2a14 14 0 0 1-5.2 1.4h-.5v.2l.1 5.4v.3zm-9-4.2 1.2-2.7h-.1L12 30.8l-4 4.4 2 1.4c.3.2 2 1.1 2.1 1zm22-3.4q1-1.3 1.7-2.8l.3-.6h-.1L35 26.7l-2.2-1.2-.3.5-.7 1.4-.6.8.9.8 3 3zm-30.3-4 2.6-1-.2-.5a14 14 0 0 1-1.7-6l-2.7.5-2.6.4v.3l.5 3.5a16 16 0 0 0 1.5 3.7zm30.3-7.7 3.7-.1v-3.1a10 10 0 0 0-1.3-4.5l-2.5.5-2.3.5.2.6q1 2.4 1.1 5.5v.7zM7 13.8 8.4 11l-2-1.6-2-1.6V8a11 11 0 0 0-2.2 3.8c0 .1 0 .2 2.3 1.2l2.4 1zm23.7-7.2 1.5-1.8-.3-.2a13 13 0 0 0-3.8-2.4l-1.6 4.4 1 .7 1.3.8.5.3zm-16.2-.3a15 15 0 0 1 6-1l-.6-2.4-.5-2.4h.2q.4-.1-.8-.1a17 17 0 0 0-7.1 2l.8 2.3.7 2.2.4-.2z"/></svg>