<svg xmlns="http://www.w3.org/2000/svg" width="150.2" height="150.1" viewBox="0 0 39.7 39.7"><path fill="#ceeafa" d="M18.5 39.7A20 20 0 0 1 2 28.6 19 19 0 0 1 0 18 19.6 19.6 0 0 1 17.8 0H22q3.6.4 6.8 2a19.8 19.8 0 0 1 4 32.9 20 20 0 0 1-14.3 4.7m-2-5.3q2-.2 3.5-.8c.9-.3 1.4-.7 2.4-1.6l3.2-2.6c1.5-1.2 2.1-1.8 3-3.1q1.6-2.3 2.5-5 1.6-4.9-.4-7.9L29.3 12l-1.3-.6-2.4-1.3Q24 9 22.8 8.8L21 8.7l-2.6.1-1.3.1.6.3.7.4v.5l-.7 1.5-.9 1.6c-.2.6-.2 1-.2 2.8 0 2 0 2.2.6 4q.4 1 .3 1.3v.5c-.4.3-2.4.2-4.5 0h-.2v1.9q.1 1.3-.4 1.6-.2.2-.3.1l-1-.6-2-2-.1-1.2q0-.6-.4-.7H8l-.7.2-.6.2-.6-.1-1-1.1a7 7 0 0 1-1-4.8l.6-2 .7-1.3.3-1L6 9.9c.2-.6.2-.7.2-1.4v-1q.3-.7.6-.9l.3-.6v-.3l-.3.3-1 1a15 15 0 0 0-4 6.5 51 51 0 0 0-1.1 7.8q0 1 .4 2.3c.2 1.2.9 3.3 1.2 4l.6.8q.3.4.8.5l1 .7 1 1.6c.8 1.3 1.1 1.6 2.3 2a20 20 0 0 0 5.5 1.3zm-4.7-6.5v-.4l.3-.2.1.4-.1.3-.2.1zm-5-2.8q-.2-.5.4-.5l.4.2-.1.2-.1.2h-.6m13.4-2.5-.1-.7q0-.2.2-.2t.3.2v.6q-.3.3-.4.1M2.8 18.1l-.3-.4q-.1-.4 0-.4V17q-.1 0 0-.4.1-.7.4-.6h.2v.3l-.2.4-.2.6.1.1q0-.2.3 0l.1.2q0 .6-.4.4m15.7-1.3-.1-.1-.1-.3q-.2-.4 0-.6t.3.2q0 .2 0 0h.3v.6l-.2.2zm-6.7 6.1v-.3l-.2-.3-.2-1.2-.2-1.1.2-.3q.3-.5.5-.5h.5l.6.1.4.2a6 6 0 0 0 2 1.3l.5-.2h.2V20l-.1-.5c-.6-.6-.8-1-1-2.2l-.4-1.1v-.8q-.1-.4.2-.8.2-.5.9 0l.3.1v-.1l-.2-1c-.2-.2-.2-.2-.2-.8v-.5h.2q.2 0 .2-.2l-.3-.7-.2-.1v-.6c0-.6 0-.6.2-1L16 9l.6-1.4q.1-.4.3-.3.2 0 .4-.3l.6-.3.5.2.3.1v-.2l.2-.3c0-.2 1.7-1.5 2.2-1.8h2.7q.5.1 1-.4l1.2-.7.5-.4q0-.2.6-.5l.6-.3-.5-.4c-.5-.2-2.4-1-2.7-1L24 .9l-.7-.2H23l-.4.3q-1.2.6-1.2 1.5L21 3q0 .3-.4.3h-.4q-.4-.5-1 .1t-1 .5l-.4-.1-.3-.2q-.1-.1-1.1 1-.9.7-.9.5H15l-.5-.1.1-.5h.3l.2-.1v-.2q.2 0 .2-.2 0-.4-.4-.4t-.5.3l-.2.1-.1.4-.3.4V5l-.4.4q-.3.4-.6.5t-.3.2l-.1.3-.2.3-.5 1-.1.2-.2.3-.2.1q-.2-.2-.5-.2c-.2 0-.6.5-.6.7V9q-.2 0-.2.3v.2l-.2.3-.1.2-.2.3-.4.7-.2.1-.1.1h-.2v-.4l-.1-.3H8l-.2.3-.1.3-.2.2v.1l-.3.5q-.2.4-.6.5h-.4v.5L6 14.5l-.4.6-.5 1V18l.4.8.5.8q.4.4.7.4v-2.3l.2-.3.4-.9h.3q.2-.1.7.5.7.6 1 .6l.4.5.2.5c.1.2.1.2 0 .8v1.2q0 .6.2 1 .5 1.2 1.3 1.5l.3-.2"/><path fill="#a4cfef" d="M18.5 39.7A20 20 0 0 1 2 28.6 19 19 0 0 1 0 18 19.6 19.6 0 0 1 17.8 0H22q3.6.4 6.8 2a19.8 19.8 0 0 1 4 32.9 20 20 0 0 1-14.3 4.7m1.3-1 1-.2h.3l.1-.2h.3l.5-.1.1-.1.2-.2.4-.3 1.4-.6.5-.3h.4l1.4-.5.4-.1.5-.4.8-.5q.6-.4.5-.5l.4-.8c.5-.8.5-.8.4-1q-.1-.2.4-.7l.7-.4.3-.2h.7q1.4 0 2-.2l1-.3.8-.2q.4 0 .5-.3l.5-.6.4-.4h-3.2l-.6.1-.3.1-.5.2-1.2.5-.2.1-.2.1-.2.2-.3.2-.2.2h-.2l-.2.2-.2.2-.4.4-.2.3-.1.2v.2q0 .3-.2.2v.2l-.3.4-.1.2-.1.2-.1.1-.1.1-.1.2-.3.2-.2.1-.2.1-.3.1-.3.1-.8.4h-.2l-.2.1v.1l-.7.3-.2.2q-.4 0-.4.3l-.3.1-.7.4h-.2l-.4.3-1.4.7-1.8.7.6.2zm-3.3-4.3q2-.2 3.5-.8c.9-.3 1.4-.7 2.4-1.6l3.2-2.6c1.5-1.2 2.1-1.8 3-3.1q1.6-2.3 2.5-5 1.6-4.9-.4-7.9L29.3 12l-1.3-.6-2.4-1.3Q24 9 22.8 8.8L21 8.7l-2.6.1-1.3.1.6.3.7.4v.5l-.7 1.5-.9 1.6c-.2.6-.2 1-.2 2.8 0 2 0 2.2.6 4q.4 1 .3 1.3v.5c-.4.3-2.4.2-4.5 0h-.2v1.9q.1 1.3-.4 1.6-.2.2-.3.1l-1-.6-2-2-.1-1.2q0-.6-.4-.7H8l-.7.2-.6.2-.6-.1-1-1.1a7 7 0 0 1-1-4.8l.6-2 .7-1.3.3-1L6 9.9c.2-.6.2-.7.2-1.4v-1q.3-.7.6-.9l.3-.6v-.3l-.3.3-1 1a15 15 0 0 0-4 6.5 51 51 0 0 0-1.1 7.8q0 1 .4 2.3c.2 1.2.9 3.3 1.2 4l.6.8q.3.4.8.5l1 .7 1 1.6c.8 1.3 1.1 1.6 2.3 2a20 20 0 0 0 5.5 1.3zm-4.7-6.5v-.4l.3-.2.1.4-.1.3-.2.1zm-5-2.8q-.2-.5.4-.5l.4.2-.1.2-.1.2h-.6m13.4-2.5-.1-.7q0-.2.2-.2t.3.2v.6q-.3.3-.4.1M2.8 18.1l-.3-.4q-.1-.4 0-.4V17q-.1 0 0-.4.1-.7.4-.6h.2v.3l-.2.4-.2.6.1.1q0-.2.3 0l.1.2q0 .6-.4.4m15.7-1.3-.1-.1-.1-.3q-.2-.4 0-.6t.3.2q0 .2 0 0h.3v.6l-.2.2zm-6.7 6.1v-.3l-.2-.3-.2-1.2-.2-1.1.2-.3q.3-.5.5-.5h.5l.6.1.4.2a6 6 0 0 0 2 1.3l.5-.2h.2V20l-.1-.5c-.6-.6-.8-1-1-2.2l-.4-1.1v-.8q-.1-.4.2-.8.2-.5.9 0l.3.1v-.1l-.2-1c-.2-.2-.2-.2-.2-.8v-.5h.2q.2 0 .2-.2l-.3-.7-.2-.1v-.6c0-.6 0-.6.2-1L16 9l.6-1.4q.1-.4.3-.3.2 0 .4-.3l.6-.3.5.2.3.1v-.2l.2-.3c0-.2 1.7-1.5 2.2-1.8h2.7q.5.1 1-.4l1.2-.7.5-.4q0-.2.6-.5l.6-.3-.5-.4c-.5-.2-2.4-1-2.7-1L24 .9l-.7-.2H23l-.4.3q-1.2.6-1.2 1.5L21 3q0 .3-.4.3h-.4q-.4-.5-1 .1t-1 .5l-.4-.1-.3-.2q-.1-.1-1.1 1-.9.7-.9.5H15l-.5-.1.1-.5h.5q.5 0 .7-.2l.5-.3.4-.5q.3-.7.8-.7.2 0 .3.2.3.4.5.4l.5-.4q.6-.7 1-.6.3 0 .5.2l.2.1v-.2l.5-1.2.4-.5.1-.2H18a20 20 0 0 0-9.6 3.7l-.3.7q0 .7-.3 1.4-.1.6-.7 1.6-.7 1.3-.7 1.7c-.2.5-.2.5-.2 1.3v3q-.2.6-.6 1.1l-.5 1V18l.4.8.5.8q.4.4.7.4v-2.3l.2-.3.4-.9h.3q.2-.1.7.5.7.6 1 .6l.4.5.2.5c.1.2.1.2 0 .8v1.2q0 .6.2 1 .5 1.2 1.3 1.5l.3-.2"/><path fill="#84b5e1" d="M18.5 39.7A20 20 0 0 1 2 28.6 19 19 0 0 1 0 18 19.6 19.6 0 0 1 17.8 0H22q3.6.4 6.8 2a19.8 19.8 0 0 1 4 32.9 20 20 0 0 1-14.3 4.7m1.3-1 1-.2h.3l.1-.2h.3l.5-.1.1-.1.2-.2.4-.3 1.4-.6.5-.3h.4l1.4-.5.4-.1.5-.4.8-.5q.6-.4.5-.5l.4-.8c.5-.8.5-.8.4-1q-.1-.2.4-.7l.7-.4.3-.2h.7q1.4 0 2-.2l1-.3.8-.2q.4 0 .5-.3l.5-.6.4-.6.2-.3.1-.2q.1-.2-.5-.2l-.3-.1-.5-.1-.6-.1-1 .1q-4 1-5.6 3l-.2.3-.2.5-.4.5-.5.5-1.6 1.5-1.4 1.2h-.1q-.3.1-.4.4l-.3.1-.7.3-.2.2-.4.2-1.3.7-1.9.7.6.2zm-3.3-4.3q2-.2 3.5-.8c.9-.3 1.4-.7 2.4-1.6l3.2-2.6c1.5-1.2 2.1-1.8 3-3.1q1.6-2.3 2.5-5 1.6-4.9-.4-7.9L29.3 12l-1.3-.6-2.4-1.3Q24 9 22.8 8.8L21 8.7l-2.6.1-1.3.1.6.3.7.4v.5l-.7 1.5-.9 1.6c-.2.6-.2 1-.2 2.8 0 2 0 2.2.6 4q.4 1 .3 1.3v.5c-.4.3-2.4.2-4.5 0h-.2v1.9q.1 1.3-.4 1.6-.2.2-.3.1l-1-.6-2-2-.1-1.2q0-.6-.4-.7H8l-.7.2-.6.2-.6-.1-1-1.1a7 7 0 0 1-1-4.8l.6-2 .7-1.3.3-1L6 9.9c.2-.6.2-.7.2-1.4v-1q.3-.7.6-.9l.3-.6v-.3l-.3.3-1 1a15 15 0 0 0-4 6.5 51 51 0 0 0-1.1 7.8q0 1 .4 2.3c.2 1.2.9 3.3 1.2 4l.6.8q.3.4.8.5l1 .7 1 1.6c.8 1.3 1.1 1.6 2.3 2a20 20 0 0 0 5.5 1.3zm-4.7-6.5v-.4l.3-.2.1.4-.1.3-.2.1zm-5-2.8q-.2-.5.4-.5l.4.2-.1.2-.1.2h-.6m13.4-2.5-.1-.7q0-.2.2-.2t.3.2v.6q-.3.3-.4.1M2.8 18.1l-.3-.4q-.1-.4 0-.4V17q-.1 0 0-.4.1-.7.4-.6h.2v.3l-.2.4-.2.6.1.1q0-.2.3 0l.1.2q0 .6-.4.4m15.7-1.3-.1-.1-.1-.3q-.2-.4 0-.6t.3.2q0 .2 0 0h.3v.6l-.2.2zm-6.7 6.1v-.3l-.2-.3-.2-1.2-.2-1.1.2-.3q.3-.5.5-.5h.5l.6.1.4.2a6 6 0 0 0 2 1.3l.5-.2h.2V20l-.1-.5c-.6-.6-.8-1-1-2.2l-.4-1.1v-.8q-.1-.4.2-.8.2-.5.9 0l.3.1v-.1l-.2-1c-.2-.2-.2-.2-.2-.8v-.5h.2q.2 0 .2-.2l-.3-.7-.2-.1v-.6c0-.6 0-.6.2-1L16 9l.6-1.4q.1-.4.3-.3.2 0 .4-.3l.6-.3.5.2.3.1v-.2l.2-.3c0-.2 1.7-1.5 2.2-1.8h2.7q.5.1 1-.4l1.2-.7.5-.4q0-.2.6-.5l.6-.3-.5-.4c-.5-.2-2.4-1-2.7-1L24 .9l-.7-.2H23l-.4.3q-1.2.6-1.2 1.5L21 3q0 .3-.4.3h-.4q-.4-.5-1 .1t-1 .5l-.4-.1-.3-.2q-.1-.1-1.1 1-.9.7-.9.5H15l-.5-.1.1-.5h.5q.5 0 .7-.2l.5-.3.4-.5q.3-.7.8-.7.2 0 .3.2.3.4.5.4l.5-.4q.6-.7 1-.6.3 0 .5.2l.2.1v-.2l.5-1.2.4-.5.1-.2H18a20 20 0 0 0-9.6 3.7l-.3.7q0 .7-.3 1.4-.1.6-.7 1.6-.7 1.3-.7 1.7c-.2.5-.2.5-.2 1.3v3q-.2.6-.6 1.1l-.5 1V18l.4.8.5.8q.4.4.7.4v-2.3l.2-.3.4-.9h.3q.2-.1.7.5.7.6 1 .6l.4.5.2.5c.1.2.1.2 0 .8v1.2q0 .6.2 1 .5 1.2 1.3 1.5l.3-.2"/><path fill="#699ecb" d="M18.5 39.7A20 20 0 0 1 2 28.6 19 19 0 0 1 0 18 19.6 19.6 0 0 1 17.8 0H22q3.6.4 6.8 2a19.8 19.8 0 0 1 4 32.9 20 20 0 0 1-14.3 4.7m2.8-.6q.5 0 .6-.2l.7-.3h.2l.6-.3h.2l.1-.1.3-.2h.2l.4-.2.7-.2.5-.2.6-.2h.2l.6-.3q.6-.2.8-.5h.2l.2-.1.3-.2.2-.2.3-.4.4-.5.3-.7.1-.3q.5-.8.9-1c.1-.2 1.1-.3 1.4-.3l.7.2.4-.3q.4-.7.7-.8h-.9l-1.4.2-1.2.3q-.6 0-1 1.4-.4 1.6-1 1.8l-.4.3c-.4.4-2.5 1.2-3.3 1.3l-1 .4-.8.4h-.3l-.3-.1.9-.6 1.7-.5c1.4-.5 1.8-.6 2.2-1l.8-.5q.6-.3.5-.5l.4-.8c.5-.8.5-.8.4-1v-.2l1-1h.3l1-.1q1.4 0 1.8-.2t1-.3l.8-.2q.4 0 .5-.3l.5-.6.4-.6.2-.3.1-.2q.1-.2-.5-.2l-.3-.1-.5-.1-.6-.1-1 .1q-2.5.6-4.2 1.7-1.2.8-1.7 1.8-.6 1.1-2.7 2.9l-1.2 1-.2.2-.4.2-.7.3-.7.5-1.5.8-1.9.7 1.5.5zm-3-4.1.6-.1.4-.1.5-.2 1-.3 1-.5 1-.5.6-.3.3-.2.3-.2.2-.1.8-.6.4-.3.3-.1.3-.2.4-.3.8-.6.4-.4.3-.2.3-.3.3-.3.5-.3.3-.3.2-.2q.2 0 .9-.8l.4-.4.5-.5.3-.3.1-.1q.2-.1 0-.1l.1-.3 1.2-1.4 1-2.7q.3-1 .2-2.2l-.1-3.5-.1-1-.3-.7-.4-1.1c-.6-1.7-1-2.4-2.2-4-.6-.8-.7-1-2.5-1.5q-2.3-.9-2.5-1.3-.1-.3-.6-.4H25l-.2-.1-2.5-.4c-.7 0-.6 0-1.2.2l-.8.4-.5.4.7.1q1 .1 2 .5c.8.2 1.4.5 2.9 1.3l1.9.9a9 9 0 0 1 5 5.8l.2 2-.2 2.6-.2 1.1q-.1 1.6-1 3l-1.5 2.4a20 20 0 0 1-3 3.4l-2.1 1.7a21 21 0 0 1-5.2 3.1l-2 .6h-.1zm-1.8-.6q2-.2 3.5-.8c.9-.3 1.4-.7 2.4-1.6l3.2-2.6c1.5-1.2 2.1-1.8 3-3.1q1.6-2.3 2.5-5 1.6-4.9-.4-7.9L29.3 12l-1.3-.6-2.4-1.3Q24 9 22.8 8.8L21 8.7l-2.6.1-1.3.1.6.3.7.4v.5l-.7 1.5-.9 1.6c-.2.6-.2 1-.2 2.8 0 2 0 2.2.6 4q.4 1 .3 1.3v.5c-.4.3-2.4.2-4.5 0h-.2v1.9q.1 1.3-.4 1.6-.2.2-.3.1l-1-.6-2-2-.1-1.2q0-.6-.4-.7H8l-.7.2-.6.2-.6-.1-1-1.1a7 7 0 0 1-1-4.8l.6-2 .7-1.3.3-1L6 9.9c.2-.6.2-.7.2-1.4v-1q.3-.7.6-.9l.3-.6v-.3l-.3.3-1 1a15 15 0 0 0-4 6.5 51 51 0 0 0-1.1 7.8q0 1 .4 2.3c.2 1.2.9 3.3 1.2 4l.6.8q.3.4.8.5l1 .7 1 1.6c.8 1.3 1.1 1.6 2.3 2a20 20 0 0 0 5.5 1.3zm-4.7-6.5v-.4l.3-.2.1.4-.1.3-.2.1zm-5-2.8q-.2-.5.4-.5l.4.2-.1.2-.1.2zm13.4-2.5-.1-.7q0-.2.2-.2t.3.2v.6q-.3.3-.4.1M2.8 18.1l-.3-.4q-.1-.4 0-.4V17q-.1 0 0-.4.1-.7.4-.6h.2v.3l-.2.4-.2.6.1.1q0-.2.3 0l.1.2q0 .6-.4.4m15.7-1.3-.1-.1-.1-.3q-.2-.4 0-.6t.3.2q0 .2 0 0h.3v.6l-.2.2zm-6.7 6.1v-.3l-.2-.3-.2-1.2-.2-1.1.2-.3q.3-.5.5-.5h.5l.6.1.4.2a6 6 0 0 0 2 1.3l.5-.2h.2V20l-.1-.5c-.6-.6-.8-1-1-2.2l-.4-1.1v-.8q-.1-.4.2-.8.2-.5.9 0l.3.1v-.1l-.2-1c-.2-.2-.2-.2-.2-.8v-.5h.2q.2 0 .2-.2l-.3-.7-.2-.1v-.6c0-.6 0-.6.2-1L16 9l.6-1.4q.1-.4.3-.3.2 0 .4-.3l.6-.3.5.2.3.1v-.2l.2-.3c0-.2 1.7-1.5 2.2-1.8h2.7q.5.1 1-.4l1.2-.7.5-.4q0-.2.6-.5l.6-.3-.5-.4c-.5-.2-2.4-1-2.7-1L24 .9l-.7-.2H23l-.4.3q-1.2.6-1.2 1.5L21 3q0 .3-.4.3h-.4q-.4-.5-1 .1t-1 .5l-.4-.1-.3-.2q-.1-.1-1.1 1-.9.7-.9.5H15l-.5-.1.1-.5h.5q.5 0 .7-.2l.5-.3.4-.5q.3-.7.8-.7.2 0 .3.2.3.4.5.4l.5-.4q.6-.7 1-.6.3 0 .5.2l.2.1v-.2l.5-1.2.4-.5.1-.2H18a20 20 0 0 0-9.6 3.7l-.3.7q0 .7-.3 1.4-.1.6-.7 1.6-.7 1.3-.7 1.7c-.2.5-.2.5-.2 1.3v3q-.2.6-.6 1.1l-.5 1V18l.4.8.5.8q.4.4.7.4v-2.3l.2-.3.4-.9h.3q.2-.1.7.5.7.6 1 .6l.4.5.2.5c.1.2.1.2 0 .8v1.2q0 .6.2 1 .5 1.2 1.3 1.5l.3-.2"/><path fill="#0d5079" d="M18.5 39.7A20 20 0 0 1 2 28.6 19 19 0 0 1 0 18 19.6 19.6 0 0 1 17.8 0H22q3.6.4 6.8 2a19.8 19.8 0 0 1 4 32.9 20 20 0 0 1-14.3 4.7M22 39c1.6-.2 1.8-.2 3-.6l1.4-.4 1-.3 2.2-1.3q2.4-1.5 3.7-3.8l.8-.8h-.9l-1.4.2-1.2.3q-.6 0-1 1.4-.3 1.6-1 1.8l-.4.3c-.5.4-2.5 1.2-3.3 1.3l-1 .4-.8.4h-.3l-.3-.1.9-.6 1.7-.5c1.4-.5 1.8-.6 2.2-1l.8-.5q.6-.3.5-.5l.4-.8c.5-.8.5-.8.4-1v-.2l1-1h.3l1-.1q1.4 0 1.8-.2l1-.3.8-.2q.4 0 .5-.3l.5-.6.4-.6.2-.3.1-.2q.1-.2-.5-.2l-.3-.1-.5-.1-.6-.1-1 .1q-2.5.6-4.2 1.7-1.1.8-1.7 1.8-.6 1.1-2.7 2.9l-1.2 1-.2.2-.4.2-.7.3-.7.5-1.5.8-1.9.7 1.5.5zm-4-2.5.8-.1.8-.2 1-.4h.9q1 0 1.2-.3l.4-.1.5-.1.3-.1.6-.3 3-3a9 9 0 0 1 2.7-2.8 16 16 0 0 1 4.4-1.8V27l.2-.1.1-.3.5-.6.2-.4.3-.6.4-1.1.1-.4.1-.5.1-.7.1-.7.1-4.2V16l-.2-.7-.1-.5-.1-.7-.1-.3-.3-1.4-.4-1.3-.4-.9-.2-.4v-.2l-.5-.8-.1-.3-.5-.7-.3-.3-.3-.4-.2-.3-.2-.3-.1-.1-.3-.5-.3-.5q0-.2-.6-.6l-3-1.9-.6-.2-.6.6q-.7.7-1 .7l-.8.5-1 .6c-.5.2-.6.2-1.8.1h-1l-.8.4-.7.4-.5.4.7.1 2 .5 4.7 2.2a9 9 0 0 1 5 5.8c.2.8.3 1.1.3 2l-.2 2.6-.2 1.1q-.1 1.6-1 3l-1.5 2.4a20 20 0 0 1-3 3.4l-2.1 1.7a21 21 0 0 1-5.2 3.1 11 11 0 0 1-5.2.9c-1.6 0-1.8 0-5.3-1l-2-.2H7l.1.1.4.2.3.1.4.2h.2l.4.2.3.1h.1l.8.2.9.3h.2q.4.3.8.3 1 0 1 .2h1l.3.2 1.5.1 1.2.2zM31.8 26l.1-.2 1.2-1.4 1-2.7q.3-1 .2-2.2l-.1-3.4L34 15l-.3-.6-.4-1.1c-.6-1.7-1-2.4-2.2-4-.6-.8-.7-1-2.5-1.5q-1.8-.6-2.2-1-.4-.3-.4-.9-.1-.3.4-.6l.7-.1.8.1 2.4 1.3q.6.6.7 1.1l.4.5A15 15 0 0 1 35 18.8c0 1.6 0 1.7-.2 2.2q-.6 2.9-2.4 4.9-.3.4-.5.3zm-15.2 8.3q2-.2 3.5-.8c.9-.3 1.4-.7 2.4-1.5l3.2-2.7c1.5-1.2 2.1-1.8 3-3.1q1.6-2.3 2.5-5 1.6-4.9-.4-7.9L29.3 12l-1.3-.6-2.4-1.3Q24 9 22.8 8.8L21 8.7l-2.6.1-1.3.1.6.3.7.4v.5l-.7 1.5-.9 1.6c-.2.6-.2 1-.2 2.8 0 2 0 2.2.6 4q.4 1 .3 1.3v.5c-.4.3-2.4.2-4.5 0h-.2v1.9q.1 1.3-.4 1.6-.2.2-.3.1l-1-.6-2-2-.1-1.2q0-.6-.4-.7H8l-.7.2-.6.2-.6-.1-1-1.1a7 7 0 0 1-1-4.8l.6-2 .7-1.3.3-1L6 9.9c.2-.6.2-.7.2-1.4v-1q.3-.7.6-.9l.3-.6v-.3l-.3.4-1 1a15 15 0 0 0-4 6.4 51 51 0 0 0-1.1 7.8l.3 2.3 1.3 4 .6.8q.3.4.8.5l1 .7 1 1.6c.8 1.3 1.1 1.6 2.3 2a20 20 0 0 0 5.5 1.3zm-4.7-6.5v-.4l.3-.1v.6l-.2.1zm-5-2.8q-.2-.5.4-.5l.4.2-.1.2-.1.2zm13.4-2.5-.1-.7q0-.2.2-.2t.3.2v.6q-.3.3-.4.1M2.8 18.1l-.3-.4q-.1-.4 0-.4V17q-.1 0 0-.4.1-.7.4-.6h.2v.3l-.2.4-.2.6.1.1q0-.2.3 0l.1.2q0 .6-.4.4m15.7-1.3-.1-.1-.1-.3q-.2-.4 0-.6t.3.2q0 .2 0 0h.3v.6l-.2.2zm-6.7 6.1v-.3l-.2-.3-.2-1.2-.2-1.1.2-.3q.3-.5.5-.5h.5l.6.1.4.2a6 6 0 0 0 2 1.3l.5-.2h.2V20l-.1-.5c-.6-.6-.8-1-1-2.2l-.4-1.1v-.8q-.1-.4.2-.8.2-.5.9 0l.3.1v-.1l-.2-1c-.2-.2-.2-.2-.2-.8v-.5h.2q.2 0 .2-.2l-.3-.7-.2-.1v-.6c0-.6 0-.6.2-1L16 9l.6-1.4q.1-.4.3-.3.2 0 .4-.3l.6-.3.5.2.3.1v-.2l.2-.3c0-.2 1.7-1.5 2.2-1.8h2.7q.5.1 1-.4l1.2-.7.5-.4q0-.2.6-.5l.6-.3-.5-.4c-.5-.2-2.4-1-2.7-1L24 .9l-.7-.2H23l-.4.3q-1.2.6-1.2 1.5L21 3q0 .3-.4.3h-.4q-.4-.5-1 .1t-1 .5l-.4-.1-.3-.2q-.1-.1-1.1 1-.9.7-.9.5H15l-.5-.1.1-.5h.5q.5 0 .7-.2l.5-.3.4-.5q.3-.7.8-.7.2 0 .3.2.3.4.5.4l.5-.4q.6-.7 1-.6.3 0 .5.2l.2.1v-.2l.5-1.2.4-.5.1-.2H18a20 20 0 0 0-9.6 3.7l-.3.7q0 .7-.3 1.4-.1.6-.7 1.6-.7 1.3-.7 1.7c-.2.5-.2.5-.2 1.3v3q-.2.6-.6 1.1l-.5 1V18l.4.8.5.8q.4.4.7.4v-2.3l.2-.3.4-.9h.3q.2-.1.7.5.7.6 1 .6l.4.5.2.5c.1.2.1.2 0 .8v1.2q0 .6.2 1 .5 1.2 1.3 1.5l.3-.2"/><path fill="#221e1f" d="M18.5 39.7A20 20 0 0 1 2 28.6 19 19 0 0 1 0 18 19.6 19.6 0 0 1 17.8 0H22q3.6.4 6.8 2a19.8 19.8 0 0 1 4 32.9 20 20 0 0 1-14.3 4.7M22 39c1.6-.2 1.8-.2 3-.6l1.4-.4 1-.3 2.2-1.3q2.4-1.5 3.7-3.8l.8-.8h-.9l-1.4.2-1.2.3q-.6 0-1 1.4-.3 1.6-1 1.8l-.4.3c-.5.4-2.5 1.2-3.3 1.3l-1 .4-.8.4h-.3l-.3-.1.9-.6 1.7-.5c1.4-.5 1.8-.6 2.2-1l.8-.5q.6-.3.5-.5l.4-.8c.5-.8.5-.8.4-1v-.2l1-1h.3l1-.1q1.4 0 1.8-.2l1-.3.8-.2q.4 0 .5-.3l.5-.6.4-.6.2-.3.1-.2q.1-.2-.5-.2l-.3-.1-.5-.1-.6-.1-1 .1q-2.5.6-4.2 1.7-1.1.8-1.7 1.8c-.5.9-1.1 1.6-2.7 3-1.2 1-1.7 1.2-2.4 1.6l-.8.5-1.5.8-1.9.7 1.5.5zm-4.2-.8a30 30 0 0 0 5.3-2.3 14 14 0 0 0 2.9-2.4l1.4-1.6a9 9 0 0 1 2.8-2.8 17 17 0 0 1 3.4-1.6l.6-.2h.9l1.3.1.4.1v-.2l.1-.3q.3-.1.4-.5l.4-.7q.7-1 1-2.5c.3-1.4.4-3.6.3-4.8q0-1.6-.6-3.7c-.6-2.4-1.2-3.6-2.9-5.8a17 17 0 0 0-7-6l-.5-.2-.6.6q-.7.7-1 .7l-.8.5-1 .6c-.5.2-.6.2-1.8.1h-1l-.8.4-.7.4-.5.4.7.1 2 .5 4.7 2.2a9 9 0 0 1 5 5.8c.2.8.3 1.1.3 2l-.2 2.6-.2 1.1q-.1 1.6-1 3l-1.5 2.4a20 20 0 0 1-3 3.4l-2.1 1.7a21 21 0 0 1-5.2 3.1 11 11 0 0 1-5.2.9c-1.6 0-1.8 0-5.3-1L7 34l-.8-.2 2.6 2 2.7 1.5c1.2.6 1.1.6 1.9.6h.6l.5.2.5.3h1.3q.2.1 1.4-.2m14-12.2.1-.2 1.2-1.4 1-2.7q.3-1 .2-2.2l-.1-3.4L34 15l-.3-.6-.4-1.1c-.6-1.7-1-2.4-2.2-4-.6-.8-.7-1-2.5-1.5q-1.8-.6-2.2-1-.4-.3-.4-.9-.1-.3.4-.6l.7-.1.8.1 2.4 1.3q.6.6.7 1.1l.4.5A15 15 0 0 1 35 18.8c0 1.6 0 1.7-.2 2.2q-.6 2.9-2.4 4.9-.3.4-.5.3zm-15.2 8.3q2-.2 3.5-.8c.9-.3 1.4-.7 2.4-1.5l3.2-2.7c1.5-1.2 2.1-1.8 3-3.1q1.6-2.3 2.5-5 1.6-4.9-.4-7.9L29.3 12l-1.3-.6-2.4-1.3Q24 9 22.8 8.8L21 8.7l-2.6.1-1.3.1.6.3.7.4v.5l-.7 1.5-.9 1.6c-.2.6-.2 1-.2 2.8 0 2 0 2.2.6 4q.4 1 .3 1.3v.5c-.4.3-2.4.2-4.5 0h-.2v1.9q.1 1.3-.4 1.6-.2.2-.3.1l-1-.6-2-2-.1-1.2q0-.6-.4-.7H8l-.7.2-.6.2-.6-.1-1-1.1a7 7 0 0 1-1-4.8l.6-2 .7-1.3.3-1L6 9.9c.2-.6.2-.7.2-1.4v-1q.3-.7.6-.9l.3-.6v-.3l-.3.4-1 1a15 15 0 0 0-4 6.4 51 51 0 0 0-1.1 7.8l.3 2.3 1.3 4 .6.8q.3.4.8.5l1 .7 1 1.6c.8 1.3 1.1 1.6 2.3 2a20 20 0 0 0 5.5 1.3zm-4.7-6.5v-.4l.3-.1v.6l-.2.1zm-5-2.8q-.2-.5.4-.5l.4.2-.1.2-.1.2zm13.4-2.5-.1-.7q0-.2.2-.2t.3.2v.6q-.3.3-.4.1M2.8 18.1l-.3-.4q-.1-.4 0-.4V17q-.1 0 0-.4.1-.7.4-.6h.2v.3l-.2.4-.2.6.1.1q0-.2.3 0l.1.2q0 .6-.4.4m15.7-1.3-.1-.1-.1-.3q-.2-.4 0-.6t.3.2q0 .2 0 0h.3v.6l-.2.2zm-6.7 6.1v-.3l-.2-.3-.2-1.2-.2-1.1.2-.3q.3-.5.5-.5h.5l.6.1.4.2a6 6 0 0 0 2 1.3l.5-.2h.2V20l-.1-.5c-.6-.6-.8-1-1-2.2l-.4-1.1v-.8q-.1-.4.2-.8.2-.5.9 0l.3.1v-.1l-.2-1c-.2-.2-.2-.2-.2-.8v-.5h.2q.2 0 .2-.2l-.3-.7-.2-.1v-.6c0-.6 0-.6.2-1L16 9l.6-1.4q.1-.4.3-.3.2 0 .4-.3l.6-.3.5.2.3.1v-.2l.2-.3c0-.2 1.7-1.5 2.2-1.8h2.7q.5.1 1-.4l1.2-.7.5-.4q0-.2.6-.5l.6-.3-.5-.4c-.5-.2-2.4-1-2.7-1L24 .9l-.7-.2H23l-.4.3q-1.2.6-1.2 1.5L21 3q0 .3-.4.3h-.4q-.4-.5-1 .1t-1 .5l-.4-.1-.3-.2q-.1-.1-1.1 1-.9.7-.9.5H15l-.5-.1.1-.5h.5q.5 0 .7-.2l.5-.3.4-.5q.3-.7.8-.7.2 0 .3.2.3.4.5.4l.5-.4q.6-.7 1-.6.3 0 .5.2l.2.1v-.2l.5-1.2.4-.5.1-.2H18a20 20 0 0 0-9.6 3.7l-.3.7q0 .7-.3 1.4-.1.6-.7 1.6-.7 1.3-.7 1.7c-.2.5-.2.5-.2 1.3v3q-.2.6-.6 1.1l-.5 1V18l.4.8.5.8q.4.4.7.4v-2.3l.2-.3.4-.9h.3q.2-.1.7.5.7.6 1 .6l.4.5.2.5c.1.2.1.2 0 .8v1.2q0 .6.2 1 .5 1.2 1.3 1.5l.3-.2"/></svg>