<svg xmlns="http://www.w3.org/2000/svg" width="150.3" height="150.1" viewBox="0 0 39.8 39.7"><path fill="#bfdda7" d="M18.9 39.7a20 20 0 0 1-14.5-7.4Q1.6 28.7.6 24.7q-.7-2.4-.6-5.2c0-1.4 0-2 .3-3.1A20 20 0 0 1 16.6.2c1.2-.2 1.6-.2 3.3-.2s2.2 0 3.5.3a20 20 0 0 1 16.1 16.1c.2 1.3.3 1.8.3 3.4a20 20 0 0 1-7 15.2q-6 5-14 4.7m-1.4-10.5h-1.3v.1l.3.7.5-.4zM14 29v-.2l-1-.4.2.7.2.7.2-.3zm6.5-.4.2-.4h-.2l-.4.3.3.3zm2.8-2.4v-.8l-.2.2-.4.8.3.1q.2.3.3-.3"/><path fill="#9d9186" d="M18.9 39.7a20 20 0 0 1-14.5-7.4Q1.6 28.7.6 24.7q-.7-2.4-.6-5.2c0-1.4 0-2 .3-3.1A20 20 0 0 1 16.6.2c1.2-.2 1.6-.2 3.3-.2s2.2 0 3.5.3a20 20 0 0 1 16.1 16.1c.2 1.3.3 1.8.3 3.4a20 20 0 0 1-7 15.2q-6 5-14 4.7m-1.4-10.5h-1.3v.1l.3.7.5-.4zM14 29v-.2l-1-.4.2.7.2.7.2-.3zm6.5-.4.2-.4h-.2l-.4.3.3.3zm2.8-2.4v-.8l-.2.2-.4.8.3.1q.2.3.3-.3m-9.4-5 .2-.1-.3-.1q-.8 0-1.6-.6l-1.4-.7.1.4q.5 1 1.4 1.1zm7.2 0q2 0 1.9-.8v-.2h-.4l-2 .5-.6.1v.3c0 .2 0 .2 1.1.1"/><path fill="#6ebf54" d="M18.9 39.7a20 20 0 0 1-14.5-7.4Q1.6 28.7.6 24.7q-.7-2.4-.6-5.2c0-1.4 0-2 .3-3.1A20 20 0 0 1 16.6.2c1.2-.2 1.6-.2 3.3-.2s2.2 0 3.5.3a20 20 0 0 1 16.1 16.1c.2 1.3.3 1.8.3 3.4a20 20 0 0 1-7 15.2q-6 5-14 4.7m-.4-4.8-.1-.1a3 3 0 0 1-1.4-.7l-.3-.2.5.7c.5.4.5.5 1 .5q.4 0 .3-.2m6.3-1.8.2-.2-.2-.4-1.5-1.5-.5.5v.2q0 1 1.3 1.2.4 0 .4.2zm-16-3 .3-.3.1-.2.2-.1h.3q.2 0 .2-.4V29l-.1.1h-.5q-.6-.3-1 0t-.1.8v.3q0 .3.4.3h.2zm8.7-1h-1.3v.2l.3.7.5-.4zm10 .7.3-.3.3-.5q.5-.1-.3-.5l-.5-.2H27V28q0-.2-.3-.2-.2-.1-.5.5-.4.5-.2.8l.7.6zM14 29v-.2l-1-.4.2.7.2.7.2-.3zm6.5-.4.2-.4h-.2l-.4.3.3.3zm2.8-2.4v-.8l-.2.2-.4.8.3.1q.2.3.3-.3M5.2 24.1l.4-.3.3-.3q.4-.3.3-.5 0-.2.2-.3t.3-.2v-.1l.1-.1-.1-.1L6 22q-.8-.3-1 0-.2 0-.4.5v1.6h.1zm26-.5a1 1 0 0 0 .4-.9l-.2-.5-.1-.4-.3.2-.8.6-.6.3.3.3 1 .5zm-17.3-2.4.2-.1-.3-.1q-.8 0-1.6-.6l-1.4-.7.1.4q.5 1 1.4 1.1zm7.2 0q2 0 1.9-.8v-.2h-.4l-2 .5-.6.1v.3c0 .2 0 .2 1.1.1m-17-2.6.2-.1.1-.1h.1l.2-.2.2-.1v-.7l-.1-.1q-.3 0-.2-.7l-.1-.6q-.1-.3-1-.2l-.4.4q-.4.4-.7 1.2-.1.4 0 .4h.5v.2q0 .8.5.6zm20.3-2 .2-.3q.4 0 .3-.6 0-.3-.5-.4l-.3-.2q-.2-.3-.3 0h-.4l-.2-.1v.4q0 .7.3.7h.3q.2 0 .2.3t.2.3zm-.5-1q0-.2 0 0m-5.3-1 .7-.1q.6 0 .7-.2v-1.1l-.2-.1-.4-.3-.3-.1q-.5 0-1.4.9l-.3.2.2.2.1.3q.1.4.5.5zm-4-.6.4-.2.2-.2h-.1l-.2-.3-.3-.1q-.6 0 0 0l.2-.1-.2-.2-.2-.2h-.3l-.6.1-.4.2-.2-.1q-.2.1-.1.7l.1.1h.2q.1.3.4.1l.1.1.4.1zm-3.3-6.7v-.7c0-.8-.1-.8-.8-.8q-.4-.1-1.2.4l-.4.3-.1.2q-.3.1 0 .5h.7l.8-.2.5.1.4.3M29 6.8h.6l.2-.4.2-.5v-.1l.2-.2-.1-.2v-.1q0-.2-.4-.3t-.5-.2-.3-.1l-.2-.1q0-.3-.3-.3h-.6v.5l.1.6v1.3h.1l.5.1zM18.6 3.9h.1c.2 0 .6-.6.5-.7l-.5-.2q-.7-.3-1.2 0l-.4.1-.1.1q0 .3.2.3.5 0 .9.4z"/><path fill="#5ba247" d="M18.9 39.7a20 20 0 0 1-14.5-7.4Q1.6 28.7.6 24.7q-.7-2.4-.6-5.2c0-1.4 0-2 .3-3.1A20 20 0 0 1 16.6.2c1.2-.2 1.6-.2 3.3-.2s2.2 0 3.5.3a20 20 0 0 1 16.1 16.1c.2 1.3.3 1.8.3 3.4a20 20 0 0 1-7 15.2q-6 5-14 4.7m2.3-.5 1-.1 1-.2a14 14 0 0 0 7.2-3.1l2-2q2-2.4 2.5-4.7l.1-4.2v-2.6l-.1-.9-.4-2q-.5-2-1.7-3.6a22 22 0 0 0-5.8-4.5 18 18 0 0 0-5.8-1.7 15 15 0 0 0-8.4 2.2q-1.7 1.1-1.4 3l.1.3-.2.1-.7.2q-.9 0-1 .3-.3.2-.3.8-.1.7.5 1 .6.8 2 1.2l1.2.5 1 .5q.3 0 .4.2.8.7.9 1.5 0 .6-.5.4c-.2-.1-.2-.1-.8 0l-1.1.2q-2.7-.2-2.8-2.3v-.4l-.3-.3-.3-.3v.3l.1 1.4.3.5.3 1v.4c-.2.1-.4.7-.4.9 0 .6.4 2 .8 2.8l.2.5.1-.2q.3 0 0-.8-.7-1.8-.5-1.7l.2-.1.3-.2v.1l.2.1.2.5q.3 1 1 1.7 1.3 1.5 3.7 1.7c.7.1 2 .2 2.6 0q1.8-.2 2.8-.7l.3-.2.2-.4.5-.7c.6-.8.6-.8.6-1.2v-.3h.2l.2-.1v-.6h.2l.2.2q.3.3 0 .5v.1q.2.1.4-.3.3-.3.2-1.7v-1l-.6-1.9-.1.1v.4q.2.2 0 .8 0 .8-1 1.2-.6.3-1.3.3l-1-.1-.6-.2q-.2.3-.3.1-.3 0-.4-.5c0-.5-.2-.4-.5-.5h-.3q-.3 0-.4-.5-.2-.7.8-1a4 4 0 0 1 1.8 0h1q1.5-.1 1.5-1l-.6-1.2q-.5-.9.2-.8.5-.1.8.8.5 1 1 1.3l.3.5c.3.5.3.6.3 1.6v2.3c0 .7-.1 1-.4 2l-.1 1.1v.5l-.2.4-.9 1.4h-1.1q-.4 0-1.1 1.1-.6 1-1 .8l-.4-.3h-.2q-.4.3-1.3.2c-.8 0-.8 0-1.3.4l-.6.4-.4-.2q-.3-.4-.9-.3l-.6-.2-.1-.1v.2q-.4 1.1-1.3.7-.7-.6-1-2.1c0-.2 0-.2-.8-.8q-1.3-.9-1.6-1.4l-.2-1.3q0-.8-.2-1-.3-.3-.1-1.7l-.5-2.1-.2-1v-.4H8c-1.2 0-1.8.2-3 .8-.8.3-1.2.6-2.3 1.3l-.8.5q-.2 0-.2-.3 0-.9 1.6-1.7c1.3-.7 3.9-1.5 5.1-1.5h.5v-.4l-.1-.9-.2-.8.1-.6c.3-.6 1-1.4 1.3-1.6l.2-.1v-.3q0-.9.6-1.5.4-.5 1.5-1 .5-.2.6-.5.4-.7 1.3-1.1l.3-.3.4-.4.2-.2.4-.2.2-.2.3-.2.7-.3q.4 0 .2-.3-.3-.7-2.5-2.7L13 3.4l.2-.2q.3-.3 1.6.6l2.1 2 .6 1 .1.4 1-.2.3-.2.6-.2h.4V6l-.3-.5-.4-.2h-.3v-.5h-.1q-.2 0-.2-.3-.2-.7.2-.7.4-.3.4-.7l-.5-.2q-.8-.3-1.2 0L17 3h-.3q0-.2.2-.3.6-.3 1.3-.3l.7.1.4.2.6-.2c.9-.4 1-.4 1.3-.4q.9 0 1.3 1 .4.7.1 1.3l-.8.8-.2.1.1.6V6l.1.1 1.5-.2q1.3 0 2.1.2h.5l.2-1v-.8q.3-.2.2-.6l-.2-1-.4-1.3a43 43 0 0 0-6.5-1c-1 0-1.3 0-2.1.3l-1.3.3c-.9.1-1.2.2-3 1a16 16 0 0 0-9.1 8.2l-.6 1.2.3-.2 1.7-.7a4 4 0 0 1 2.5 0q1.5.3 1.5 1.2.1.6-1 0l-1.5-.2q-2 0-3.6 1l-.5.2q-.2 0-.3.2a13 13 0 0 0-1 4.4v1.3c-.2.5-.2.6-.2 2.1v1.7l.1.4.2.7c0 2 1.5 5.4 3.5 8.2a15 15 0 0 0 3.4 3.5L14 38a15 15 0 0 0 7.2 1.1m0-1.7a6 6 0 0 1-2.7-2.6l-.3-.1q-.7-.2-1.2-.7-.3-.4-.3-.2l.5.7.4.4-.3.3-.5-.1-.2-.2.3.5.2.3v.3q0 .3.3.3t.2.2q0 .4-.7.2h-.4q0 .2-.4.2h-.3l-.4.1-.2-.4-.2-.9v-.6l.1-.1-.2-.1-.5-.4q-.7-.8-.4-1.4l.6-1 .3-.1h.1q.2-1.1.4-.5l.9.9.3.1.1-.2.6-.4q.6-.4.6-.8V31l.3.3h.8v.2q0 .4-1.2 1.2l-.4.4.6.5 1.2.4v.2l-.1.2.2.4.5.7q.8 1 1.6 1.5.5.2.5.5zm1-.5q-.5-.4-.7-1-.1-.2 0-.4.3-.4-.2-.7-.5-.5-.6-1 0-.7.3-1l.2-.2-.4-.2q-.7-.2-.6-.6v-.5l-.2-.1v-.5l.1-.1h.6v.1l.6-.2.5.1.1.1.3.2h.2l.4-.4.2-.1v-.9l.3-.1q.2 0 .3.3.1.5.8 1.2l1.4 1.4a15 15 0 0 0 3.7 1.9h.2l-.3.1c-.5.1-1.9 0-2.5-.2q-1-.3-3.1-2.7l-.5-.6-.2.2-.3.6q0 1 1.3 1.2l.4.1-.2.3.2-.1h.3l.4.1.2.3q0 .3.2.2t.3.3v.1l.2.2.2.2q.4.3.1.6-.3.1-.5-.1l-.2-.3q-.2-.2-.2 0l-.2.2-.1.3v.2H24q-.2 0 0 .1v.7h-.7l-.1.1v.2l-.2.1-.2.1q-.1.3-.5.3zm-10.8-1-.2-.2-.6-1.4-.1-1.3a6 6 0 0 1 .9-3.4l.2-.2.3.5-.1.3q-.3.3-.3 1.3 0 .6-.2 1v.7q0 .5.3 1.4l.4.8.2.4H12q-.3.3-.6 0m-4.2-3.7q-.4 0-.7-1v-1.7q.2-.3.6-.3t1-.7c.7-.7.6-.6 1-.5l.8.6q0 .3-.3.4l-.4-.1q-.5-.3-.9 0c-.2 0-.3.6-.1.8v.7q0 .4-.3.4l-.1.9-.1.5zm20.3-.3q-.9-.1-1-.8c-.1-.1 0-.7 0-.8l-.2-.2-.7-.8.1-.8q.4-1 .7-.7l-.2.4q-.4.6-.2 1l.7.5q.7.3 1-.3l.4-.5.2-.2-.6-.4q-.5-.3-.6-.8v-.2q.1-.4 1 .4 1.1 1 1.7 1 .2.2.9.2c.6 0 .6 0 1.6-.4h.6l.1.2v.3l-.7.2q-.6 0-.8.2l-.2.4q-.1.6-1 .9-.4 0-.4.4-.2.3-.6.5-.9.4-1.8.3M4 28.6l-.2-1.2v-2l.5.4.2.2.2-.3c.8-1 2.2-2 3.2-2.3h.4q.3.3.2.5l-1 .6q-1.8 1-2.5 2c-.5.6-.6.7-.6 1.3l-.1.7-.1.2zm11.2-1.5q-1 0-1.3-.4-.2-.4.4-.9l.3-.1-.5-.6q-.8-.4-.5-1 .3-.4.7-.1c.9.4 2.4 2 2.4 2.6l-.3.4-1 .1zm4.1-.1c-.2 0-.4-.6-.3-1q0-.5.8-1l.9-.8q.6-.6.7-.1l.2.1-.1.2-.8 1.1q-.6.7-.5 1t-.4.4zm10-.5q-.5 0-1-.8l-.9-.5q-.2 0-.7-.5t-.4-1v-.3l.3-.2q2.4-.6 4-1.7l1.5-1.2q.7-.6.6-.3l-.4.9-.3.3.5.4.8.7.2.1v.5h-.9l-.2-.2-.2.4-.3.6-.2.4.6.6.7.9q.4.3 0 .5-.2.2-1.1-.6l-.4-.4v.1l-.5.8-.8.5zm2-2.9a1 1 0 0 0 .4-.9l-.2-.5-.1-.4-.3.2-.8.6-.6.3.3.3 1 .5zM3.8 24v-.5q-.1-.8.2-1.5l.8-.9q.5-.3 1.3 0 1.2.2 1.1.7t-1.2.3l-.7-.2q-.7 0-.7 1.6v.6h-.8m23.4-3-.3-.2.6-.5.4-.2q.5 0 .8-.4l.4-.3 1-1 .4-1.8q0-.6.2-.7l.8-.3q.3.2.4.6c.2.8-1.6 3.4-3.2 4.4q-.8.7-1.5.4M25.8 19q-.4-.4 0-1.7v-.7l-.5-2.6-.6.7-.2.1h.2l.6.7.1.5q0 .3-.3.8l-.3.5q0 .3-.4.2V17l.3-1 .2-.4q0-.2-.6-.5L24 15h-.2l-.2.1h-.2l-.1-.1-.1.4-.1.6q0 .2-.2 0-.2 0-.5-.3-.1-.2-.4-.2h-.3l-.2-.2h-1.1l-.2 1q0 .4-.2.2t-.3-.7l-.2-.4h-1.2v.9l-.1.1q-.1.1-.4-.7l-1-1.5-.1-.3h-.5q-.6 0-.7.2a3 3 0 0 0-1.2 1.1q0 .3-.2.1L14 15q-.1-.5 1-1.2l.2-.2h-.1l-.2-.4-.3-.3-.2-.2h-.3l-.6.1-.4.2-.2-.1v-.6q.2-.4 1.2-.6.7-.1 1.2.5l.5.7.2.4-.1-.4q-.2-.3 0-.5l.1-.2v-.1l-.2-.3q0-.2.2-.3h.2q0-.3.3-.4l1.2-.2q.3 0 .4.2l.1.3v.4h.6q.4-.1.3-.5 0-.4.2-.5h.4l.2-.2q0-.3.5-.3l.7.3.1.5v.4h.2q.4 0 1 .5t.8.1q.1-.2.9-.3h.4l-.2-.2q-.2 0-.2-.3t.2-.3q.3 0 .5.2a10 10 0 0 1 1.8 6.7q-.1.8-.4 1l-.2.1zm-7.3-4.3.7-.1q.6 0 .7-.2v-1.1l-.2-.1-.4-.3-.3-.1q-.5 0-1.4.9l-.3.2.2.4q.3.5.6.6zM2 17.8l-.2-.1v-.4l.1-.6.7-1q.3 0 .2-.3V15l.2-.4q0-.9 1-1.3l.7-.2h.7q.8.4 1 1 0 .3-.4.5-.3 0-.2.3h.1l.7-.3q.7 0 1.3.6.4.2.4 1v.5h-.4l-.4.1H7l-.2.2-.4.1-.6.3-.2.2-.1.2h-.4q-.2 0-.3-.3v-.2l-.1-.1q-.3-.1-.2-.8t-.6-.7q-.5-.1-.9.4l-.7 1.1q0 .5-.2.5 0 .2-.3 0m7.5-7.4-.1-.3q0-.2-.2-.2l-.3-.1q-.3 0-.2-.3v-.2l-.2.1q-.1.2-.4 0v-.9q0-.3.5-.7 1-.6 1.8-.6.3 0 .5.2l.4.2v-.7q.1-1.2-.6-1-.6 0-1.3.5-.6.4-.6.2-.2-.3.3-.8l1-.5q1.3-.3 1.8.6l.1.5v.3h2l.4.3q.6.3.4.5l-.3.1-.2.2-.2.1-.1.2q.1.4-.5.3h-.9l-.3.3V10H12q-.4.3-.5 0h-.9l-.1-.1v.2q.1.3-.4.3zm8 18.8h-1.2v.1l.3.7.5-.4zM14 29v-.2l-1-.4.2.7.2.7.2-.3zm1.2 0-.2.1v.1q.3 0 .2-.1m3.5 0 .2-.1-.6.2zm1.8-.4.2-.4h-.2l-.4.3.3.3zm-8.4-1-.2-.3h-.2l.3.4q.3 0 .1-.1m10-.4q.3 0 0 0V27l-.2.2zm1.2-1v-.8l-.2.2-.4.8.3.1q.2.3.3-.3m-9.4-5 .2-.1-.3-.1q-.8 0-1.6-.6l-1.4-.7.1.4q.5 1 1.4 1.1zm7.2 0q2 0 1.9-.8V20l-.4.1-2 .5-.6.1v.3c0 .2 0 .2 1.1.1M16.3 8.6l.8-.4zq-.5.3 0 0M29 6.8h.6l.2-.4.2-.5v-.1l.2-.2-.1-.2v-.1q0-.2-.4-.3t-.5-.2-.3-.1l-.2-.1q0-.3-.3-.3h-.6v.5l.1.6v1.3h.1l.5.1zm2.5-2.1L29.3 3 28 2.3l-1.3-.5.1.7.2.8h.7l.3.1h.3l.2.1.5.2h.2l.2.2.2.1h.2l.3.2h.4l.3.2.2.1q.1.3.4.2.5.1.2 0"/><path fill="#6f675f" d="M18.9 39.7a20 20 0 0 1-14.5-7.4Q1.6 28.7.6 24.7q-.7-2.4-.6-5.2c0-1.4 0-2 .3-3.1A20 20 0 0 1 16.6.2c1.2-.2 1.6-.2 3.3-.2s2.2 0 3.5.3a20 20 0 0 1 16.1 16.1c.2 1.3.3 1.8.3 3.4a20 20 0 0 1-7 15.2q-6 5-14 4.7m2.3-.5 1-.1 1-.2a14 14 0 0 0 7.2-3.1l2-2q2-2.4 2.5-4.7l.1-4.2v-2.6l-.1-.9-.4-2q-.5-2-1.7-3.6a22 22 0 0 0-5.8-4.5 18 18 0 0 0-5.8-1.7 15 15 0 0 0-8.4 2.2q-1.7 1.1-1.4 3l.1.3-.2.1-.7.2q-.9 0-1 .3-.3.2-.3.8-.1.7.5 1 .6.8 2 1.2l1.2.5 1 .5q.3 0 .4.2.8.7.9 1.5 0 .6-.5.4c-.2-.1-.2-.1-.8 0l-1.1.2q-2.7-.2-2.8-2.3v-.4l-.3-.3-.3-.3v.3l.1 1.4.3.5.3 1v.4c-.2.1-.4.7-.4.9 0 .6.4 2 .8 2.8l.2.5.1-.2q.3 0 0-.8-.7-1.8-.5-1.7l.2-.1.3-.2v.1l.2.1.2.5q.3 1 1 1.7 1.3 1.5 3.7 1.7c.7.1 2 .2 2.6 0q1.8-.2 2.8-.7l.3-.2.2-.4.5-.7c.6-.8.6-.8.6-1.2v-.3h.2l.2-.1v-.6h.2l.2.2q.3.3 0 .5v.1q.2.1.4-.3.3-.3.2-1.7v-1l-.6-1.9-.1.1v.4q.2.2 0 .8 0 .8-1 1.2-.6.3-1.3.3l-1-.1-.6-.2q-.2.3-.3.1-.3 0-.4-.5c0-.5-.2-.4-.5-.5h-.3q-.3 0-.4-.5-.2-.7.8-1a4 4 0 0 1 1.8 0h1q1.5-.1 1.5-1l-.6-1.2q-.5-.9.2-.8.5-.1.8.8.5 1 1 1.3l.3.5c.3.5.3.6.3 1.6v2.3c0 .7-.1 1-.4 2l-.1 1.1v.5l-.2.4-.9 1.4h-1.1q-.4 0-1.1 1.1-.6 1-1 .8l-.4-.3h-.2q-.4.3-1.3.2c-.8 0-.8 0-1.3.4l-.6.4-.4-.2q-.3-.4-.9-.3l-.6-.2-.1-.1v.2q-.4 1.1-1.3.7-.7-.6-1-2.1c0-.2 0-.2-.8-.8q-1.3-.9-1.6-1.4l-.2-1.3q0-.8-.2-1-.3-.3-.1-1.7l-.5-2.1-.2-1v-.4H8c-1.2 0-1.8.2-3 .8-.8.3-1.2.6-2.3 1.3l-.8.5q-.2 0-.2-.3 0-.9 1.6-1.7c1.3-.7 3.9-1.5 5.1-1.5h.5v-.4l-.1-.9-.2-.8.1-.6c.3-.6 1-1.4 1.3-1.6l.2-.1v-.3q0-.9.6-1.5.4-.5 1.5-1 .5-.2.6-.5l.9-.9q1-.6 2.3-1l1-.5-.4-1.3c-.3-.3-1.2-1.3-2.3-2.2L13 3.4l.2-.2q.3-.3 1.6.6c1 .8 2.2 2 2.5 2.6l.3.9.4.7h3.3l3 .8.6.2.3-.8.6-1.5.2-.9v-.6q0-.6.2-.8v-.7l-.1-1-.4-1.3a43 43 0 0 0-6.5-1c-1 0-1.3 0-2.1.3l-1.3.3c-.9.1-1.2.2-3 1a16 16 0 0 0-9.1 8.2l-.6 1.2.3-.2 1.7-.7a4 4 0 0 1 2.5 0q1.5.3 1.5 1.2.1.6-1 0l-1.5-.2q-2 0-3.6 1l-.5.2q-.2 0-.3.2a13 13 0 0 0-1 4.4v1.3c-.2.5-.2.6-.2 2.1v1.7l.1.4.2.7c0 2 1.5 5.4 3.5 8.2a15 15 0 0 0 3.4 3.5L14 38a15 15 0 0 0 7.2 1.1m0-1.7a6 6 0 0 1-2.7-2.6l-.3-.1q-.7-.2-1.2-.7-.3-.4-.3-.2l.5.7.4.4-.3.3-.5-.1-.2-.2.3.5.2.3v.3q0 .3.3.3t.2.2q0 .4-.7.2h-.4q0 .2-.4.2h-.3l-.4.1-.2-.4-.2-.9v-.6l.1-.1-.2-.1-.5-.4q-.7-.8-.4-1.4l.6-1 .3-.1h.1q.2-1.1.4-.5l.9.9.3.1.1-.2.6-.4q.6-.4.6-.8V31l.3.3h.8v.2q0 .4-1.2 1.2l-.4.4.6.5 1.2.4v.2l-.1.2.2.4.5.7q.8 1 1.6 1.5.5.2.5.5zm1-.5q-.5-.4-.7-1-.1-.2 0-.4.3-.4-.2-.7-.5-.5-.6-1 0-.7.3-1l.2-.2-.4-.2q-.7-.2-.6-.6v-.5l-.2-.1v-.5l.1-.1h.6v.1l.6-.2.5.1.1.1.3.2h.2l.4-.4.2-.1v-.9l.3-.1q.2 0 .3.3.1.5.8 1.2l1.4 1.4a15 15 0 0 0 3.7 1.9h.2l-.3.1c-.5.1-1.9 0-2.5-.2q-1-.3-3.1-2.7l-.5-.6-.2.2-.3.6q0 .9 1.3 1.2.4 0 .4.2l-.4.4q-.5.4-.3.7 0 .4.7.7l.3.2v.2l-.7.2q-.2 0 0 .1v.7h-.7l-.1.1v.2l-.2.1-.2.1q-.1.3-.5.3zM11.3 36l-.2-.1-.6-1.4-.1-1.3a6 6 0 0 1 .9-3.4l.2-.2.3.5-.1.3q-.3.3-.3 1.3 0 .6-.2 1v.7q0 .5.3 1.4l.4.8.2.4H12q-.3.3-.6 0m-4.2-3.6q-.4 0-.7-1v-1.7q.2-.3.6-.3t1-.7c.7-.7.6-.6 1-.5l.8.6q0 .3-.3.4l-.4-.1q-.5-.3-.9 0c-.2 0-.3.6-.1.8v.7q0 .4-.3.4l-.1.9-.1.5zm20.3-.3q-.9-.1-1-.8c-.1-.1 0-.7 0-.8l-.2-.2-.7-.8.1-.8q.4-1 .7-.7l-.2.4q-.4.6-.2 1l.7.5q.7.3 1-.3l.4-.5.2-.2-.6-.4q-.5-.3-.6-.8v-.2q.1-.4 1 .4 1.1 1 1.7 1 .2.2.9.2c.6 0 .6 0 1.6-.4h.6l.1.2v.3l-.7.2q-.6 0-.8.2l-.2.4q-.1.6-1 .9-.4 0-.4.4-.2.3-.6.5-.9.4-1.8.3M4 28.6l-.2-1.2v-2l.5.4.2.2.2-.3c.8-1 2.2-2 3.2-2.3h.4q.3.3.2.5l-1 .6q-1.8 1-2.5 2c-.5.6-.6.7-.6 1.3l-.1.7-.1.2zm11.2-1.5q-1 0-1.3-.4-.2-.4.4-.9l.3-.1-.5-.6q-.8-.4-.5-1 .3-.4.7-.1c.9.4 2.4 2 2.4 2.6l-.3.4-1 .1zm4.1-.1c-.2 0-.4-.6-.3-1q0-.5.8-1l.9-.8q.6-.6.7-.1l.2.1-.1.2-.8 1.1q-.6.7-.5 1t-.4.4zm10-.5q-.5 0-1-.8l-.9-.5q-.2 0-.7-.5t-.4-1v-.3l.3-.2q2.4-.6 4-1.7l1.5-1.2q.7-.6.6-.3l-.4.9-.3.3.5.4.8.7.2.1v.5h-.9l-.2-.2-.2.4-.3.6-.2.4.6.6.7.9q.4.3 0 .5-.2.2-1.1-.6l-.4-.4v.1l-.5.8-.8.5zm2-2.9a1 1 0 0 0 .4-.9l-.2-.5-.1-.4-.3.2-.8.6-.6.3.3.3 1 .5zM3.8 24v-.5q-.1-.8.2-1.5l.8-.9q.5-.3 1.3 0 1.2.2 1.1.7t-1.2.3l-.7-.2q-.7 0-.7 1.6v.6h-.8m23.4-3-.3-.2.6-.5.4-.2q.5 0 .8-.4l.4-.3 1-1 .4-1.8q0-.6.2-.7l.8-.3q.3.2.4.6c.2.8-1.6 3.4-3.2 4.4q-.8.7-1.5.4M25.8 19q-.4-.4 0-1.7v-.7l-.5-2.6-.6.7-.2.1h.2l.6.7.1.5q0 .3-.3.8l-.3.5q0 .3-.4.2V17l.3-1 .2-.4q0-.2-.6-.5L24 15h-.2l-.2.1h-.2l-.1-.1-.1.4-.1.6q0 .2-.2 0-.2 0-.5-.3-.1-.2-.4-.2h-.3l-.2-.2h-1.1l-.2 1q0 .4-.2.2t-.3-.7l-.2-.4h-1.2v.9l-.1.1q-.1.1-.4-.7l-1-1.5-.1-.3h-.5q-.6 0-.7.2a3 3 0 0 0-1.2 1.1q0 .3-.2.1L14 15q-.1-.5 1-1.2l.2-.2h-.1l-.2-.4-.3-.3-.2-.2h-.3l-.6.1-.4.2-.2-.1v-.6q.2-.4 1.2-.6.7-.1 1.2.5l.5.7.2.4-.1-.4q-.2-.3 0-.5l.1-.2v-.1l-.2-.3q0-.2.2-.3h.2q0-.3.3-.4l1.2-.2q.3 0 .4.2l.1.3v.4h.6q.4-.1.3-.5 0-.4.2-.5h.4l.2-.2q0-.3.5-.3l.7.3.1.5v.4h.2q.4 0 1 .5t.8.1q.1-.2.9-.3h.4l-.2-.2q-.2 0-.2-.3t.2-.3q.3 0 .5.2a10 10 0 0 1 1.8 6.7q-.1.8-.4 1l-.2.1zm-7.3-4.3.7-.1q.6 0 .7-.2v-1.1l-.2-.1-.4-.3-.3-.1q-.5 0-1.4.9l-.3.2.2.4q.3.5.6.6zM2 17.8l-.2-.1v-.4l.1-.6.7-1q.3 0 .2-.3V15l.2-.4q0-.9 1-1.3l.7-.2h.7q.8.4 1 1 0 .3-.4.5-.3 0-.2.3h.1l.7-.3q.7 0 1.3.6.4.2.4 1v.5h-.4l-.4.1H7l-.2.2-.4.1-.6.3-.2.2-.1.2h-.4q-.2 0-.3-.3v-.2l-.1-.1q-.3-.1-.2-.8t-.6-.7q-.5-.1-.9.4l-.7 1.1q0 .5-.2.5 0 .2-.3 0m7.5-7.4-.1-.3q0-.2-.2-.2l-.3-.1q-.3 0-.2-.3v-.2l-.2.1q-.1.2-.4 0v-.9q0-.3.5-.7 1-.6 1.8-.6.3 0 .5.2l.4.2v-.7q.1-1.2-.6-1-.6 0-1.3.5-.6.4-.6.2-.2-.3.3-.8l1-.5q1.3-.3 1.8.6l.1.5v.3h2l.4.3q.6.3.4.5l-.3.1-.2.2-.2.1-.1.2q.1.4-.5.3h-.9l-.3.3V10H12q-.4.3-.5 0h-.9l-.1-.1v.2q.1.3-.4.3zM20.7 7v-.2l-.3-.1-.4-.2v-.2l-.1-.2-.3-.5-.4-.2h-.3v-.5h-.1q-.2 0-.2-.3-.2-.7.2-.7.4-.3.4-.7l-.5-.2q-.7-.3-1.2 0l-.5.1h-.3V3q0-.2.2-.3.6-.3 1.3-.3l.7.1.4.2.6-.2c.9-.4 1-.4 1.3-.4q.9 0 1.3 1 .4.7.1 1.3l-.8.8-.2.1.1.6q.1.3-.3 1-.3.3-.7.2m-3.2 22.2h-1.3v.1l.3.7.5-.4zM14 29v-.2l-1-.4.2.7.2.7.2-.3zm1.2 0-.2.1v.1q.3 0 .2-.1m3.5 0 .2-.1-.6.2zm1.8-.4.2-.4h-.2l-.4.3.3.3zm-8.4-1-.2-.3h-.2l.3.4q.3 0 .1-.1m10-.4q.3 0 0 0V27l-.2.2zm1.2-1v-.8l-.2.2-.4.8.3.1q.2.3.3-.3m-9.4-5 .2-.1-.3-.1q-.8 0-1.6-.6l-1.4-.7.1.4q.5 1 1.4 1.1zm7.2 0q2 0 1.9-.8V20l-.4.1-2 .5-.6.1v.3c0 .2 0 .2 1.1.1m17.4-.8-.3-2L38 17l-.3.2-.6.3-.3.1.2.4h.2l.1.2.1.2.2.2.2.6.2.5v.2l.2.4v.3l.1.1q.1.5.2-.3m-1.3-6.3-2.6-4.8-1.4 2q-.4.4 0 .4l.2.1q.4.3.8.3l.4.2.1.1h.1l.2.2q.2 0 .1.1l.2.2h.2v.1h.1l.4.4h.1v.1h.2l.1.2.2.1v.1h.1q.3.3.5.2m-4-4.3.5-1.6.2-.7v-.3l-.1-.2c-.6-.8-2-2.1-2.7-2.8a18 18 0 0 0-4.4-2.4v.6q.4 1.6.3 2v1l-.1 1-.3.9-.6 1.5-.3.5.4.2 1.4.7.2-.1q.3-.2 1.4-.2h1q.4.3 1.4.3l1.1.2h.2zM28 9.1l-.6-.3v-.2l-.2-.1-.2.2v-.5l.2-.8.4-1.3-.2-.8-.1-.6V4l.3-.6h.1l.1.6.1.7q.1.9 0 1.6v.4h.2l.5.1h1.1l.2-.4.1-.5.2-.1v-.1h.3l.1.4v.5l.1.1h.1l.2.3v.2h.2l.3-.1.2-.3q.3 0 .4.5.4 1.1-.5 1.6-.6.4-1.4.2l-.4-.2-.2.1q-.4.4-.8.3z"/><path fill="#4a823c" d="M18.9 39.7a20 20 0 0 1-14.5-7.4Q1.6 28.7.6 24.7q-.7-2.4-.6-5.2c0-1.4 0-2 .3-3.1A20 20 0 0 1 16.6.2c1.2-.2 1.6-.2 3.3-.2s2.2 0 3.5.3a20 20 0 0 1 16.1 16.1c.2 1.3.3 1.8.3 3.4a20 20 0 0 1-7 15.2q-6 5-14 4.7m2.3-.5 1-.1 1-.2a14 14 0 0 0 7.2-3.1l2-2q2-2.4 2.5-4.7l.1-4.2v-2.6l-.1-.9-.4-2q-.5-2-1.7-3.6a22 22 0 0 0-5.8-4.5 18 18 0 0 0-5.8-1.7 15 15 0 0 0-8.4 2.2q-1.7 1.1-1.4 3l.1.3-.2.1-.7.2q-.9 0-1 .3-.3.2-.3.8-.1.7.5 1 .6.8 2 1.2l1.2.5 1 .5q.3 0 .4.2.8.7.9 1.5 0 .6-.5.4c-.2-.1-.2-.1-.8 0l-1.1.2q-2.7-.2-2.8-2.3v-.4l-.3-.3-.3-.3v.3l.1 1.4.3.5.3 1v.4c-.2.1-.4.7-.4.9 0 .6.4 2 .8 2.8l.2.5.1-.2q.3 0 0-.8-.7-1.8-.5-1.7l.2-.1.3-.2v.1l.2.1.2.5q.3 1 1 1.7 1.3 1.5 3.7 1.7c.7.1 2 .2 2.6 0q1.8-.2 2.8-.7l.3-.2.2-.4.5-.7c.6-.8.6-.8.6-1.2v-.3h.2l.2-.1v-.6h.2l.2.2q.3.3 0 .5v.1q.2.1.4-.3.3-.3.2-1.7v-1l-.6-1.9-.1.1v.4q.2.2 0 .8 0 .8-1 1.2-.6.3-1.3.3l-1-.1-.6-.2q-.2.3-.3.1-.3 0-.4-.5c0-.5-.2-.4-.5-.5h-.3q-.3 0-.4-.5-.2-.7.8-1a4 4 0 0 1 1.8 0h1q1.5-.1 1.5-1l-.6-1.2q-.5-.9.2-.8.5-.1.8.8.5 1 1 1.3l.3.5c.3.5.3.6.3 1.6v2.3c0 .7-.1 1-.4 2l-.1 1.1v.5l-.2.4-.9 1.4h-1.1q-.4 0-1.1 1.1-.6 1-1 .8l-.4-.3h-.2q-.4.3-1.3.2c-.8 0-.8 0-1.3.4l-.6.4-.4-.2q-.3-.4-.9-.3l-.6-.2-.1-.1v.2q-.4 1.1-1.3.7-.7-.6-1-2.1c0-.2 0-.2-.8-.8q-1.3-.9-1.6-1.4l-.2-1.3q0-.8-.2-1-.3-.3-.1-1.7l-.5-2.1-.2-1v-.4H8c-1.2 0-1.8.2-3 .8-.8.3-1.2.6-2.3 1.3l-.8.5q-.2 0-.2-.3 0-.9 1.6-1.7c1.3-.7 3.9-1.5 5.1-1.5h.5v-.4l-.1-.9-.2-.8.1-.6c.3-.6 1-1.4 1.3-1.6l.2-.1v-.3q0-.9.6-1.5.4-.5 1.5-1 .5-.2.6-.5l.9-.9q1-.6 2.3-1l1-.5-.4-1.3c-.3-.3-1.2-1.3-2.3-2.2L13 3.4l.2-.2q.3-.3 1.6.6c1 .8 2.2 2 2.5 2.6l.3.9.4.7h3.3l3 .8.6.2.3-.8.6-1.5.2-.9v-.6q0-.6.2-.8v-.7l-.1-1-.4-1.3a43 43 0 0 0-6.5-1c-1 0-1.3 0-2.1.3l-1.3.3c-.9.1-1.2.2-3 1a16 16 0 0 0-9.1 8.2l-.6 1.2.3-.2 1.7-.7a4 4 0 0 1 2.5 0q1.5.3 1.5 1.2.1.6-1 0l-1.5-.2q-2 0-3.6 1l-.5.2q-.2 0-.3.2a13 13 0 0 0-1 4.4v1.3c-.2.5-.2.6-.2 2.1v1.7l.1.4.2.7c0 2 1.5 5.4 3.5 8.2a15 15 0 0 0 3.4 3.5L14 38a15 15 0 0 0 7.2 1.1m0-1.7a6 6 0 0 1-2.7-2.6l-.3-.1q-.7-.2-1.2-.7-.3-.4-.3-.2l.5.7.4.4-.3.3-.5-.1q-.6-.6-1 0V37h-.1q-.3.4-.5-.3l-.2-.9v-.6l.1-.1-.2-.1-.5-.4q-.7-.8-.4-1.4l.6-1 .3-.1h.1q.2-1.1.4-.5l.9.9.3.1.1-.2.6-.4q.6-.4.6-.8v-.1l.3.3h.8v.2q0 .4-1.2 1.2l-.4.4.6.5 1.2.4v.2l-.1.2.2.4.5.7q.8 1 1.6 1.5.5.2.5.5zm1-.5q-.5-.4-.7-1-.1-.2 0-.4.3-.4-.2-.7-.5-.5-.6-1 0-.7.3-1l.2-.2-.4-.2q-.7-.2-.6-.6v-.5l-.2-.1v-.5l.1-.1h.6v.1l.6-.2.5.1.1.1.3.2h.2l.4-.4.2-.1v-.9l.3-.1q.2 0 .3.3.1.5.8 1.2l1.4 1.4a15 15 0 0 0 3.7 1.9h.2l-.3.1c-.5.1-1.9 0-2.5-.2q-1-.3-3.1-2.7l-.5-.6-.2.2-.3.6q0 .9 1.3 1.2.4 0 .4.2l-.4.4q-.5.4-.3.7 0 .4.7.7l.3.2v.2l-.7.2q-.2 0 0 .1v.7h-.7l-.1.1v.2l-.2.1-.2.1q-.1.3-.5.3zm1.1-2h.1v-.3l-.2-.3.1-.3.1-.4-.3-.3q-.8-.5-.8-.7t-.2-.2-.5.3l-.4.7.3.6q.3.3.8.3.3-.1.4.4l.1.2zm-11.9 1-.2-.2-.6-1.4-.1-1.3a6 6 0 0 1 .9-3.4l.2-.2.3.5-.1.3q-.3.3-.3 1.3 0 .6-.2 1v.7q0 .5.3 1.4l.4.8.2.4H12q-.3.3-.6 0m-4.2-3.7q-.4 0-.7-1v-1.7q.2-.3.6-.3t1-.7c.7-.7.6-.6 1-.5l.8.6q0 .3-.3.4l-.4-.1q-.5-.3-.9 0c-.2 0-.3.6-.1.8q.2.3 0 .4l-.2.1q-.3 0-.5-.2l-.3-.1H7l.3 1 .3 1.2-.1.2zm20.3-.3q-.9-.1-1-.8c-.1-.1 0-.7 0-.8l-.2-.2-.7-.8.1-.8q.4-1 .7-.7l-.2.4q-.4.6-.2 1l.7.5q.7.3 1-.3l.4-.5.2-.2-.6-.4q-.5-.3-.6-.8v-.2q.1-.4 1 .4 1.1 1 1.7 1 .2.2.9.2c.6 0 .6 0 1.6-.4h.6l.1.2v.3l-.7.2q-.5 0-.8.2l-.2.4q-.1.6-1 .9-.4 0-.4.4-.2.3-.6.5-.9.4-1.8.3m2.8-2q.3 0 .3-.2v-.2l-1.8-.6v.4l.1.6q.6.4 1.4 0M3.9 28.6l-.2-1.2v-2l.5.4.2.2.2-.3c.8-1 2.2-2 3.2-2.3h.4q.3.3.2.5l-1 .6q-1.8 1-2.5 2c-.5.6-.6.7-.6 1.3l-.1.7-.1.2zm11.2-1.5q-1 0-1.3-.4-.2-.4.4-.9l.3-.1-.5-.6q-.8-.4-.5-1 .3-.4.7-.1c.9.4 2.4 2 2.4 2.6l-.3.4-1 .1zm4.1-.1c-.2 0-.4-.6-.3-1q0-.5.8-1l.9-.8q.6-.6.7-.1l.2.1-.1.2-.8 1.1q-.6.7-.5 1t-.4.4zm10-.5q-.5 0-1-.8l-.9-.5q-.2 0-.7-.5t-.4-1v-.3l.3-.2q2.4-.6 4-1.7l1.5-1.2q.7-.6.6-.3l-.4.9-.3.3.5.4.8.7.2.1v.5h-.9l-.2-.2-.2.4-.3.6-.2.4.6.6.7.9q.4.3 0 .5-.2.2-1.1-.6l-.4-.4v.1l-.5.8-.8.5zm-1-2a1 1 0 0 0 .6-.8q0-.3-.2-.3l-1.6.4.6.7zm3-.9a1 1 0 0 0 .4-.9l-.2-.5-.1-.4-.3.2-.8.6-.5.3.2.3 1 .5zM3.8 24v-.5q-.1-.8.2-1.5l.8-.9q.5-.3 1.3 0 1.2.2 1.1.7t-1.2.3l-.7-.2q-.7 0-.7 1.6v.6h-.8m23.4-3-.3-.2.6-.5.4-.2q.5 0 .8-.4l.4-.3 1-1 .4-1.8q0-.6.2-.7l.8-.3q.3.2.4.6c.2.8-1.6 3.4-3.2 4.4q-.8.7-1.5.4M25.8 19q-.5-.4 0-1.7v-.7l-.5-2.6-.6.7-.2.1h.2l.6.7.1.5q0 .3-.3.8l-.3.5q0 .3-.4.2V17l.3-1 .2-.4q0-.2-.6-.5L24 15h-.2l-.2.1h-.2l-.1-.1-.1.4q0 1-.4.6-.3 0-.7-.7l-.3-.6q-.4-.3-1-.1h-.6q-.3 0-.3-.9v-.5l-.1-.1-.4-.3-.3-.1q-.5 0-1.4.9l-.3.2.2.4q.3.5.6.6l.4-.2h.8q.5 0 .8.3t.2 1l-.2.5q0 .3-.1.1-.3-.3-.4-.7l-.2-.4h-1.2v.9l-.1.1q-.1.1-.4-.7l-1-1.5v-.3h-.6q-.6 0-.7.2a3 3 0 0 0-1.2 1.1q0 .3-.2.1V15q-.2-.5 1-1.2l.1-.2h-.1l-.2-.4-.3-.3-.2-.2h-.3l-.6.1-.4.2-.2-.1v-.6q.2-.4 1.2-.6.7-.1 1.2.5l.5.7.2.4-.1-.4q-.2-.3 0-.5l.1-.2v-.1l-.2-.3q0-.2.2-.3h.2q0-.3.3-.4l1.2-.2q.3 0 .4.2l.1.3v.4h.6q.7-.2 1 .1l.2.1.1-.2q0-.3.3-.5v-.2L20 11h-.3v-.4q.2-.3.6-.3l.7.3.1.5v.4h.2q.4 0 1 .5t.8.1.9-.3h.4l-.2-.2q-.2 0-.2-.3t.2-.3q.3 0 .5.2a10 10 0 0 1 1.8 6.7q-.1.8-.4 1l-.2.1zm-1.6-5.2.4-.5.1-.1-.3-.2q-.4-.3-.9-.2l-.2.1.1.3.1.7v.4h.2zm-22.3 4-.2-.1v-.4l.1-.6.7-1q.3 0 .2-.3V15l.2-.4q0-.9 1-1.3l.7-.2h.7q.8.4 1 1 0 .3-.4.4l-.2.1-.3-.3L5 14q-.5-.2-1.1.4-.5.3-.5.7-.1.3.5 0t1.1.2h.3l.4-.2q.6-.5 1.2-.3.5.1 1 .5.3.2.3 1v.5h-.4l-.4.1H7l-.2.2-.4.1-.6.3-.2.2-.1.2h-.4q-.2 0-.3-.3v-.2l-.1-.1q-.3-.1-.2-.8t-.6-.7q-.5-.1-.9.4l-.7 1.1q0 .5-.2.5 0 .2-.3 0m9.6-7.7v-.6c0-.5 0-.5-.2-.8q-.5-1-1.4-1l-.6.2-.8.5q-.5.4-.5.2V8q.6-.5 1.7-1 .6 0 1.1.2l.4.2v-.7q.2-1.2-.6-1-.6 0-1.3.5-.6.4-.6.2-.1-.3.3-.8l1-.5q1.4-.3 1.8.6l.1.5v.3h2l.4.3q.6.3.4.5l-.3.1-.2.2-.2.1-.1.2q.1.4-.5.3h-.9l-.3.3V10H12q-.4.3-.5 0m9.2-3-.1-.4.2-.3q.4-.6 0-1.1-.6-.7-1-.6l-.5.1q-.7.4-.7-.1-.2-.7.2-.7.4-.3.4-.7l-.5-.2q-.7-.3-1.2 0l-.5.1h-.3V3q0-.2.2-.3.6-.3 1.3-.3l.7.1.4.2.6-.2c.9-.4 1-.4 1.3-.4q.9 0 1.3 1 .4.7.1 1.3l-.8.7-.2.2.1.5q.1.5-.3 1-.3.5-.7.3m-3.2 22.2h-1.3v.1l.3.7.5-.4zM14 29l.1-.1-.1-.1-1-.4.2.7.2.7.2-.3zm1.2 0-.2.1v.1q.3 0 .2-.1m3.5 0 .2-.1-.6.2zm1.8-.4.2-.4h-.2l-.4.3.3.3zm-8.4-1-.2-.3h-.2l.3.4q.3 0 .1-.1m10-.4q.3 0 0 0V27l-.2.2zm1.2-1v-.8l-.2.2-.4.8.3.1q.2.3.3-.3m-9.4-5 .2-.1-.3-.1q-.8 0-1.6-.6l-1.4-.7.1.4q.5 1 1.4 1.1zm7.2 0q2 0 1.9-.8V20l-.4.1-2 .5-.6.1v.3c0 .2 0 .2 1.1.1m17.4-.8-.3-2L38 17l-.3.2-.6.3-.3.1.2.4h.2l.1.2.1.2.2.2.2.6.2.5v.2l.2.4v.3l.1.1q.1.5.2-.3m-1.3-6.3-2.6-4.8-1.4 2q-.4.4 0 .4l.2.1q.4.3.8.3l.4.2.1.1h.1l.2.2.1.1.2.2h.2v.1h.1l.4.4h.1v.1h.2l.1.2.2.1v.1h.1q.3.3.5.2m-4-4.3.5-1.6.2-.7v-.3l-.1-.2c-.6-.8-2-2.1-2.7-2.8a18 18 0 0 0-4.4-2.4v.6q.4 1.6.3 2v1l-.1 1-.3.9-.6 1.5-.3.5.4.2 1.4.7.2-.1q.3-.2 1.4-.2h1q.4.3 1.4.3l1.1.2h.2zm-5-.6q-.6-.2-.8-.5l-.2-.2-.2.2v-.5l.2-.8.4-1.3-.2-.8-.1-.6V4l.3-.6h.1l.1.6.1.7v2.1l-.2.8v.6l.5.5h.5q.6.1.8-.4l.1-.4-.1-.5-.4-.6h.6l.2-.4.2-.5v-.1l.2-.1h.2l.1.4v.5l.1.1h.1l.2.3v.2h.2l.3-.1.2-.3q.3 0 .4.5.4 1.1-.5 1.6-.6.4-1.4.2l-.4-.2-.2.1q-.4.4-.8.3z"/><path fill="#3f3a35" d="M18.9 39.7a20 20 0 0 1-14.5-7.4Q1.6 28.7.6 24.7q-.7-2.4-.6-5.2c0-1.4 0-2 .3-3.1A20 20 0 0 1 16.6.2c1.2-.2 1.6-.2 3.3-.2s2.2 0 3.5.3a20 20 0 0 1 16.1 16.1c.2 1.3.3 1.8.3 3.4a20 20 0 0 1-7 15.2q-6 5-14 4.7m2.3-.5 1-.1 1-.2a14 14 0 0 0 7.2-3.1l2-2q2-2.4 2.5-4.7l.1-4.2v-2.6l-.1-.9-.4-2q-.5-2-1.7-3.6a22 22 0 0 0-5.8-4.5 18 18 0 0 0-5.8-1.7 15 15 0 0 0-8.4 2.2q-1.7 1.1-1.4 3l.1.3-.2.1-.7.2q-.9 0-1 .3-.3.2-.3.8-.1.7.5 1 .6.8 2 1.2l1.2.5 1 .5q.3 0 .4.2.8.7.9 1.5 0 .6-.5.4c-.2-.1-.2-.1-.8 0l-1.1.2q-2.7-.2-2.8-2.3v-.4l-.3-.3-.3-.3v.3l.1 1.4.3.5.3 1v.4c-.2.1-.4.7-.4.9 0 .6.4 2 .8 2.8l.2.5.1-.2q.3 0 0-.8-.7-1.8-.5-1.7l.2-.1.3-.2v.1l.2.1.2.5q.3 1 1 1.7 1.3 1.5 3.7 1.7c.7.1 2 .2 2.6 0q1.8-.2 2.8-.7l.3-.2.2-.4.5-.7c.6-.8.6-.8.6-1.2v-.3h.2l.2-.1v-.6h.2l.2.2q.3.3 0 .5v.1q.2.1.4-.3.3-.3.2-1.7v-1l-.6-1.9-.1.1v.4q.2.2 0 .8 0 .8-1 1.2-.6.3-1.3.3l-1-.1-.6-.2q-.2.3-.3.1-.3 0-.4-.5c0-.5-.2-.4-.5-.5h-.3q-.3 0-.4-.5-.2-.7.8-1a4 4 0 0 1 1.8 0h1q1.5-.1 1.5-1l-.6-1.2q-.5-.9.2-.8.5-.1.8.8.5 1 1 1.3l.3.5c.3.5.3.6.3 1.6v2.3c0 .7-.1 1-.4 2l-.1 1.1v.5l-.2.4-.9 1.4h-1.1q-.4 0-1.1 1.1-.6 1-1 .8l-.4-.3h-.2q-.4.3-1.3.2c-.8 0-.8 0-1.3.4l-.6.4-.4-.2q-.3-.4-.9-.3l-.6-.2-.1-.1v.2q-.4 1.1-1.3.7-.7-.6-1-2.1c0-.2 0-.2-.8-.8q-1.3-.9-1.6-1.4l-.2-1.3q0-.8-.2-1-.3-.3-.1-1.7l-.5-2.1-.2-1v-.4H8c-1.2 0-1.8.2-3 .8-.8.3-1.2.6-2.3 1.3l-.8.5q-.2 0-.2-.3 0-.9 1.6-1.7c1.3-.7 3.9-1.5 5.1-1.5h.5v-.4l-.1-.9-.2-.8.1-.6c.3-.6 1-1.4 1.3-1.6l.2-.1v-.3q0-.9.6-1.5.4-.5 1.5-1 .5-.2.6-.5l.9-.9q1-.6 2.3-1l1-.5-.4-1.3c-.3-.3-1.2-1.3-2.3-2.2L13 3.4l.2-.2q.3-.3 1.6.6c1 .8 2.2 2 2.5 2.6l.3.9.4.7h3.3l3 .8.6.2.3-.8.6-1.5.2-.9v-.6q0-.6.2-.8v-.7l-.1-1-.4-1.3a43 43 0 0 0-6.5-1c-1 0-1.3 0-2.1.3l-1.3.3c-.9.1-1.2.2-3 1a16 16 0 0 0-9.1 8.2l-.6 1.2.3-.2 1.7-.7a4 4 0 0 1 2.5 0q1.5.3 1.5 1.2.1.6-1 0l-1.5-.2q-2 0-3.6 1l-.5.2q-.2 0-.3.2a13 13 0 0 0-1 4.4v1.3c-.2.5-.2.6-.2 2.1v1.7l.1.4.2.7c0 2 1.5 5.4 3.5 8.2a15 15 0 0 0 3.4 3.5L14 38a15 15 0 0 0 7.2 1.1m0-1.7a6 6 0 0 1-2.7-2.6l-.3-.1q-.7-.2-1.2-.7-.3-.4-.3-.2l.5.7.4.4-.3.3-.5-.1q-.6-.6-1 0V37h-.1q-.3.4-.5-.3l-.2-.9v-.6l.1-.1-.2-.1-.5-.4q-.7-.8-.4-1.4l.6-1 .3-.1h.1q.2-1.1.4-.5l.9.9.3.1.1-.2.6-.4q.6-.4.6-.8v-.1l.3.3h.8v.2q0 .4-1.2 1.2l-.4.4.6.5 1.2.4v.2l-.1.2.2.4.5.7q.8 1 1.6 1.5.5.2.5.5zm1-.5q-.5-.4-.7-1-.1-.2 0-.4.3-.4-.2-.7-.5-.5-.6-1 0-.7.3-1l.2-.2-.4-.2q-.7-.2-.6-.6v-.5l-.2-.1v-.5l.1-.1h.6v.1l.6-.2.5.1.1.1.3.2h.2l.4-.4.2-.1v-.9l.3-.1q.2 0 .3.3.1.5.8 1.2l1.4 1.4a15 15 0 0 0 3.7 1.9h.2l-.3.1c-.5.1-1.9 0-2.5-.2q-1-.3-3.1-2.7l-.5-.6-.2.2-.3.6q0 .9 1.3 1.2.4 0 .4.2l-.4.4q-.5.4-.3.7 0 .4.7.7l.3.2v.2l-.7.2q-.2 0 0 .1v.7h-.7l-.1.1v.2l-.2.1-.2.1q-.1.3-.5.3zm1.1-2h.1v-.3l-.2-.3.1-.3.1-.4-.3-.3q-.8-.5-.8-.7t-.2-.2-.5.3l-.4.7.3.6q.3.3.8.3.3-.1.4.4l.1.2zm-11.9 1-.2-.2-.6-1.4-.1-1.3a6 6 0 0 1 .9-3.4l.2-.2.3.5-.1.3q-.3.3-.3 1.3 0 .6-.2 1v.7q0 .5.3 1.4l.4.8.2.4H12q-.3.3-.6 0m-4.2-3.7q-.4 0-.7-1v-1.7q.2-.3.6-.3t1-.7c.7-.7.6-.6 1-.5l.8.6q0 .3-.3.4l-.4-.1q-.5-.3-.9 0c-.2 0-.3.6-.1.8q.2.3 0 .4l-.2.1q-.3 0-.5-.2l-.3-.1H7l.3 1 .3 1.2-.1.2zm20.3-.3q-.9-.1-1-.8c-.1-.1 0-.7 0-.8l-.2-.2-.7-.8.1-.8q.4-1 .7-.7l-.2.4q-.4.6-.2 1l.7.5q.7.3 1-.3l.4-.5.2-.2-.6-.4q-.5-.3-.6-.8v-.2q.1-.4 1 .4 1.1 1 1.7 1 .2.2.9.2c.6 0 .6 0 1.6-.4h.6l.1.2v.3l-.7.2q-.5 0-.8.2l-.2.4q-.1.6-1 .9-.4 0-.4.4-.2.3-.6.5-.9.4-1.8.3m2.8-2q.3 0 .3-.2v-.2l-1.8-.6v.4l.1.6q.6.4 1.4 0M3.9 28.6l-.2-1.2v-2l.5.4.2.2.2-.3c.8-1 2.2-2 3.2-2.3h.4q.3.3.2.5l-1 .6q-1.8 1-2.5 2c-.5.6-.6.7-.6 1.3l-.1.7-.1.2zm11.2-1.5q-1 0-1.3-.4-.2-.4.4-.9l.3-.1-.5-.6q-.8-.4-.5-1 .3-.4.7-.1c.9.4 2.4 2 2.4 2.6l-.3.4-1 .1zm4.1-.1c-.2 0-.4-.6-.3-1q0-.5.8-1l.9-.8q.6-.6.7-.1l.2.1-.1.2-.8 1.1q-.6.7-.5 1t-.4.4zm10-.5q-.5 0-1-.8l-.9-.5q-.2 0-.7-.5t-.4-1v-.3l.3-.2q2.4-.6 4-1.7l1.5-1.2q.7-.6.6-.3l-.4.9-.3.3.5.4.8.7.2.1v.5h-.9l-.2-.2-.2.4-.3.6-.2.4.6.6.7.9q.4.3 0 .5-.2.2-1.1-.6l-.4-.4v.1l-.5.8-.8.5zm-1-2a1 1 0 0 0 .6-.8q0-.3-.2-.3l-1.6.4.6.7zm3-.9a1 1 0 0 0 .4-.9l-.2-.5-.1-.4-.3.2-.8.6-.5.3.2.3 1 .5zM3.8 24v-.5q-.1-.8.2-1.5l.8-.9q.5-.3 1.3 0 1.2.2 1.1.7t-1.2.3l-.7-.2q-.7 0-.7 1.6v.6h-.8m23.4-3-.3-.2.6-.5.4-.2q.5 0 .8-.4l.4-.3 1-1 .4-1.8q0-.6.2-.7l.8-.3q.3.2.4.6c.2.8-1.6 3.4-3.2 4.4q-.8.7-1.5.4M25.8 19q-.5-.4 0-1.7v-.7l-.5-2.6-.6.7-.2.1h.2l.6.7.1.5q0 .3-.3.8l-.3.5q0 .3-.4.2V17l.3-1 .2-.4q0-.2-.6-.5L24 15h-.2l-.2.1h-.2l-.1-.1-.1.4q0 1-.4.6-.3 0-.7-.7l-.3-.6q-.4-.3-1-.1h-.6q-.3 0-.3-.9v-.5l-.1-.1-.4-.3-.3-.1q-.5 0-1.4.9l-.3.2.2.4q.3.5.6.6l.4-.2h.8q.5 0 .8.3t.2 1l-.2.5q0 .3-.1.1-.3-.3-.4-.7l-.2-.4h-1.2v.9l-.1.1q-.1.1-.4-.7l-1-1.5v-.3h-.6q-.6 0-.7.2a3 3 0 0 0-1.2 1.1q0 .3-.2.1V15q-.2-.5 1-1.2l.1-.2h-.1l-.2-.4-.3-.3-.2-.2h-.3l-.6.1-.4.2-.2-.1v-.6q.2-.4 1.2-.6.7-.1 1.2.5l.5.7.2.4-.1-.4q-.2-.3 0-.5l.1-.2v-.1l-.2-.3q0-.2.2-.3h.2q0-.3.3-.4l1.2-.2q.3 0 .4.2l.1.3v.4h.6q.7-.2 1 .1l.2.1.1-.2q0-.3.3-.5v-.2L20 11h-.3v-.4q.2-.3.6-.3l.7.3.1.5v.4h.2q.4 0 1 .5t.8.1.9-.3h.4l-.2-.2q-.2 0-.2-.3t.2-.3q.3 0 .5.2a10 10 0 0 1 1.8 6.7q-.1.8-.4 1l-.2.1zm-1.6-5.2.4-.5.1-.1-.3-.2q-.4-.3-.9-.2l-.2.1.1.3.1.7v.4h.2zm-22.3 4-.2-.1v-.4l.1-.6.7-1q.3 0 .2-.3V15l.2-.4q0-.9 1-1.3l.7-.2h.7q.8.4 1 1 0 .3-.4.4l-.2.1-.3-.3L5 14q-.5-.2-1.1.4-.5.3-.5.7-.1.3.5 0t1.1.2h.3l.4-.2q.6-.5 1.2-.3.5.1 1 .5.3.2.3 1v.5h-.4l-.4.1H7l-.2.2-.4.1-.6.3-.2.2-.1.2h-.4q-.2 0-.3-.3v-.2l-.1-.1q-.3-.1-.2-.8t-.6-.7q-.5-.1-.9.4l-.7 1.1q0 .5-.2.5 0 .2-.3 0m9.6-7.7v-.6c0-.5 0-.5-.2-.8q-.5-1-1.4-1l-.6.2-.8.5q-.5.4-.5.2V8q.6-.5 1.7-1 .6 0 1.1.2l.4.2v-.7q.2-1.2-.6-1-.6 0-1.3.5-.6.4-.6.2-.1-.3.3-.8l1-.5q1.4-.3 1.8.6l.1.5v.3h2l.4.3q.6.3.4.5l-.3.1-.2.2-.2.1-.1.2q.1.4-.5.3h-.9l-.3.3V10H12q-.4.3-.5 0m9.2-3-.1-.4.2-.3q.4-.6 0-1.1-.6-.7-1-.6l-.5.1q-.7.4-.7-.1-.2-.7.2-.7.4-.3.4-.7l-.5-.2q-.7-.3-1.2 0l-.5.1h-.3V3q0-.2.2-.3.6-.3 1.3-.3l.7.1.4.2.6-.2c.9-.4 1-.4 1.3-.4q.9 0 1.3 1 .4.7.1 1.3l-.8.7-.2.2.1.5q.1.5-.3 1-.3.5-.7.3m15 24 1-1.5q.5-1.2 1-3.4l.2-.7h-.2c-.6 0-1.2-.4-.9-.7h.8l.4.2.2-.5.2-2h-1.2q-.5 0-.8-.2h-.3l.2 1.6v2.3l-.9 3.6c-.4 1-.5 1.3-.5 1.8v.3l.2-.2zm-18.2-1.8h-1.3v.1l.3.7.5-.4zM14 29v-.2l-1-.4.2.7.2.7.2-.3zm1.2 0-.2.1v.1q.3 0 .2-.1m3.5 0q.5-.1.2-.1l-.6.2zm1.8-.4.2-.4h-.2l-.4.3.3.3zm-8.4-1-.2-.3h-.2l.3.4q.3 0 .1-.1m10-.4q.3 0 0 0V27l-.2.2zm1.2-1v-.8l-.2.2-.4.8.3.1q.2.3.3-.3m-9.4-5 .2-.1-.3-.1q-.8 0-1.6-.6l-1.4-.7.1.4q.5 1 1.4 1.1zm7.2 0q2 0 1.9-.8V20l-.4.1-2 .5-.6.1v.3c0 .2 0 .2 1.1.1m16.8 0 .4-.3h.2v-.5l-.3-2L38 17l-.3.2q-.5.4-1.7.5h-.4l-.2-.1-.2-.2.2-.1 1-.4c1.2-.6 1.5-.7 1.4-1.1q-.1-1-2.2-5.1l-.8-1.5-.1-.2-.1.2c-.6 1.2-1.8 2.7-2.7 3.4l-.4.2.6.6q1.5 1.4 2.2 2.8c.5 1 1.3 3.1 1.6 4.6l.1.4h.2q0-.3.7 0zm-3.7-6.5-.5-.2q-.2-.3-.1-.6v-.2q-.2-.4 0-.5l.2-.2 1 .1h.4l.5.1.2.3-.3.7q-.5.6-1.4.5m-3-2.5.3-.3.5-.4c.5-.3.6-.5 1.1-1.7l.6-1.6.2-.7v-.3l-.1-.2c-.6-.8-2-2.1-2.7-2.8a18 18 0 0 0-4.4-2.4v.6q.4 1.6.3 2v1l-.1 1-.3.9-.6 1.4-.3.6.4.2 4.8 2.8zm-3-3q-.6-.2-.8-.5l-.2-.2-.2.2v-.5l.2-.8.4-1.3-.2-.8-.1-.6V4l.3-.6h.1l.1.6.1.7v2.1l-.2.8v.6l.5.5h.5q.6.1.8-.4l.1-.4-.1-.5-.4-.6h.3l.3-.1.2-.3.1-.5.2-.1v-.1h.3l.1.4v.5l.1.1h.1l.2.3v.2h.2l.3-.1.2-.3q.3 0 .4.5.4 1.1-.5 1.6-.6.4-1.4.2l-.4-.2-.2.1q-.4.4-.8.3z"/><path fill="#221e1f" d="M18.9 39.7a20 20 0 0 1-14.5-7.4Q1.6 28.7.6 24.7q-.7-2.4-.6-5.2c0-1.4 0-2 .3-3.1A20 20 0 0 1 16.6.2c1.2-.2 1.6-.2 3.3-.2s2.2 0 3.5.3a20 20 0 0 1 16.1 16.1c.2 1.3.3 1.8.3 3.4a20 20 0 0 1-7 15.2q-6 5-14 4.7m2.3-.5 1-.1 1-.2a14 14 0 0 0 7.2-3.1l2-2q2-2.4 2.5-4.7l.1-4.2v-2.6l-.1-.9-.4-2q-.5-2-1.7-3.6a22 22 0 0 0-5.8-4.5 18 18 0 0 0-5.8-1.7 15 15 0 0 0-8.4 2.2q-1.7 1.1-1.4 3l.1.3-.2.1-.7.2q-.9 0-1 .3-.3.2-.3.8-.1.7.5 1 .6.8 2 1.2l1.2.5 1 .5q.3 0 .4.2.8.7.9 1.5 0 .6-.5.4c-.2-.1-.2-.1-.8 0l-1.1.2q-2.7-.2-2.8-2.3v-.4l-.3-.3-.3-.3v.3l.1 1.4.3.5.3 1v.4c-.2.1-.4.7-.4.9 0 .6.4 2 .8 2.8l.2.5.1-.2q.3 0 0-.8-.7-1.8-.5-1.7l.2-.1.3-.2v.1l.2.1.2.5q.3 1 1 1.7 1.3 1.5 3.7 1.7c.7.1 2 .2 2.6 0q1.8-.2 2.8-.7l.3-.2.2-.4.5-.7c.6-.8.6-.8.6-1.2v-.3h.2l.2-.1v-.6h.2l.2.2q.3.3 0 .5v.1q.2.1.4-.3.3-.3.2-1.7v-1l-.6-1.9-.1.1v.4q.2.2 0 .8 0 .8-1 1.2-.6.3-1.3.3l-1-.1-.6-.2q-.2.3-.3.1-.3 0-.4-.5c0-.5-.2-.4-.5-.5h-.3q-.3 0-.4-.5-.2-.7.8-1a4 4 0 0 1 1.8 0h1q1.5-.1 1.5-1l-.6-1.2q-.5-.9.2-.8.5-.1.8.8.5 1 1 1.3l.3.5c.3.5.3.6.3 1.6v2.3c0 .7-.1 1-.4 2l-.1 1.1v.5l-.2.4-.9 1.4h-1.1q-.4 0-1.1 1.1-.6 1-1 .8l-.4-.3h-.2q-.4.3-1.3.2c-.8 0-.8 0-1.3.4l-.6.4-.4-.2q-.3-.4-.9-.3l-.6-.2-.1-.1v.2q-.4 1.1-1.3.7-.7-.6-1-2.1c0-.2 0-.2-.8-.8q-1.3-.9-1.6-1.4l-.2-1.3q0-.8-.2-1-.3-.3-.1-1.7l-.5-2.1-.2-1v-.4H8c-1.2 0-1.8.2-3 .8-.8.3-1.2.6-2.3 1.3l-.8.5q-.2 0-.2-.3 0-.9 1.6-1.7c1.3-.7 3.9-1.5 5.1-1.5h.5v-.4l-.1-.9-.2-.8.1-.6c.3-.6 1-1.4 1.3-1.6l.2-.1v-.3q0-.9.6-1.5.4-.5 1.5-1 .5-.2.6-.5l.9-.9q1-.6 2.3-1l1-.5-.4-1.3c-.3-.3-1.2-1.3-2.3-2.2L13 3.4l.2-.2q.3-.3 1.6.6c1 .8 2.2 2 2.5 2.6l.3.9.4.7h3.3l3 .8.6.2.3-.8.6-1.5.2-.9v-.6q0-.6.2-.8v-.7l-.1-1-.4-1.3a43 43 0 0 0-6.5-1c-1 0-1.3 0-2.1.3l-1.3.3c-.9.1-1.2.2-3 1a16 16 0 0 0-9.1 8.2l-.6 1.2.3-.2 1.7-.7a4 4 0 0 1 2.5 0q1.5.3 1.5 1.2.1.6-1 0l-1.5-.2q-2 0-3.6 1l-.5.2q-.2 0-.3.2a13 13 0 0 0-1 4.4v1.3c-.2.5-.2.6-.2 2.1v1.7l.1.4.2.7c0 2 1.5 5.4 3.5 8.2a15 15 0 0 0 3.4 3.5L14 38a15 15 0 0 0 7.2 1.1m0-1.7a6 6 0 0 1-2.7-2.6l-.3-.1q-.7-.2-1.2-.7-.3-.4-.3-.2l.5.7.4.4-.3.3-.5-.1q-.6-.6-1 0V37h-.1q-.3.4-.5-.3l-.2-.9v-.6l.1-.1-.2-.1-.5-.4q-.7-.8-.4-1.4l.6-1 .3-.1h.1q.2-1.1.4-.5l.9.9.3.1.1-.2.6-.4q.6-.4.6-.8v-.1l.3.3h.8v.2q0 .4-1.2 1.2l-.4.4.6.5 1.2.4v.2l-.1.2.2.4.5.7q.8 1 1.6 1.5.5.2.5.5zm-5-3.3-.6-.8-.5-.8-.3.5q-.2.5-.1.7-.1.4.5.4zm6 2.8q-.5-.4-.7-1-.1-.2 0-.4.3-.4-.2-.7-.5-.5-.6-1 0-.7.3-1l.2-.2-.4-.2q-.9-.2-.5-.8l.1-.2.7.4q.3.3.7.2h.2v-.4q.1-.7.8-1l.2-.3v-.8l.3-.1q.2 0 .3.3.1.4.8 1.2l1.4 1.4a15 15 0 0 0 3.7 1.9h.2l-.3.1c-.5.1-1.9 0-2.5-.2q-1-.3-3.1-2.7l-.5-.6-.2.2-.3.6q0 .9 1.3 1.2.4 0 .4.2l-.4.4q-.5.4-.3.7 0 .4.7.7l.3.2v.2q-.4.3-1 .2-.3-.3-.5-1V34l.1-.4-.3-.3q-1-.6-1-1l-.3.3q-.6.5-.6.8l.3.6q.3.3.8.3.3 0 .3.4l-.2.3-.3.3.1.2q.1.4.5.7.4.6 0 .7-.3.3-.6 0m-10.8-1-.2-.2-.6-1.4-.1-1.3a6 6 0 0 1 .9-3.4l.2-.2.3.5-.1.3q-.3.3-.3 1.3 0 .6-.2 1v.7q0 .5.3 1.4l.4.8.2.4H12q-.3.3-.6 0m-4.2-3.7q-.4 0-.7-1v-1.7q.2-.3.6-.3t1-.7c.7-.7.6-.6 1-.5l.8.6q0 .3-.3.4l-.4-.1q-.4-.3-.9 0c-.2 0-.3.6-.1.8q.1.3 0 .4l-.2.1q-.3 0-.5-.2l-.3-.1H7l.3 1 .3 1.2-.1.2zm20.3-.3q-.9-.1-1-.8c-.1-.1 0-.7 0-.8l-.2-.2-.7-.8.1-.8q.4-1 .7-.7l-.2.4q-.4.6-.2 1l.7.5q.7.3 1-.3l.4-.5.2-.2-.6-.4q-.5-.3-.6-.8v-.2q.1-.4 1 .4 1.1 1 1.7 1 .2.2.9.2c.6 0 .6 0 1.6-.4h.6l.1.2v.3l-.7.2q-.6 0-.8.2l-.2.4q-.1.6-1 .9-.4 0-.4.4-.2.3-.6.5-.9.4-1.8.3m1-.6.6-.3.3-.2-.7-.4q-.3 0-.3-.4v.1h-.2l-.4.2-.5.2H27l.2.4q.1.4.4.5.3.3 1 .1m1.8-1.4q.3 0 .3-.2v-.2l-1.8-.6v.4l.1.6q.5.4 1.4 0M3.9 28.6l-.2-1.2v-2l.5.4.2.2.2-.3c.8-1 2.2-2 3.2-2.3h.4q.3.3.2.5l-1 .6q-1.8 1-2.5 2c-.5.6-.6.7-.6 1.3l-.1.7-.1.2zm11.2-1.5q-1 0-1.3-.4-.2-.4.4-.9l.3-.1-.5-.6q-.8-.4-.5-1 .3-.4.7-.1c.9.4 2.4 2 2.4 2.6l-.3.4-1 .1zm4.1-.1c-.2 0-.4-.6-.3-1q0-.5.8-1l.9-.8q.6-.6.7-.1l.2.1-.1.2-.8 1.1q-.6.7-.5 1t-.4.4zm10-.5q-.5 0-1-.8l-.9-.5q-.2 0-.7-.5t-.4-1v-.3l.3-.2q2.4-.6 4-1.7l1.5-1.2q.7-.6.6-.3l-.4.9-.3.3.5.4.8.7.2.1v.5h-.9l-.2-.2-.2.4-.3.6-.2.4.6.6.7.9q.4.3 0 .5-.2.2-1.1-.6l-.4-.4v.1l-.5.8-.8.5zm.8-.7q.5-.3.7-1 .1-.4-.4-.5t-.7-.4l-.1-.2v.1q-.1.6-.7 1.2l-.2.3v.2l.5.3zm-1.7-1.3a1 1 0 0 0 .5-.8q0-.3-.2-.3l-1.6.4.6.7zm2.8-.9a1 1 0 0 0 .5-.9l-.2-.5-.1-.4-.3.2-.8.6-.5.3.2.3 1 .5zM4 24v-.5q-.1-.8.2-1.5l.8-.9q.5-.3 1.3 0 1.2.2 1.1.7t-1.2.3l-.7-.2q-.7 0-.7 1.6v.6H4m23.4-3-.3-.2.6-.5.4-.2q.5 0 .8-.4l.4-.3 1-1 .4-1.8q0-.6.2-.7l.8-.3q.3.2.4.6c.2.8-1.6 3.4-3.2 4.4q-.8.7-1.5.4M26 19q-.5-.4 0-1.7v-.7l-.5-2.6-.6.7-.2.1h.2l.6.7.1.5q0 .3-.3.8l-.3.5q0 .3-.4.2V17l.3-1 .2-.4q0-.2-.6-.5L24 15h-.2l-.2.1h-.2l-.1-.1-.1.4q0 1-.4.6-.3 0-.7-.7l-.3-.6q-.4-.3-1-.1h-.6q-.3 0-.3-.9v-.5l-.1-.1-.4-.3-.3-.1q-.5 0-1.4.9l-.3.2.2.4q.3.5.6.6l.4-.2h.8q.5 0 .8.3t.2 1l-.2.5q0 .3-.1.1-.3-.3-.4-.7l-.2-.4h-1.2v.9l-.1.1q-.1.1-.4-.7l-1-1.5v-.3h-.6q-.6 0-.7.2a3 3 0 0 0-1.2 1.1q0 .3-.2.1V15q-.2-.5 1-1.2l.1-.2h-.1l-.2-.4-.3-.3-.2-.2h-.3l-.6.1-.4.2-.2-.1v-.6q.2-.4 1.2-.6.7-.1 1.2.5l.5.7q.1.5.3.3h.7l.3.1v-.2l.3-.5.2-.2-.1-.2-.1-.3q0-.2-.2-.2H17c-.6.3-1-.3-.4-.6l1.2-.2q.3 0 .4.2l.1.3v.4h.6q.6-.2 1 .1l.1.1.2-.2q0-.3.3-.5v-.2L20 11h-.2v-.4q.1-.3.6-.3l.7.3.1.5v.4h.2q.4 0 1 .5t.8.1q.1-.2.9-.3h.4l-.2-.2q-.3 0-.2-.3t.2-.3q.3 0 .5.2a10 10 0 0 1 1.8 6.7q-.1.8-.4 1zm-1.6-5.2.4-.5.1-.1-.3-.2q-.4-.3-.9-.2l-.2.1.1.3.1.7v.4h.2zm-1.7-.2q0-1-.5-1.3h-.4l-.7.1-.3.3v.8h.4q.8 0 1.3.4h.2zM1.9 17.8l-.2-.1v-.4l.1-.6.7-1q.3 0 .2-.3V15l.2-.4q0-.9 1-1.3l.7-.2h.7q.8.4 1 1 0 .3-.4.4l-.2.1-.3-.3L5 14q-.5-.2-1.1.4-.5.3-.5.7-.1.3.5 0t1.1.2h.3l.4-.2q.6-.5 1.2-.3.5.1 1 .5.3.2.3 1v.5h-.4l-.4.1H7l-.2.2-.4.1-.6.3-.2.2-.1.2h-.4q-.2 0-.3-.3v-.2l-.1-.1q-.3-.1-.2-.8t-.6-.7q-.5-.1-.9.4l-.7 1.1q0 .5-.2.5 0 .2-.3 0m9.6-7.7v-.6c0-.5 0-.5-.2-.8q-.5-1-1.4-1l-.6.2-.8.5q-.5.4-.5.2V8q.6-.5 1.7-1 .6 0 1.1.2l.4.2v-.7q.2-1.2-.6-1-.6 0-1.3.5-.6.4-.6.2-.1-.3.3-.8l1-.5q1.4-.3 1.8.6l.1.5v.3h2l.4.3q.6.3.4.5l-.2.1q-.3.1-1-.1l-.8-.2q-.4 0-.8.5l-.2.3.2.4.3.5V10H12l-.3.1zM20.7 7l-.1-.4.2-.3q.4-.6 0-1.1-.6-.7-1-.6l-.5.1q-.7.4-.7-.1-.2-.7.2-.7.4-.3.4-.7l-.5-.2q-.7-.3-1.2 0l-.5.1h-.3V3q0-.2.2-.3.6-.3 1.3-.3l.7.1.4.2.6-.2c.9-.4 1-.4 1.3-.4q.9 0 1.3 1 .4.7.1 1.3l-.8.7-.2.2.1.5q.1.5-.3 1-.3.5-.7.3m.8-2.7q.5-.2.5-.7 0-.3-.4-.4-.6-.3-1-.2H20l-.1.1v.7l.4.2q.4.4.8.4zM35.7 31l1-1.5q.5-1.2 1-3.4l.2-.7h-.2c-.6 0-1.2-.4-.9-.7h.8l.4.2.2-.5.2-2h-1.2q-.5 0-.8-.2h-.3l.2 1.6v2.3l-.9 3.6c-.4 1-.5 1.3-.5 1.8v.3l.2-.2zm-18.2-1.8h-1.3v.1l.3.7.5-.4zM14 29v-.2l-1-.4.2.7.2.7.2-.3zm1.2 0-.2.1v.1q.3 0 .2-.1m3.5 0 .2-.1-.6.2zm1.8-.4.2-.4h-.2l-.4.3.3.3zm-8.4-1-.2-.3h-.2l.3.4q.3 0 .1-.1m10-.4q.3 0 0 0V27l-.2.2zm1.2-1v-.8l-.2.2-.4.8.3.1q.2.3.3-.3m-9.4-5 .2-.1-.3-.1q-.8 0-1.6-.6l-1.4-.7.1.4q.5 1 1.4 1.1zm7.2 0q2 0 1.9-.8V20l-.4.1-2 .5-.6.1v.3c0 .2 0 .2 1.1.1m16.8 0 .4-.3h.2v-.5l-.3-2L38 17l-.3.2q-.5.4-1.7.5h-.4l-.2-.1-.2-.2.2-.1 1-.4c1.2-.6 1.5-.7 1.4-1.1q-.1-1-2.2-5.1l-.8-1.5-.1-.2-.1.2c-.6 1.2-1.8 2.7-2.7 3.4l-.4.2.6.6q1.5 1.4 2.2 2.8c.5 1 1.3 3.1 1.6 4.6l.1.4h.2q0-.3.7 0zm-3.7-6.5q-.7 0-.6-.6v-.4l.2-.1.1.2.2.2.5.1q.5 0 .6-.3l.2-.6h.3l.2.2-.3.8q-.5.6-1.4.5m-3-2.5.3-.3.5-.4c.5-.3.6-.5 1.1-1.7l.6-1.6.2-.8v-.2l-.1-.2c-.6-.8-2-2.1-2.7-2.8a18 18 0 0 0-4.4-2.4v.6q.4 1.6.3 2v1l-.1 1-.3.9-.6 1.4-.3.6.4.2 4.9 2.8zm-3-3q-.6-.2-.8-.5l-.2-.2-.2.2v-.5l.2-.8.4-1.3-.2-.8-.1-.6V4l.3-.6h.1l.1.6.1.7v2.1l-.2.8v.6l.5.5h.5q.6.1.8-.4l.1-.4-.1-.5-.4-.6h.3l.3-.1.2-.3.2-.5v-.1l.2-.1h.2l.1.4q0 .4-.3.6c-.3.2-.2.2-.1.9v1.2l1.2-.3.2-.6V7q.3-.2.5.4.4 1.1-.5 1.6-.6.4-1.4.2l-.4-.2-.2.1q-.4.4-.8.3z"/></svg>